M48
; DRILL file {KiCad 6.0.11-2627ca5db0~126~ubuntu22.04.1} date Do 01 Feb 2024 14:55:20
; FORMAT={-:-/ absolute / inch / decimal}
; #@! TF.CreationDate,2024-02-01T14:55:20+01:00
; #@! TF.GenerationSoftware,Kicad,Pcbnew,6.0.11-2627ca5db0~126~ubuntu22.04.1
; #@! TF.FileFunction,Plated,1,2,PTH
FMAT,2
INCH
; #@! TA.AperFunction,Plated,PTH,ComponentDrill
T1C0.0138
; #@! TA.AperFunction,Plated,PTH,ViaDrill
T2C0.0157
%
G90
G05
T1
X5.2362Y-3.622
X5.2461Y-3.5531
X5.2756Y-3.622
X5.2854Y-3.5039
X5.2854Y-3.5728
X5.315Y-3.5335
X5.315Y-3.622
X5.3248Y-3.5925
X5.3346Y-3.4646
X5.3445Y-3.563
X5.3543Y-3.5039
X5.374Y-3.5433
X5.4134Y-3.4547
X5.4134Y-3.4941
X5.4134Y-3.5335
X5.4528Y-3.5433
X5.4724Y-3.5039
X5.4823Y-3.563
X5.4921Y-3.4646
X5.502Y-3.5925
X5.5118Y-3.5335
X5.5118Y-3.622
X5.5413Y-3.5039
X5.5413Y-3.5728
X5.5512Y-3.622
X5.5807Y-3.5531
X5.5906Y-3.622
T2
X3.2315Y-3.7429
X3.2453Y-3.4528
X3.3008Y-3.8709
X3.3728Y-3.6744
X3.4256Y-4.1575
X3.4469Y-3.3882
X3.4941Y-4.1941
X3.5358Y-3.3902
X3.5925Y-4.198
X3.6425Y-4.1945
X3.6969Y-4.1941
X3.8035Y-4.1957
X3.8969Y-4.5028
X3.9933Y-4.4886
X4.0945Y-4.2
X4.1917Y-4.2031
X4.252Y-4.198
X4.2886Y-3.6551
X4.4142Y-4.1929
X4.4795Y-4.1972
X4.5118Y-3.9335
X4.6193Y-4.1882
X4.8024Y-3.8118
X4.8606Y-4.1898
X4.972Y-3.8642
X5.037Y-4.3083
X5.0618Y-3.8382
X5.1118Y-3.9783
X5.1465Y-3.5921
X5.1567Y-4.1752
X5.1602Y-4.2378
X5.2211Y-3.9667
X5.3236Y-4.3051
X5.3476Y-3.9299
X5.378Y-3.7516
X5.4941Y-4.2953
X5.5028Y-3.9697
X5.572Y-4.1831
X5.6764Y-4.3016
T0
M30
