%TF.GenerationSoftware,KiCad,Pcbnew,6.0.11-2627ca5db0~126~ubuntu22.04.1*%
%TF.CreationDate,2024-02-01T14:55:18+01:00*%
%TF.ProjectId,GrooveBox,47726f6f-7665-4426-9f78-2e6b69636164,rev?*%
%TF.SameCoordinates,Original*%
%TF.FileFunction,Soldermask,Top*%
%TF.FilePolarity,Negative*%
%FSLAX46Y46*%
G04 Gerber Fmt 4.6, Leading zero omitted, Abs format (unit mm)*
G04 Created by KiCad (PCBNEW 6.0.11-2627ca5db0~126~ubuntu22.04.1) date 2024-02-01 14:55:18*
%MOMM*%
%LPD*%
G01*
G04 APERTURE LIST*
G04 Aperture macros list*
%AMRoundRect*
0 Rectangle with rounded corners*
0 $1 Rounding radius*
0 $2 $3 $4 $5 $6 $7 $8 $9 X,Y pos of 4 corners*
0 Add a 4 corners polygon primitive as box body*
4,1,4,$2,$3,$4,$5,$6,$7,$8,$9,$2,$3,0*
0 Add four circle primitives for the rounded corners*
1,1,$1+$1,$2,$3*
1,1,$1+$1,$4,$5*
1,1,$1+$1,$6,$7*
1,1,$1+$1,$8,$9*
0 Add four rect primitives between the rounded corners*
20,1,$1+$1,$2,$3,$4,$5,0*
20,1,$1+$1,$4,$5,$6,$7,0*
20,1,$1+$1,$6,$7,$8,$9,0*
20,1,$1+$1,$8,$9,$2,$3,0*%
G04 Aperture macros list end*
%ADD10C,0.120000*%
%ADD11R,1.600000X0.850000*%
%ADD12C,3.200000*%
%ADD13R,1.000000X1.700000*%
%ADD14RoundRect,0.400000X0.400000X-0.850000X0.400000X0.850000X-0.400000X0.850000X-0.400000X-0.850000X0*%
%ADD15RoundRect,0.250000X-0.250000X-0.475000X0.250000X-0.475000X0.250000X0.475000X-0.250000X0.475000X0*%
%ADD16RoundRect,0.250000X-0.262500X-0.450000X0.262500X-0.450000X0.262500X0.450000X-0.262500X0.450000X0*%
%ADD17RoundRect,0.250000X0.475000X-0.250000X0.475000X0.250000X-0.475000X0.250000X-0.475000X-0.250000X0*%
%ADD18RoundRect,0.250000X0.250000X0.475000X-0.250000X0.475000X-0.250000X-0.475000X0.250000X-0.475000X0*%
%ADD19C,2.540000*%
%ADD20C,0.600000*%
%ADD21R,2.200000X2.100000*%
%ADD22R,2.700000X2.100000*%
%ADD23R,2.000000X2.100000*%
%ADD24R,2.600000X2.700000*%
%ADD25RoundRect,0.150000X-0.150000X0.512500X-0.150000X-0.512500X0.150000X-0.512500X0.150000X0.512500X0*%
G04 APERTURE END LIST*
%TO.C,LS1*%
G36*
X138276533Y-87050722D02*
G01*
X138866533Y-87170722D01*
X139536533Y-87390722D01*
X140196533Y-87720722D01*
X140816533Y-88110722D01*
X141426533Y-88630722D01*
X141736533Y-88990722D01*
X142076533Y-89460722D01*
X142356533Y-89880722D01*
X142566533Y-90370722D01*
X142756533Y-90850722D01*
X142896533Y-91440722D01*
X142976533Y-91850722D01*
X142996533Y-92500722D01*
X139506533Y-92500722D01*
X139496533Y-92230722D01*
X139406533Y-91900722D01*
X139276533Y-91580722D01*
X139056533Y-91260722D01*
X138746533Y-90940722D01*
X138406533Y-90720722D01*
X137996533Y-90550722D01*
X137646533Y-90520722D01*
X137496533Y-90510722D01*
X137276533Y-90520722D01*
X136946533Y-90580722D01*
X136626533Y-90690722D01*
X136246533Y-90950722D01*
X136026533Y-91140722D01*
X135736533Y-91530722D01*
X135586533Y-91860722D01*
X135506533Y-92210722D01*
X135496533Y-92500722D01*
X131996533Y-92500722D01*
X132016533Y-91890722D01*
X132126533Y-91320722D01*
X132326533Y-90590722D01*
X132556533Y-90100722D01*
X132986533Y-89330722D01*
X133346533Y-88890722D01*
X133816533Y-88420722D01*
X134306533Y-88030722D01*
X134846533Y-87670722D01*
X135586533Y-87320722D01*
X136426533Y-87100722D01*
X137136533Y-87020722D01*
X137506533Y-87000722D01*
X138276533Y-87050722D01*
G37*
D10*
X138276533Y-87050722D02*
X138866533Y-87170722D01*
X139536533Y-87390722D01*
X140196533Y-87720722D01*
X140816533Y-88110722D01*
X141426533Y-88630722D01*
X141736533Y-88990722D01*
X142076533Y-89460722D01*
X142356533Y-89880722D01*
X142566533Y-90370722D01*
X142756533Y-90850722D01*
X142896533Y-91440722D01*
X142976533Y-91850722D01*
X142996533Y-92500722D01*
X139506533Y-92500722D01*
X139496533Y-92230722D01*
X139406533Y-91900722D01*
X139276533Y-91580722D01*
X139056533Y-91260722D01*
X138746533Y-90940722D01*
X138406533Y-90720722D01*
X137996533Y-90550722D01*
X137646533Y-90520722D01*
X137496533Y-90510722D01*
X137276533Y-90520722D01*
X136946533Y-90580722D01*
X136626533Y-90690722D01*
X136246533Y-90950722D01*
X136026533Y-91140722D01*
X135736533Y-91530722D01*
X135586533Y-91860722D01*
X135506533Y-92210722D01*
X135496533Y-92500722D01*
X131996533Y-92500722D01*
X132016533Y-91890722D01*
X132126533Y-91320722D01*
X132326533Y-90590722D01*
X132556533Y-90100722D01*
X132986533Y-89330722D01*
X133346533Y-88890722D01*
X133816533Y-88420722D01*
X134306533Y-88030722D01*
X134846533Y-87670722D01*
X135586533Y-87320722D01*
X136426533Y-87100722D01*
X137136533Y-87020722D01*
X137506533Y-87000722D01*
X138276533Y-87050722D01*
%TD*%
D11*
%TO.C,D9*%
X139750000Y-103625000D03*
X139750000Y-101875000D03*
X136250000Y-101875000D03*
X136250000Y-103625000D03*
%TD*%
D12*
%TO.C,H4*%
X78300000Y-112500000D03*
%TD*%
D13*
%TO.C,SW1*%
X76600000Y-98650000D03*
X76600000Y-92350000D03*
X80400000Y-98650000D03*
X80400000Y-92350000D03*
%TD*%
D14*
%TO.C,R4*%
X102200000Y-112000000D03*
X105800000Y-95000000D03*
X102200000Y-95000000D03*
X105800000Y-112000000D03*
%TD*%
%TO.C,P6*%
X114200000Y-112000000D03*
X117800000Y-95000000D03*
X114200000Y-95000000D03*
X117800000Y-112000000D03*
%TD*%
D15*
%TO.C,C4*%
X131850000Y-95000000D03*
X133750000Y-95000000D03*
%TD*%
D14*
%TO.C,P2*%
X90200000Y-112000000D03*
X93800000Y-95000000D03*
X90200000Y-95000000D03*
X93800000Y-112000000D03*
%TD*%
D13*
%TO.C,SW2*%
X76600000Y-101350000D03*
X76600000Y-107650000D03*
X80400000Y-107650000D03*
X80400000Y-101350000D03*
%TD*%
D11*
%TO.C,D4*%
X105750000Y-89875000D03*
X105750000Y-88125000D03*
X102250000Y-88125000D03*
X102250000Y-89875000D03*
%TD*%
%TO.C,D6*%
X117750000Y-89875000D03*
X117750000Y-88125000D03*
X114250000Y-88125000D03*
X114250000Y-89875000D03*
%TD*%
D16*
%TO.C,R2*%
X146087500Y-106000000D03*
X147912500Y-106000000D03*
%TD*%
D14*
%TO.C,P5*%
X108200000Y-112000000D03*
X108200000Y-95000000D03*
X111800000Y-95000000D03*
X111800000Y-112000000D03*
%TD*%
%TO.C,P8*%
X126200000Y-112000000D03*
X129800000Y-95000000D03*
X126200000Y-95000000D03*
X129800000Y-112000000D03*
%TD*%
D11*
%TO.C,D1*%
X87750000Y-89875000D03*
X87750000Y-88125000D03*
X84250000Y-88125000D03*
X84250000Y-89875000D03*
%TD*%
D13*
%TO.C,SW3*%
X133100000Y-112650000D03*
X133100000Y-106350000D03*
X136900000Y-106350000D03*
X136900000Y-112650000D03*
%TD*%
D17*
%TO.C,C3*%
X82250000Y-92950000D03*
X82250000Y-91050000D03*
%TD*%
D12*
%TO.C,H1*%
X78300000Y-87500000D03*
%TD*%
D18*
%TO.C,C1*%
X147950000Y-104000000D03*
X146050000Y-104000000D03*
%TD*%
D19*
%TO.C,FID3*%
X83000000Y-85500000D03*
%TD*%
D16*
%TO.C,R1*%
X146087500Y-108000000D03*
X147912500Y-108000000D03*
%TD*%
D11*
%TO.C,D5*%
X111750000Y-89875000D03*
X111750000Y-88125000D03*
X108250000Y-88125000D03*
X108250000Y-89875000D03*
%TD*%
D17*
%TO.C,C2*%
X142250000Y-103650000D03*
X142250000Y-101750000D03*
%TD*%
D11*
%TO.C,D7*%
X123750000Y-89875000D03*
X123750000Y-88125000D03*
X120250000Y-88125000D03*
X120250000Y-89875000D03*
%TD*%
D20*
%TO.C,LS1*%
X140000000Y-92000000D03*
X140750000Y-89000000D03*
X139000000Y-89000000D03*
X140750000Y-90750000D03*
X139500000Y-88000000D03*
X137500000Y-87750000D03*
X133000000Y-92000000D03*
X142000000Y-92000000D03*
X140000000Y-89750000D03*
X135500000Y-88000000D03*
X135000000Y-92000000D03*
X133250000Y-90250000D03*
X141000000Y-92000000D03*
X135250000Y-91250000D03*
X135750000Y-90500000D03*
X134250000Y-90750000D03*
X137500000Y-89750000D03*
X139750000Y-91250000D03*
X135000000Y-89750000D03*
X137500000Y-88750000D03*
X136500000Y-90000000D03*
X138500000Y-90000000D03*
X139250000Y-90500000D03*
X141750000Y-90250000D03*
X134250000Y-89000000D03*
X134000000Y-92000000D03*
X136000000Y-89000000D03*
%TD*%
D19*
%TO.C,FID2*%
X143750000Y-85500000D03*
%TD*%
D11*
%TO.C,D3*%
X99750000Y-89875000D03*
X99750000Y-88125000D03*
X96250000Y-88125000D03*
X96250000Y-89875000D03*
%TD*%
D14*
%TO.C,R3*%
X96200000Y-112000000D03*
X96200000Y-95000000D03*
X99800000Y-95000000D03*
X99800000Y-112000000D03*
%TD*%
D19*
%TO.C,FID1*%
X150250000Y-107500000D03*
%TD*%
D14*
%TO.C,P7*%
X120200000Y-112000000D03*
X120200000Y-95000000D03*
X123800000Y-95000000D03*
X123800000Y-112000000D03*
%TD*%
D21*
%TO.C,J1*%
X146862500Y-93200000D03*
X144962500Y-101300000D03*
D22*
X137562500Y-93200000D03*
D23*
X147662500Y-101300000D03*
D24*
X133462500Y-98000000D03*
%TD*%
D11*
%TO.C,D2*%
X93750000Y-89875000D03*
X93750000Y-88125000D03*
X90250000Y-88125000D03*
X90250000Y-89875000D03*
%TD*%
D12*
%TO.C,H2*%
X148300000Y-87500000D03*
%TD*%
D14*
%TO.C,P1*%
X84200000Y-112000000D03*
X84200000Y-95000000D03*
X87800000Y-95000000D03*
X87800000Y-112000000D03*
%TD*%
D12*
%TO.C,H3*%
X148300000Y-112500000D03*
%TD*%
D11*
%TO.C,D8*%
X129750000Y-89875000D03*
X129750000Y-88125000D03*
X126250000Y-88125000D03*
X126250000Y-89875000D03*
%TD*%
D13*
%TO.C,SW4*%
X139600000Y-106350000D03*
X139600000Y-112650000D03*
X143400000Y-112650000D03*
X143400000Y-106350000D03*
%TD*%
D25*
%TO.C,U1*%
X133700000Y-101612500D03*
X132750000Y-101612500D03*
X131800000Y-101612500D03*
X131800000Y-103887500D03*
X132750000Y-103887500D03*
X133700000Y-103887500D03*
%TD*%
M02*
