%TF.GenerationSoftware,KiCad,Pcbnew,6.0.11-2627ca5db0~126~ubuntu22.04.1*%
%TF.CreationDate,2024-02-01T14:55:18+01:00*%
%TF.ProjectId,GrooveBox,47726f6f-7665-4426-9f78-2e6b69636164,rev?*%
%TF.SameCoordinates,Original*%
%TF.FileFunction,Soldermask,Bot*%
%TF.FilePolarity,Negative*%
%FSLAX46Y46*%
G04 Gerber Fmt 4.6, Leading zero omitted, Abs format (unit mm)*
G04 Created by KiCad (PCBNEW 6.0.11-2627ca5db0~126~ubuntu22.04.1) date 2024-02-01 14:55:18*
%MOMM*%
%LPD*%
G01*
G04 APERTURE LIST*
%ADD10R,1.600000X3.500000*%
%ADD11C,3.200000*%
%ADD12R,4.500000X2.200000*%
%ADD13C,0.600000*%
G04 APERTURE END LIST*
D10*
%TO.C,A1*%
X116700000Y-109525000D03*
X114160000Y-109525000D03*
X111620000Y-109525000D03*
X109080000Y-109525000D03*
X106540000Y-109525000D03*
X104000000Y-109525000D03*
X101460000Y-109525000D03*
X98920000Y-109525000D03*
X96380000Y-109525000D03*
X93840000Y-109525000D03*
X91300000Y-109525000D03*
X88760000Y-109525000D03*
X86220000Y-109525000D03*
X83680000Y-109525000D03*
X81140000Y-109525000D03*
X81140000Y-90475000D03*
X83680000Y-90475000D03*
X86220000Y-90475000D03*
X88760000Y-90475000D03*
X91300000Y-90475000D03*
X93840000Y-90475000D03*
X96380000Y-90475000D03*
X98920000Y-90475000D03*
X101460000Y-90475000D03*
X104000000Y-90475000D03*
X106540000Y-90475000D03*
X109080000Y-90475000D03*
X111620000Y-90475000D03*
X114160000Y-90475000D03*
X116700000Y-90475000D03*
%TD*%
D11*
%TO.C,H4*%
X78300000Y-112500000D03*
%TD*%
%TO.C,H1*%
X78300000Y-87500000D03*
%TD*%
D12*
%TO.C,LS1*%
X125500000Y-90000000D03*
X125500000Y-95000000D03*
D13*
X140000000Y-92000000D03*
X140750000Y-89000000D03*
X139000000Y-89000000D03*
X140750000Y-90750000D03*
X139500000Y-88000000D03*
X137500000Y-87750000D03*
X133000000Y-92000000D03*
X142000000Y-92000000D03*
X140000000Y-89750000D03*
X135500000Y-88000000D03*
X135000000Y-92000000D03*
X133250000Y-90250000D03*
X141000000Y-92000000D03*
X135250000Y-91250000D03*
X135750000Y-90500000D03*
X134250000Y-90750000D03*
X137500000Y-89750000D03*
X139750000Y-91250000D03*
X135000000Y-89750000D03*
X137500000Y-88750000D03*
X136500000Y-90000000D03*
X138500000Y-90000000D03*
X139250000Y-90500000D03*
X141750000Y-90250000D03*
X134250000Y-89000000D03*
X134000000Y-92000000D03*
X136000000Y-89000000D03*
%TD*%
D11*
%TO.C,H2*%
X148300000Y-87500000D03*
%TD*%
%TO.C,H3*%
X148300000Y-112500000D03*
%TD*%
M02*
