%TF.GenerationSoftware,KiCad,Pcbnew,6.0.11-2627ca5db0~126~ubuntu22.04.1*%
%TF.CreationDate,2024-02-02T16:35:15+01:00*%
%TF.ProjectId,GrooveBox,47726f6f-7665-4426-9f78-2e6b69636164,rev?*%
%TF.SameCoordinates,Original*%
%TF.FileFunction,Copper,L2,Bot*%
%TF.FilePolarity,Positive*%
%FSLAX46Y46*%
G04 Gerber Fmt 4.6, Leading zero omitted, Abs format (unit mm)*
G04 Created by KiCad (PCBNEW 6.0.11-2627ca5db0~126~ubuntu22.04.1) date 2024-02-02 16:35:15*
%MOMM*%
%LPD*%
G01*
G04 APERTURE LIST*
%TA.AperFunction,SMDPad,CuDef*%
%ADD10R,4.500000X2.200000*%
%TD*%
%TA.AperFunction,ComponentPad*%
%ADD11C,0.600000*%
%TD*%
%TA.AperFunction,SMDPad,CuDef*%
%ADD12R,1.600000X3.500000*%
%TD*%
%TA.AperFunction,ViaPad*%
%ADD13C,0.800000*%
%TD*%
%TA.AperFunction,Conductor*%
%ADD14C,0.250000*%
%TD*%
G04 APERTURE END LIST*
D10*
%TO.P,LS1,1,1*%
%TO.N,Net-(LS1-Pad1)*%
X125500000Y-90000000D03*
%TO.P,LS1,2,2*%
%TO.N,Net-(LS1-Pad2)*%
X125500000Y-95000000D03*
D11*
%TO.P,LS1,3*%
%TO.N,N/C*%
X140000000Y-92000000D03*
X140750000Y-89000000D03*
X139000000Y-89000000D03*
X140750000Y-90750000D03*
X139500000Y-88000000D03*
X137500000Y-87750000D03*
X133000000Y-92000000D03*
X142000000Y-92000000D03*
X140000000Y-89750000D03*
X135500000Y-88000000D03*
X135000000Y-92000000D03*
X133250000Y-90250000D03*
X141000000Y-92000000D03*
X135250000Y-91250000D03*
X135750000Y-90500000D03*
X134250000Y-90750000D03*
X137500000Y-89750000D03*
X139750000Y-91250000D03*
X135000000Y-89750000D03*
X137500000Y-88750000D03*
X136500000Y-90000000D03*
X138500000Y-90000000D03*
X139250000Y-90500000D03*
X141750000Y-90250000D03*
X134250000Y-89000000D03*
X134000000Y-92000000D03*
X136000000Y-89000000D03*
%TD*%
D12*
%TO.P,A1,1,D1/TX*%
%TO.N,unconnected-(A1-Pad1)*%
X116700000Y-109525000D03*
%TO.P,A1,2,D0/RX*%
%TO.N,unconnected-(A1-Pad2)*%
X114160000Y-109525000D03*
%TO.P,A1,3,~{RESET}*%
%TO.N,Net-(A1-Pad28)*%
X111620000Y-109525000D03*
%TO.P,A1,4,GND*%
%TO.N,GND*%
X109080000Y-109525000D03*
%TO.P,A1,5,D2*%
%TO.N,SW1*%
X106540000Y-109525000D03*
%TO.P,A1,6,D3*%
%TO.N,SW2*%
X104000000Y-109525000D03*
%TO.P,A1,7,D4*%
%TO.N,SW3*%
X101460000Y-109525000D03*
%TO.P,A1,8,D5*%
%TO.N,SW4*%
X98920000Y-109525000D03*
%TO.P,A1,9,D6*%
%TO.N,SPEAKER*%
X96380000Y-109525000D03*
%TO.P,A1,10,D7*%
%TO.N,PIXEL*%
X93840000Y-109525000D03*
%TO.P,A1,11,D8*%
%TO.N,unconnected-(A1-Pad11)*%
X91300000Y-109525000D03*
%TO.P,A1,12,D9*%
%TO.N,unconnected-(A1-Pad12)*%
X88760000Y-109525000D03*
%TO.P,A1,13,D10*%
%TO.N,unconnected-(A1-Pad13)*%
X86220000Y-109525000D03*
%TO.P,A1,14,D11*%
%TO.N,unconnected-(A1-Pad14)*%
X83680000Y-109525000D03*
%TO.P,A1,15,D12*%
%TO.N,unconnected-(A1-Pad15)*%
X81140000Y-109525000D03*
%TO.P,A1,16,D13*%
%TO.N,unconnected-(A1-Pad16)*%
X81140000Y-90475000D03*
%TO.P,A1,17,3V3*%
%TO.N,+3V3*%
X83680000Y-90475000D03*
%TO.P,A1,18,AREF*%
%TO.N,Net-(A1-Pad18)*%
X86220000Y-90475000D03*
%TO.P,A1,19,A0*%
%TO.N,Net-(P1-Pad2)*%
X88760000Y-90475000D03*
%TO.P,A1,20,A1*%
%TO.N,Net-(A1-Pad20)*%
X91300000Y-90475000D03*
%TO.P,A1,21,A2*%
%TO.N,Net-(A1-Pad21)*%
X93840000Y-90475000D03*
%TO.P,A1,22,A3*%
%TO.N,Net-(R4-Pad2)*%
X96380000Y-90475000D03*
%TO.P,A1,23,A4*%
%TO.N,Net-(A1-Pad23)*%
X98920000Y-90475000D03*
%TO.P,A1,24,A5*%
%TO.N,Net-(P6-Pad2)*%
X101460000Y-90475000D03*
%TO.P,A1,25,A6*%
%TO.N,Net-(P7-Pad2)*%
X104000000Y-90475000D03*
%TO.P,A1,26,A7*%
%TO.N,Net-(A1-Pad26)*%
X106540000Y-90475000D03*
%TO.P,A1,27,+5V*%
%TO.N,VCC*%
X109080000Y-90475000D03*
%TO.P,A1,28,~{RESET}*%
%TO.N,Net-(A1-Pad28)*%
X111620000Y-90475000D03*
%TO.P,A1,29,GND*%
%TO.N,GND*%
X114160000Y-90475000D03*
%TO.P,A1,30,VIN*%
%TO.N,unconnected-(A1-Pad30)*%
X116700000Y-90475000D03*
%TD*%
D13*
%TO.N,GND*%
X121900000Y-110290000D03*
X103950000Y-112520000D03*
X110130000Y-112680000D03*
X116190000Y-112700000D03*
%TO.N,Net-(A1-Pad26)*%
X110130000Y-98870000D03*
%TO.N,Net-(P7-Pad2)*%
X107920000Y-98180000D03*
%TO.N,Net-(P6-Pad2)*%
X104590000Y-97270000D03*
%TO.N,Net-(A1-Pad23)*%
X99970000Y-92460000D03*
%TO.N,Net-(R4-Pad2)*%
X97520000Y-92720000D03*
%TO.N,Net-(A1-Pad21)*%
X95660000Y-93010000D03*
%TO.N,Net-(A1-Pad20)*%
X90240000Y-92900000D03*
%TO.N,Net-(P1-Pad2)*%
X88680000Y-92990000D03*
%TO.N,SW2*%
X104000000Y-106680000D03*
%TO.N,Net-(A1-Pad28)*%
X115330000Y-100720000D03*
X113780000Y-106610000D03*
%TO.N,SPEAKER*%
X144180000Y-109260000D03*
%TO.N,+3V3*%
X83840000Y-98320000D03*
%TO.N,Net-(A1-Pad18)*%
X82430000Y-87700000D03*
%TO.N,VCC*%
X123460000Y-106420000D03*
%TO.N,Net-(LS1-Pad1)*%
X121980000Y-99450000D03*
%TO.N,Net-(LS1-Pad2)*%
X126290000Y-98150000D03*
%TO.N,GND*%
X139550000Y-109100000D03*
X141530000Y-106250000D03*
X84660000Y-92970000D03*
X131070000Y-107640000D03*
X82080000Y-95070000D03*
X139770000Y-100830000D03*
X132615117Y-100754500D03*
X127940000Y-109430000D03*
X135220000Y-109350000D03*
X89810000Y-86110000D03*
X128570000Y-97490000D03*
X130980000Y-106050000D03*
%TO.N,VCC*%
X108930000Y-92840000D03*
%TO.N,PIXEL*%
X87550000Y-86060000D03*
X92520000Y-106540000D03*
X87010000Y-105600000D03*
%TO.N,Net-(D8-Pad1)*%
X130720000Y-91240000D03*
X135830000Y-99820000D03*
%TO.N,SW1*%
X106470000Y-106760000D03*
%TO.N,SW3*%
X101430000Y-114010000D03*
%TO.N,SW4*%
X98980000Y-114370000D03*
%TO.N,Net-(C1-Pad1)*%
X136600000Y-95290000D03*
X129840000Y-101050000D03*
%TD*%
D14*
%TO.N,Net-(R4-Pad2)*%
X96685000Y-92655000D02*
X96380000Y-92350000D01*
X96685000Y-92655000D02*
X96750000Y-92720000D01*
X96750000Y-92720000D02*
X97520000Y-92720000D01*
%TO.N,Net-(A1-Pad20)*%
X90240000Y-92900000D02*
X90720000Y-92900000D01*
X90720000Y-92900000D02*
X91300000Y-92320000D01*
X91300000Y-92320000D02*
X91300000Y-90475000D01*
%TO.N,Net-(A1-Pad26)*%
X106540000Y-90475000D02*
X106540000Y-93410000D01*
X106540000Y-93410000D02*
X108120000Y-94990000D01*
X108120000Y-94990000D02*
X108120000Y-96860000D01*
X108120000Y-96860000D02*
X110130000Y-98870000D01*
%TO.N,Net-(P7-Pad2)*%
X107050000Y-96100000D02*
X104000000Y-93050000D01*
X107050000Y-96100000D02*
X107050000Y-97310000D01*
X107050000Y-97310000D02*
X107920000Y-98180000D01*
%TO.N,Net-(A1-Pad28)*%
X111620000Y-90475000D02*
X111620000Y-96930000D01*
X111620000Y-96930000D02*
X115330000Y-100640000D01*
X115330000Y-100640000D02*
X115330000Y-100720000D01*
%TO.N,Net-(LS1-Pad1)*%
X125500000Y-90000000D02*
X124580000Y-90000000D01*
X124580000Y-90000000D02*
X121980000Y-92600000D01*
X121980000Y-92600000D02*
X121980000Y-99450000D01*
%TO.N,Net-(P6-Pad2)*%
X102900000Y-97270000D02*
X102895000Y-97275000D01*
X102895000Y-97275000D02*
X101460000Y-95840000D01*
X104590000Y-97270000D02*
X102900000Y-97270000D01*
%TO.N,VCC*%
X114560000Y-101710000D02*
X108985000Y-96135000D01*
X108930000Y-92840000D02*
X108930000Y-96080000D01*
X108930000Y-96080000D02*
X108985000Y-96135000D01*
%TO.N,Net-(A1-Pad23)*%
X99970000Y-92460000D02*
X99200000Y-92460000D01*
X99200000Y-92460000D02*
X98920000Y-92180000D01*
X98920000Y-92180000D02*
X98920000Y-90475000D01*
%TO.N,Net-(R4-Pad2)*%
X96380000Y-92350000D02*
X96380000Y-90475000D01*
%TO.N,Net-(A1-Pad21)*%
X95410000Y-92760000D02*
X94290000Y-92760000D01*
X93840000Y-92310000D02*
X93840000Y-90475000D01*
X95660000Y-93010000D02*
X95410000Y-92760000D01*
X94290000Y-92760000D02*
X93840000Y-92310000D01*
%TO.N,Net-(A1-Pad20)*%
X91220000Y-90555000D02*
X91300000Y-90475000D01*
%TO.N,Net-(P1-Pad2)*%
X88680000Y-92990000D02*
X88760000Y-92910000D01*
X88760000Y-92910000D02*
X88760000Y-90475000D01*
%TO.N,SW2*%
X104000000Y-106680000D02*
X104000000Y-109525000D01*
%TO.N,Net-(A1-Pad28)*%
X111620000Y-108530000D02*
X111620000Y-109525000D01*
X113540000Y-106610000D02*
X111620000Y-108530000D01*
X113780000Y-106610000D02*
X113540000Y-106610000D01*
%TO.N,SPEAKER*%
X123680000Y-110720000D02*
X142720000Y-110720000D01*
X142720000Y-110720000D02*
X144180000Y-109260000D01*
X97900000Y-115370000D02*
X101720000Y-115370000D01*
X119810000Y-114590000D02*
X123680000Y-110720000D01*
X96380000Y-109525000D02*
X96380000Y-113850000D01*
X96380000Y-113850000D02*
X97900000Y-115370000D01*
X101720000Y-115370000D02*
X102500000Y-114590000D01*
X102500000Y-114590000D02*
X119810000Y-114590000D01*
%TO.N,+3V3*%
X83840000Y-98320000D02*
X83680000Y-98160000D01*
X83680000Y-98160000D02*
X83680000Y-90475000D01*
%TO.N,Net-(A1-Pad18)*%
X82930000Y-87700000D02*
X82430000Y-87700000D01*
X85810000Y-87900000D02*
X83110000Y-87900000D01*
X83110000Y-87900000D02*
X83110000Y-87880000D01*
X83110000Y-87880000D02*
X82930000Y-87700000D01*
X86220000Y-88310000D02*
X85810000Y-87900000D01*
X86220000Y-90475000D02*
X86220000Y-88310000D01*
%TO.N,Net-(P6-Pad2)*%
X101460000Y-95840000D02*
X101460000Y-90475000D01*
%TO.N,Net-(P7-Pad2)*%
X104000000Y-93050000D02*
X104000000Y-90475000D01*
%TO.N,VCC*%
X118750000Y-101710000D02*
X114560000Y-101710000D01*
X123460000Y-106420000D02*
X118750000Y-101710000D01*
%TO.N,Net-(LS1-Pad2)*%
X126290000Y-98150000D02*
X125500000Y-97360000D01*
X125500000Y-97360000D02*
X125500000Y-95000000D01*
%TO.N,VCC*%
X108930000Y-90625000D02*
X109080000Y-90475000D01*
X108930000Y-92840000D02*
X108930000Y-90625000D01*
%TO.N,PIXEL*%
X87550000Y-86060000D02*
X87500000Y-86110000D01*
X93840000Y-107870000D02*
X93840000Y-109525000D01*
X92520000Y-106540000D02*
X92520000Y-106550000D01*
X87500000Y-86110000D02*
X87500000Y-90960000D01*
X87500000Y-90960000D02*
X87500000Y-105110000D01*
X92520000Y-106550000D02*
X93840000Y-107870000D01*
X87500000Y-105110000D02*
X87010000Y-105600000D01*
%TO.N,Net-(D8-Pad1)*%
X136400000Y-97070000D02*
X136400000Y-99250000D01*
X130720000Y-92700000D02*
X131820000Y-93800000D01*
X130720000Y-91240000D02*
X130720000Y-92700000D01*
X137240000Y-93800000D02*
X137800000Y-94360000D01*
X131820000Y-93800000D02*
X137240000Y-93800000D01*
X137800000Y-95670000D02*
X136400000Y-97070000D01*
X136400000Y-99250000D02*
X135830000Y-99820000D01*
X137800000Y-94360000D02*
X137800000Y-95670000D01*
%TO.N,SW1*%
X106540000Y-106830000D02*
X106540000Y-109525000D01*
X106470000Y-106760000D02*
X106540000Y-106830000D01*
%TO.N,SW3*%
X101460000Y-113980000D02*
X101460000Y-109525000D01*
X101430000Y-114010000D02*
X101460000Y-113980000D01*
%TO.N,SW4*%
X98980000Y-114370000D02*
X98920000Y-114310000D01*
X98920000Y-114310000D02*
X98920000Y-109525000D01*
%TO.N,Net-(C1-Pad1)*%
X129840000Y-101050000D02*
X129840000Y-99050000D01*
X133600000Y-95290000D02*
X136600000Y-95290000D01*
X129840000Y-99050000D02*
X130770000Y-98120000D01*
X130770000Y-98120000D02*
X133600000Y-95290000D01*
%TD*%
%TA.AperFunction,Conductor*%
%TO.N,GND*%
G36*
X148280752Y-84352310D02*
G01*
X148295525Y-84354841D01*
X148305339Y-84353413D01*
X148309378Y-84353464D01*
X148329531Y-84352653D01*
X148617432Y-84371141D01*
X148630307Y-84372636D01*
X148875601Y-84414028D01*
X148941934Y-84425221D01*
X148954602Y-84428037D01*
X149259142Y-84512389D01*
X149271453Y-84516492D01*
X149565713Y-84631724D01*
X149577537Y-84637072D01*
X149858384Y-84781959D01*
X149869595Y-84788495D01*
X150134047Y-84961499D01*
X150144513Y-84969143D01*
X150263459Y-85065795D01*
X150389783Y-85168443D01*
X150399419Y-85177135D01*
X150622865Y-85400581D01*
X150631556Y-85410216D01*
X150830857Y-85655487D01*
X150838501Y-85665953D01*
X150882800Y-85733668D01*
X151011505Y-85930405D01*
X151018041Y-85941616D01*
X151162928Y-86222463D01*
X151168276Y-86234287D01*
X151283508Y-86528547D01*
X151287611Y-86540858D01*
X151371963Y-86845398D01*
X151374779Y-86858066D01*
X151422658Y-87141799D01*
X151427363Y-87169684D01*
X151428859Y-87182568D01*
X151447271Y-87469285D01*
X151447347Y-87470468D01*
X151446536Y-87490622D01*
X151446587Y-87494661D01*
X151445159Y-87504475D01*
X151446834Y-87514249D01*
X151447690Y-87519245D01*
X151449500Y-87540525D01*
X151449500Y-112458438D01*
X151447597Y-112480253D01*
X151445182Y-112493991D01*
X151446567Y-112503810D01*
X151446501Y-112507718D01*
X151447232Y-112528022D01*
X151432716Y-112740644D01*
X151427595Y-112815645D01*
X151426058Y-112828457D01*
X151383580Y-113074991D01*
X151372424Y-113139735D01*
X151369586Y-113152318D01*
X151296053Y-113414856D01*
X151284390Y-113456497D01*
X151280279Y-113468724D01*
X151164425Y-113762572D01*
X151159085Y-113774317D01*
X151097334Y-113893508D01*
X151013774Y-114054793D01*
X151007258Y-114065932D01*
X150834033Y-114330055D01*
X150826413Y-114340469D01*
X150627073Y-114585500D01*
X150618427Y-114595080D01*
X150395080Y-114818427D01*
X150385500Y-114827073D01*
X150140469Y-115026413D01*
X150130055Y-115034033D01*
X149865932Y-115207258D01*
X149854793Y-115213774D01*
X149574319Y-115359084D01*
X149562574Y-115364424D01*
X149268724Y-115480279D01*
X149256502Y-115484388D01*
X148952318Y-115569586D01*
X148939740Y-115572423D01*
X148725387Y-115609357D01*
X148628457Y-115626058D01*
X148615645Y-115627595D01*
X148569438Y-115630750D01*
X148328022Y-115647232D01*
X148307718Y-115646501D01*
X148303810Y-115646567D01*
X148293991Y-115645182D01*
X148284224Y-115646899D01*
X148280253Y-115647597D01*
X148258438Y-115649500D01*
X102417149Y-115649500D01*
X102349028Y-115629498D01*
X102302535Y-115575842D01*
X102292431Y-115505568D01*
X102321925Y-115440988D01*
X102328054Y-115434404D01*
X102660055Y-115102404D01*
X102722367Y-115068379D01*
X102749150Y-115065500D01*
X119742627Y-115065500D01*
X119753723Y-115066739D01*
X119753771Y-115066141D01*
X119762717Y-115066861D01*
X119771473Y-115068842D01*
X119821441Y-115065742D01*
X119829242Y-115065500D01*
X119844145Y-115065500D01*
X119853514Y-115064158D01*
X119863566Y-115063129D01*
X119907417Y-115060408D01*
X119915862Y-115057359D01*
X119922098Y-115056068D01*
X119929849Y-115054135D01*
X119935938Y-115052354D01*
X119944829Y-115051081D01*
X119956751Y-115045660D01*
X119984836Y-115032892D01*
X119994201Y-115029080D01*
X120027083Y-115017209D01*
X120027086Y-115017207D01*
X120035530Y-115014159D01*
X120042777Y-115008864D01*
X120048407Y-115005871D01*
X120055257Y-115001868D01*
X120060644Y-114998423D01*
X120068820Y-114994706D01*
X120102113Y-114966019D01*
X120110029Y-114959734D01*
X120116101Y-114955298D01*
X120116108Y-114955292D01*
X120120035Y-114952423D01*
X120130076Y-114942382D01*
X120136923Y-114936024D01*
X120165202Y-114911657D01*
X120172004Y-114905796D01*
X120176888Y-114898261D01*
X120182787Y-114891499D01*
X120182867Y-114891569D01*
X120191252Y-114881206D01*
X122603173Y-112469285D01*
X146344759Y-112469285D01*
X146345003Y-112473720D01*
X146345003Y-112473724D01*
X146348384Y-112535147D01*
X146359938Y-112745087D01*
X146413825Y-113015999D01*
X146505347Y-113276616D01*
X146632678Y-113521737D01*
X146635261Y-113525352D01*
X146635265Y-113525358D01*
X146746355Y-113680813D01*
X146793275Y-113746471D01*
X146835707Y-113790951D01*
X146938388Y-113898588D01*
X146983936Y-113946335D01*
X146987431Y-113949091D01*
X146987433Y-113949092D01*
X147195681Y-114113261D01*
X147200856Y-114117341D01*
X147284355Y-114165841D01*
X147435853Y-114253839D01*
X147435859Y-114253842D01*
X147439707Y-114256077D01*
X147566736Y-114307529D01*
X147627639Y-114332197D01*
X147695723Y-114359774D01*
X147700036Y-114360845D01*
X147700041Y-114360847D01*
X147959475Y-114425291D01*
X147959480Y-114425292D01*
X147963796Y-114426364D01*
X147968224Y-114426818D01*
X147968226Y-114426818D01*
X148043339Y-114434514D01*
X148199370Y-114450500D01*
X148370362Y-114450500D01*
X148575530Y-114435973D01*
X148579885Y-114435035D01*
X148579888Y-114435035D01*
X148841215Y-114378773D01*
X148841217Y-114378773D01*
X148845562Y-114377837D01*
X149104709Y-114282233D01*
X149153185Y-114256077D01*
X149343884Y-114153181D01*
X149347800Y-114151068D01*
X149569984Y-113986960D01*
X149587511Y-113969707D01*
X149689566Y-113869242D01*
X149766829Y-113793183D01*
X149934406Y-113573604D01*
X149996509Y-113462712D01*
X150067197Y-113336490D01*
X150067198Y-113336487D01*
X150069373Y-113332604D01*
X150169036Y-113074991D01*
X150231407Y-112805905D01*
X150255241Y-112530715D01*
X150254370Y-112514881D01*
X150240307Y-112259356D01*
X150240306Y-112259349D01*
X150240062Y-112254913D01*
X150186175Y-111984001D01*
X150094653Y-111723384D01*
X149967322Y-111478263D01*
X149964739Y-111474648D01*
X149964735Y-111474642D01*
X149809313Y-111257150D01*
X149809310Y-111257146D01*
X149806725Y-111253529D01*
X149694485Y-111135871D01*
X149619136Y-111056885D01*
X149619134Y-111056883D01*
X149616064Y-111053665D01*
X149600832Y-111041657D01*
X149402639Y-110885414D01*
X149402637Y-110885413D01*
X149399144Y-110882659D01*
X149286609Y-110817294D01*
X149164147Y-110746161D01*
X149164141Y-110746158D01*
X149160293Y-110743923D01*
X148904277Y-110640226D01*
X148899964Y-110639155D01*
X148899959Y-110639153D01*
X148640525Y-110574709D01*
X148640520Y-110574708D01*
X148636204Y-110573636D01*
X148631776Y-110573182D01*
X148631774Y-110573182D01*
X148551573Y-110564965D01*
X148400630Y-110549500D01*
X148229638Y-110549500D01*
X148024470Y-110564027D01*
X148020115Y-110564965D01*
X148020112Y-110564965D01*
X147758785Y-110621227D01*
X147758783Y-110621227D01*
X147754438Y-110622163D01*
X147495291Y-110717767D01*
X147491373Y-110719881D01*
X147442668Y-110746161D01*
X147252200Y-110848932D01*
X147030016Y-111013040D01*
X147026837Y-111016169D01*
X147026834Y-111016172D01*
X146945723Y-111096019D01*
X146833171Y-111206817D01*
X146665594Y-111426396D01*
X146663416Y-111430285D01*
X146539505Y-111651544D01*
X146530627Y-111667396D01*
X146529023Y-111671541D01*
X146529022Y-111671544D01*
X146485903Y-111783000D01*
X146430964Y-111925009D01*
X146368593Y-112194095D01*
X146344759Y-112469285D01*
X122603173Y-112469285D01*
X123840053Y-111232405D01*
X123902365Y-111198379D01*
X123929148Y-111195500D01*
X142652627Y-111195500D01*
X142663723Y-111196739D01*
X142663771Y-111196141D01*
X142672717Y-111196861D01*
X142681473Y-111198842D01*
X142731441Y-111195742D01*
X142739242Y-111195500D01*
X142754145Y-111195500D01*
X142763514Y-111194158D01*
X142773566Y-111193129D01*
X142817417Y-111190408D01*
X142825862Y-111187359D01*
X142832098Y-111186068D01*
X142839849Y-111184135D01*
X142845938Y-111182354D01*
X142854829Y-111181081D01*
X142866751Y-111175660D01*
X142894836Y-111162892D01*
X142904201Y-111159080D01*
X142937083Y-111147209D01*
X142937086Y-111147207D01*
X142945530Y-111144159D01*
X142952777Y-111138864D01*
X142958407Y-111135871D01*
X142965257Y-111131868D01*
X142970644Y-111128423D01*
X142978820Y-111124706D01*
X143012113Y-111096019D01*
X143020029Y-111089734D01*
X143026101Y-111085298D01*
X143026108Y-111085292D01*
X143030035Y-111082423D01*
X143040076Y-111072382D01*
X143046923Y-111066024D01*
X143075202Y-111041657D01*
X143082004Y-111035796D01*
X143086888Y-111028261D01*
X143092787Y-111021499D01*
X143092867Y-111021569D01*
X143101252Y-111011206D01*
X144061512Y-110050946D01*
X144123824Y-110016920D01*
X144153243Y-110014069D01*
X144157206Y-110014152D01*
X144164183Y-110015083D01*
X144171194Y-110014445D01*
X144171197Y-110014445D01*
X144324843Y-110000462D01*
X144331864Y-109999823D01*
X144338566Y-109997645D01*
X144338568Y-109997645D01*
X144485298Y-109949970D01*
X144485301Y-109949969D01*
X144491997Y-109947793D01*
X144636623Y-109861578D01*
X144641717Y-109856727D01*
X144641721Y-109856724D01*
X144753454Y-109750322D01*
X144753455Y-109750320D01*
X144758554Y-109745465D01*
X144851731Y-109605223D01*
X144911521Y-109447823D01*
X144934955Y-109281088D01*
X144935249Y-109260000D01*
X144916481Y-109092676D01*
X144861108Y-108933668D01*
X144771884Y-108790879D01*
X144763723Y-108782661D01*
X144658205Y-108676403D01*
X144658201Y-108676400D01*
X144653242Y-108671406D01*
X144511079Y-108581187D01*
X144352462Y-108524706D01*
X144345474Y-108523873D01*
X144345471Y-108523872D01*
X144252300Y-108512762D01*
X144185273Y-108504769D01*
X144178270Y-108505505D01*
X144178269Y-108505505D01*
X144132712Y-108510293D01*
X144017821Y-108522369D01*
X144011155Y-108524638D01*
X144011152Y-108524639D01*
X143865098Y-108574360D01*
X143865095Y-108574361D01*
X143858431Y-108576630D01*
X143852436Y-108580318D01*
X143852432Y-108580320D01*
X143721021Y-108661165D01*
X143721019Y-108661167D01*
X143715022Y-108664856D01*
X143594724Y-108782661D01*
X143503515Y-108924190D01*
X143445927Y-109082409D01*
X143424825Y-109249455D01*
X143425512Y-109256462D01*
X143425512Y-109256464D01*
X143427341Y-109275114D01*
X143414082Y-109344862D01*
X143391037Y-109376505D01*
X142559947Y-110207595D01*
X142497635Y-110241621D01*
X142470852Y-110244500D01*
X123747372Y-110244500D01*
X123736276Y-110243261D01*
X123736228Y-110243859D01*
X123727282Y-110243139D01*
X123718526Y-110241158D01*
X123668559Y-110244258D01*
X123660757Y-110244500D01*
X123645855Y-110244500D01*
X123636486Y-110245842D01*
X123626434Y-110246871D01*
X123607823Y-110248026D01*
X123591540Y-110249036D01*
X123591538Y-110249036D01*
X123582583Y-110249592D01*
X123574143Y-110252639D01*
X123567918Y-110253928D01*
X123560152Y-110255864D01*
X123554056Y-110257646D01*
X123545171Y-110258919D01*
X123537000Y-110262634D01*
X123536997Y-110262635D01*
X123505159Y-110277111D01*
X123495796Y-110280923D01*
X123454470Y-110295842D01*
X123447220Y-110301138D01*
X123441593Y-110304130D01*
X123434698Y-110308159D01*
X123429351Y-110311579D01*
X123421180Y-110315294D01*
X123414380Y-110321153D01*
X123414379Y-110321154D01*
X123387894Y-110343976D01*
X123379970Y-110350267D01*
X123369964Y-110357577D01*
X123359917Y-110367624D01*
X123353070Y-110373982D01*
X123317996Y-110404204D01*
X123313112Y-110411739D01*
X123307213Y-110418501D01*
X123307133Y-110418431D01*
X123298750Y-110428791D01*
X121468186Y-112259356D01*
X119649947Y-114077595D01*
X119587635Y-114111621D01*
X119560852Y-114114500D01*
X102567373Y-114114500D01*
X102556277Y-114113261D01*
X102556229Y-114113859D01*
X102547283Y-114113139D01*
X102538527Y-114111158D01*
X102494986Y-114113859D01*
X102488554Y-114114258D01*
X102480753Y-114114500D01*
X102465855Y-114114500D01*
X102456492Y-114115841D01*
X102446442Y-114116870D01*
X102426984Y-114118077D01*
X102411542Y-114119035D01*
X102411540Y-114119035D01*
X102402584Y-114119591D01*
X102394144Y-114122638D01*
X102387897Y-114123932D01*
X102380191Y-114125853D01*
X102374057Y-114127647D01*
X102365171Y-114128919D01*
X102357000Y-114132634D01*
X102348382Y-114135154D01*
X102347461Y-114132003D01*
X102293074Y-114139741D01*
X102228537Y-114110152D01*
X102190242Y-114050369D01*
X102185828Y-114017891D01*
X102185388Y-114017913D01*
X102185194Y-114013947D01*
X102185249Y-114010000D01*
X102182313Y-113983828D01*
X102167266Y-113849672D01*
X102167265Y-113849669D01*
X102166481Y-113842676D01*
X102111108Y-113683668D01*
X102021884Y-113540879D01*
X102013723Y-113532661D01*
X101972094Y-113490740D01*
X101938287Y-113428309D01*
X101935500Y-113401956D01*
X101935500Y-111751500D01*
X101955502Y-111683379D01*
X102009158Y-111636886D01*
X102061500Y-111625500D01*
X102293218Y-111625500D01*
X102297768Y-111624830D01*
X102297771Y-111624830D01*
X102352426Y-111616784D01*
X102352427Y-111616784D01*
X102362112Y-111615358D01*
X102456804Y-111568867D01*
X102457507Y-111568522D01*
X102457509Y-111568521D01*
X102466855Y-111563932D01*
X102549293Y-111481350D01*
X102600536Y-111376518D01*
X102605343Y-111343567D01*
X102634969Y-111279047D01*
X102694774Y-111240787D01*
X102765770Y-111240933D01*
X102825417Y-111279440D01*
X102854680Y-111343405D01*
X102858130Y-111366838D01*
X102859642Y-111377112D01*
X102863958Y-111385902D01*
X102885749Y-111430285D01*
X102911068Y-111481855D01*
X102993650Y-111564293D01*
X103098482Y-111615536D01*
X103128973Y-111619984D01*
X103162256Y-111624840D01*
X103162260Y-111624840D01*
X103166782Y-111625500D01*
X104833218Y-111625500D01*
X104837768Y-111624830D01*
X104837771Y-111624830D01*
X104892426Y-111616784D01*
X104892427Y-111616784D01*
X104902112Y-111615358D01*
X104996804Y-111568867D01*
X104997507Y-111568522D01*
X104997509Y-111568521D01*
X105006855Y-111563932D01*
X105089293Y-111481350D01*
X105140536Y-111376518D01*
X105145343Y-111343567D01*
X105174969Y-111279047D01*
X105234774Y-111240787D01*
X105305770Y-111240933D01*
X105365417Y-111279440D01*
X105394680Y-111343405D01*
X105398130Y-111366838D01*
X105399642Y-111377112D01*
X105403958Y-111385902D01*
X105425749Y-111430285D01*
X105451068Y-111481855D01*
X105533650Y-111564293D01*
X105638482Y-111615536D01*
X105668973Y-111619984D01*
X105702256Y-111624840D01*
X105702260Y-111624840D01*
X105706782Y-111625500D01*
X107373218Y-111625500D01*
X107377768Y-111624830D01*
X107377771Y-111624830D01*
X107432426Y-111616784D01*
X107432427Y-111616784D01*
X107442112Y-111615358D01*
X107536804Y-111568867D01*
X107537507Y-111568522D01*
X107537509Y-111568521D01*
X107546855Y-111563932D01*
X107554212Y-111556562D01*
X107554215Y-111556560D01*
X107626671Y-111483977D01*
X107688953Y-111449897D01*
X107759773Y-111454900D01*
X107816646Y-111497397D01*
X107826364Y-111512485D01*
X107835212Y-111528646D01*
X107911715Y-111630724D01*
X107924276Y-111643285D01*
X108026351Y-111719786D01*
X108041946Y-111728324D01*
X108162394Y-111773478D01*
X108177649Y-111777105D01*
X108228514Y-111782631D01*
X108235328Y-111783000D01*
X108807885Y-111783000D01*
X108823124Y-111778525D01*
X108824329Y-111777135D01*
X108826000Y-111769452D01*
X108826000Y-111764884D01*
X109334000Y-111764884D01*
X109338475Y-111780123D01*
X109339865Y-111781328D01*
X109347548Y-111782999D01*
X109924669Y-111782999D01*
X109931490Y-111782629D01*
X109982352Y-111777105D01*
X109997604Y-111773479D01*
X110118054Y-111728324D01*
X110133649Y-111719786D01*
X110235724Y-111643285D01*
X110248285Y-111630724D01*
X110324790Y-111528644D01*
X110333589Y-111512572D01*
X110383847Y-111462426D01*
X110453238Y-111447413D01*
X110519731Y-111472299D01*
X110533123Y-111483906D01*
X110613650Y-111564293D01*
X110718482Y-111615536D01*
X110748973Y-111619984D01*
X110782256Y-111624840D01*
X110782260Y-111624840D01*
X110786782Y-111625500D01*
X112453218Y-111625500D01*
X112457768Y-111624830D01*
X112457771Y-111624830D01*
X112512426Y-111616784D01*
X112512427Y-111616784D01*
X112522112Y-111615358D01*
X112616804Y-111568867D01*
X112617507Y-111568522D01*
X112617509Y-111568521D01*
X112626855Y-111563932D01*
X112709293Y-111481350D01*
X112760536Y-111376518D01*
X112765343Y-111343567D01*
X112794969Y-111279047D01*
X112854774Y-111240787D01*
X112925770Y-111240933D01*
X112985417Y-111279440D01*
X113014680Y-111343405D01*
X113018130Y-111366838D01*
X113019642Y-111377112D01*
X113023958Y-111385902D01*
X113045749Y-111430285D01*
X113071068Y-111481855D01*
X113153650Y-111564293D01*
X113258482Y-111615536D01*
X113288973Y-111619984D01*
X113322256Y-111624840D01*
X113322260Y-111624840D01*
X113326782Y-111625500D01*
X114993218Y-111625500D01*
X114997768Y-111624830D01*
X114997771Y-111624830D01*
X115052426Y-111616784D01*
X115052427Y-111616784D01*
X115062112Y-111615358D01*
X115156804Y-111568867D01*
X115157507Y-111568522D01*
X115157509Y-111568521D01*
X115166855Y-111563932D01*
X115249293Y-111481350D01*
X115300536Y-111376518D01*
X115305343Y-111343567D01*
X115334969Y-111279047D01*
X115394774Y-111240787D01*
X115465770Y-111240933D01*
X115525417Y-111279440D01*
X115554680Y-111343405D01*
X115558130Y-111366838D01*
X115559642Y-111377112D01*
X115563958Y-111385902D01*
X115585749Y-111430285D01*
X115611068Y-111481855D01*
X115693650Y-111564293D01*
X115798482Y-111615536D01*
X115828973Y-111619984D01*
X115862256Y-111624840D01*
X115862260Y-111624840D01*
X115866782Y-111625500D01*
X117533218Y-111625500D01*
X117537768Y-111624830D01*
X117537771Y-111624830D01*
X117592426Y-111616784D01*
X117592427Y-111616784D01*
X117602112Y-111615358D01*
X117696804Y-111568867D01*
X117697507Y-111568522D01*
X117697509Y-111568521D01*
X117706855Y-111563932D01*
X117789293Y-111481350D01*
X117840536Y-111376518D01*
X117850500Y-111308218D01*
X117850500Y-107741782D01*
X117841871Y-107683162D01*
X117841784Y-107682574D01*
X117841784Y-107682573D01*
X117840358Y-107672888D01*
X117788932Y-107568145D01*
X117731544Y-107510857D01*
X117713721Y-107493065D01*
X117713720Y-107493065D01*
X117706350Y-107485707D01*
X117601518Y-107434464D01*
X117571027Y-107430016D01*
X117537744Y-107425160D01*
X117537740Y-107425160D01*
X117533218Y-107424500D01*
X115866782Y-107424500D01*
X115862232Y-107425170D01*
X115862229Y-107425170D01*
X115807574Y-107433216D01*
X115807573Y-107433216D01*
X115797888Y-107434642D01*
X115747992Y-107459140D01*
X115702493Y-107481478D01*
X115702491Y-107481479D01*
X115693145Y-107486068D01*
X115610707Y-107568650D01*
X115559464Y-107673482D01*
X115558052Y-107683161D01*
X115554657Y-107706433D01*
X115525031Y-107770953D01*
X115465226Y-107809213D01*
X115394230Y-107809067D01*
X115334583Y-107770560D01*
X115305320Y-107706595D01*
X115301784Y-107682574D01*
X115301784Y-107682573D01*
X115300358Y-107672888D01*
X115248932Y-107568145D01*
X115191544Y-107510857D01*
X115173721Y-107493065D01*
X115173720Y-107493065D01*
X115166350Y-107485707D01*
X115061518Y-107434464D01*
X115031027Y-107430016D01*
X114997744Y-107425160D01*
X114997740Y-107425160D01*
X114993218Y-107424500D01*
X114328056Y-107424500D01*
X114259935Y-107404498D01*
X114213442Y-107350842D01*
X114203338Y-107280568D01*
X114232832Y-107215988D01*
X114241164Y-107207254D01*
X114353454Y-107100322D01*
X114353455Y-107100320D01*
X114358554Y-107095465D01*
X114451731Y-106955223D01*
X114457192Y-106940848D01*
X114509019Y-106804409D01*
X114511521Y-106797823D01*
X114528081Y-106680000D01*
X114534404Y-106635010D01*
X114534404Y-106635006D01*
X114534955Y-106631088D01*
X114535249Y-106610000D01*
X114527840Y-106543947D01*
X114517266Y-106449672D01*
X114517265Y-106449669D01*
X114516481Y-106442676D01*
X114461108Y-106283668D01*
X114371884Y-106140879D01*
X114363723Y-106132661D01*
X114258205Y-106026403D01*
X114258201Y-106026400D01*
X114253242Y-106021406D01*
X114228341Y-106005603D01*
X114142433Y-105951085D01*
X114111079Y-105931187D01*
X113952462Y-105874706D01*
X113945474Y-105873873D01*
X113945471Y-105873872D01*
X113839093Y-105861187D01*
X113785273Y-105854769D01*
X113778270Y-105855505D01*
X113778269Y-105855505D01*
X113746711Y-105858822D01*
X113617821Y-105872369D01*
X113611155Y-105874638D01*
X113611152Y-105874639D01*
X113465098Y-105924360D01*
X113465095Y-105924361D01*
X113458431Y-105926630D01*
X113452436Y-105930318D01*
X113452432Y-105930320D01*
X113321021Y-106011165D01*
X113321019Y-106011167D01*
X113315022Y-106014856D01*
X113194724Y-106132661D01*
X113103515Y-106274190D01*
X113101105Y-106280810D01*
X113101104Y-106280813D01*
X113080419Y-106337645D01*
X113070811Y-106364043D01*
X113055935Y-106404913D01*
X113026629Y-106450913D01*
X112089947Y-107387595D01*
X112027635Y-107421621D01*
X112000852Y-107424500D01*
X110786782Y-107424500D01*
X110782232Y-107425170D01*
X110782229Y-107425170D01*
X110727574Y-107433216D01*
X110727573Y-107433216D01*
X110717888Y-107434642D01*
X110667992Y-107459140D01*
X110622493Y-107481478D01*
X110622491Y-107481479D01*
X110613145Y-107486068D01*
X110605788Y-107493438D01*
X110605785Y-107493440D01*
X110533329Y-107566023D01*
X110471047Y-107600103D01*
X110400227Y-107595100D01*
X110343354Y-107552603D01*
X110333636Y-107537515D01*
X110324788Y-107521354D01*
X110248285Y-107419276D01*
X110235724Y-107406715D01*
X110133649Y-107330214D01*
X110118054Y-107321676D01*
X109997606Y-107276522D01*
X109982351Y-107272895D01*
X109931486Y-107267369D01*
X109924672Y-107267000D01*
X109352115Y-107267000D01*
X109336876Y-107271475D01*
X109335671Y-107272865D01*
X109334000Y-107280548D01*
X109334000Y-111764884D01*
X108826000Y-111764884D01*
X108826000Y-107285116D01*
X108821525Y-107269877D01*
X108820135Y-107268672D01*
X108812452Y-107267001D01*
X108235331Y-107267001D01*
X108228510Y-107267371D01*
X108177648Y-107272895D01*
X108162396Y-107276521D01*
X108041946Y-107321676D01*
X108026351Y-107330214D01*
X107924276Y-107406715D01*
X107911715Y-107419276D01*
X107835210Y-107521356D01*
X107826411Y-107537428D01*
X107776153Y-107587574D01*
X107706762Y-107602587D01*
X107640269Y-107577701D01*
X107626874Y-107566091D01*
X107621373Y-107560599D01*
X107571544Y-107510857D01*
X107553721Y-107493065D01*
X107553720Y-107493065D01*
X107546350Y-107485707D01*
X107441518Y-107434464D01*
X107411027Y-107430016D01*
X107377744Y-107425160D01*
X107377740Y-107425160D01*
X107373218Y-107424500D01*
X107164593Y-107424500D01*
X107096472Y-107404498D01*
X107049979Y-107350842D01*
X107039875Y-107280568D01*
X107059645Y-107228773D01*
X107137834Y-107111090D01*
X107137838Y-107111083D01*
X107141731Y-107105223D01*
X107201521Y-106947823D01*
X107224955Y-106781088D01*
X107225249Y-106760000D01*
X107217399Y-106690016D01*
X107207266Y-106599672D01*
X107207265Y-106599669D01*
X107206481Y-106592676D01*
X107151108Y-106433668D01*
X107061884Y-106290879D01*
X107051888Y-106280813D01*
X106948205Y-106176403D01*
X106948201Y-106176400D01*
X106943242Y-106171406D01*
X106904553Y-106146853D01*
X106831231Y-106100322D01*
X106801079Y-106081187D01*
X106642462Y-106024706D01*
X106635474Y-106023873D01*
X106635471Y-106023872D01*
X106528909Y-106011165D01*
X106475273Y-106004769D01*
X106468270Y-106005505D01*
X106468269Y-106005505D01*
X106422712Y-106010293D01*
X106307821Y-106022369D01*
X106301155Y-106024638D01*
X106301152Y-106024639D01*
X106155098Y-106074360D01*
X106155095Y-106074361D01*
X106148431Y-106076630D01*
X106142436Y-106080318D01*
X106142432Y-106080320D01*
X106011021Y-106161165D01*
X106011019Y-106161167D01*
X106005022Y-106164856D01*
X105958025Y-106210879D01*
X105890933Y-106276581D01*
X105884724Y-106282661D01*
X105793515Y-106424190D01*
X105791105Y-106430810D01*
X105791104Y-106430813D01*
X105785937Y-106445010D01*
X105735927Y-106582409D01*
X105714825Y-106749455D01*
X105715512Y-106756462D01*
X105715512Y-106756465D01*
X105719567Y-106797823D01*
X105731255Y-106917025D01*
X105784402Y-107076791D01*
X105788049Y-107082813D01*
X105788050Y-107082815D01*
X105819527Y-107134789D01*
X105871624Y-107220812D01*
X105873800Y-107223065D01*
X105898955Y-107287800D01*
X105884810Y-107357373D01*
X105835297Y-107408254D01*
X105773410Y-107424500D01*
X105706782Y-107424500D01*
X105702232Y-107425170D01*
X105702229Y-107425170D01*
X105647574Y-107433216D01*
X105647573Y-107433216D01*
X105637888Y-107434642D01*
X105587992Y-107459140D01*
X105542493Y-107481478D01*
X105542491Y-107481479D01*
X105533145Y-107486068D01*
X105450707Y-107568650D01*
X105399464Y-107673482D01*
X105398052Y-107683161D01*
X105394657Y-107706433D01*
X105365031Y-107770953D01*
X105305226Y-107809213D01*
X105234230Y-107809067D01*
X105174583Y-107770560D01*
X105145320Y-107706595D01*
X105141784Y-107682574D01*
X105141784Y-107682573D01*
X105140358Y-107672888D01*
X105088932Y-107568145D01*
X105031544Y-107510857D01*
X105013721Y-107493065D01*
X105013720Y-107493065D01*
X105006350Y-107485707D01*
X104901518Y-107434464D01*
X104871027Y-107430016D01*
X104837744Y-107425160D01*
X104837740Y-107425160D01*
X104833218Y-107424500D01*
X104621563Y-107424500D01*
X104553442Y-107404498D01*
X104506949Y-107350842D01*
X104496845Y-107280568D01*
X104526339Y-107215988D01*
X104534671Y-107207254D01*
X104573454Y-107170322D01*
X104573455Y-107170320D01*
X104578554Y-107165465D01*
X104586340Y-107153747D01*
X104667836Y-107031085D01*
X104671731Y-107025223D01*
X104674960Y-107016724D01*
X104715377Y-106910322D01*
X104731521Y-106867823D01*
X104747172Y-106756465D01*
X104754404Y-106705010D01*
X104754404Y-106705006D01*
X104754955Y-106701088D01*
X104755249Y-106680000D01*
X104754066Y-106669455D01*
X104737266Y-106519672D01*
X104737265Y-106519669D01*
X104736481Y-106512676D01*
X104681108Y-106353668D01*
X104591884Y-106210879D01*
X104579357Y-106198264D01*
X104478205Y-106096403D01*
X104478201Y-106096400D01*
X104473242Y-106091406D01*
X104463881Y-106085465D01*
X104415543Y-106054789D01*
X104331079Y-106001187D01*
X104172462Y-105944706D01*
X104165474Y-105943873D01*
X104165471Y-105943872D01*
X104059093Y-105931187D01*
X104005273Y-105924769D01*
X103998270Y-105925505D01*
X103998269Y-105925505D01*
X103966711Y-105928822D01*
X103837821Y-105942369D01*
X103831155Y-105944638D01*
X103831152Y-105944639D01*
X103685098Y-105994360D01*
X103685095Y-105994361D01*
X103678431Y-105996630D01*
X103672436Y-106000318D01*
X103672432Y-106000320D01*
X103541021Y-106081165D01*
X103541019Y-106081167D01*
X103535022Y-106084856D01*
X103526024Y-106093668D01*
X103420787Y-106196724D01*
X103414724Y-106202661D01*
X103323515Y-106344190D01*
X103321105Y-106350810D01*
X103321104Y-106350813D01*
X103310600Y-106379672D01*
X103265927Y-106502409D01*
X103244825Y-106669455D01*
X103245512Y-106676462D01*
X103245512Y-106676465D01*
X103248311Y-106705010D01*
X103261255Y-106837025D01*
X103314402Y-106996791D01*
X103318049Y-107002813D01*
X103318050Y-107002815D01*
X103387119Y-107116861D01*
X103401624Y-107140812D01*
X103406513Y-107145875D01*
X103406514Y-107145876D01*
X103469378Y-107210973D01*
X103502310Y-107273869D01*
X103496010Y-107344586D01*
X103452478Y-107400670D01*
X103378741Y-107424500D01*
X103166782Y-107424500D01*
X103162232Y-107425170D01*
X103162229Y-107425170D01*
X103107574Y-107433216D01*
X103107573Y-107433216D01*
X103097888Y-107434642D01*
X103047992Y-107459140D01*
X103002493Y-107481478D01*
X103002491Y-107481479D01*
X102993145Y-107486068D01*
X102910707Y-107568650D01*
X102859464Y-107673482D01*
X102858052Y-107683161D01*
X102854657Y-107706433D01*
X102825031Y-107770953D01*
X102765226Y-107809213D01*
X102694230Y-107809067D01*
X102634583Y-107770560D01*
X102605320Y-107706595D01*
X102601784Y-107682574D01*
X102601784Y-107682573D01*
X102600358Y-107672888D01*
X102548932Y-107568145D01*
X102491544Y-107510857D01*
X102473721Y-107493065D01*
X102473720Y-107493065D01*
X102466350Y-107485707D01*
X102361518Y-107434464D01*
X102331027Y-107430016D01*
X102297744Y-107425160D01*
X102297740Y-107425160D01*
X102293218Y-107424500D01*
X100626782Y-107424500D01*
X100622232Y-107425170D01*
X100622229Y-107425170D01*
X100567574Y-107433216D01*
X100567573Y-107433216D01*
X100557888Y-107434642D01*
X100507992Y-107459140D01*
X100462493Y-107481478D01*
X100462491Y-107481479D01*
X100453145Y-107486068D01*
X100370707Y-107568650D01*
X100319464Y-107673482D01*
X100318052Y-107683161D01*
X100314657Y-107706433D01*
X100285031Y-107770953D01*
X100225226Y-107809213D01*
X100154230Y-107809067D01*
X100094583Y-107770560D01*
X100065320Y-107706595D01*
X100061784Y-107682574D01*
X100061784Y-107682573D01*
X100060358Y-107672888D01*
X100008932Y-107568145D01*
X99951544Y-107510857D01*
X99933721Y-107493065D01*
X99933720Y-107493065D01*
X99926350Y-107485707D01*
X99821518Y-107434464D01*
X99791027Y-107430016D01*
X99757744Y-107425160D01*
X99757740Y-107425160D01*
X99753218Y-107424500D01*
X98086782Y-107424500D01*
X98082232Y-107425170D01*
X98082229Y-107425170D01*
X98027574Y-107433216D01*
X98027573Y-107433216D01*
X98017888Y-107434642D01*
X97967992Y-107459140D01*
X97922493Y-107481478D01*
X97922491Y-107481479D01*
X97913145Y-107486068D01*
X97830707Y-107568650D01*
X97779464Y-107673482D01*
X97778052Y-107683161D01*
X97774657Y-107706433D01*
X97745031Y-107770953D01*
X97685226Y-107809213D01*
X97614230Y-107809067D01*
X97554583Y-107770560D01*
X97525320Y-107706595D01*
X97521784Y-107682574D01*
X97521784Y-107682573D01*
X97520358Y-107672888D01*
X97468932Y-107568145D01*
X97411544Y-107510857D01*
X97393721Y-107493065D01*
X97393720Y-107493065D01*
X97386350Y-107485707D01*
X97281518Y-107434464D01*
X97251027Y-107430016D01*
X97217744Y-107425160D01*
X97217740Y-107425160D01*
X97213218Y-107424500D01*
X95546782Y-107424500D01*
X95542232Y-107425170D01*
X95542229Y-107425170D01*
X95487574Y-107433216D01*
X95487573Y-107433216D01*
X95477888Y-107434642D01*
X95427992Y-107459140D01*
X95382493Y-107481478D01*
X95382491Y-107481479D01*
X95373145Y-107486068D01*
X95290707Y-107568650D01*
X95239464Y-107673482D01*
X95238052Y-107683161D01*
X95234657Y-107706433D01*
X95205031Y-107770953D01*
X95145226Y-107809213D01*
X95074230Y-107809067D01*
X95014583Y-107770560D01*
X94985320Y-107706595D01*
X94981784Y-107682574D01*
X94981784Y-107682573D01*
X94980358Y-107672888D01*
X94928932Y-107568145D01*
X94871544Y-107510857D01*
X94853721Y-107493065D01*
X94853720Y-107493065D01*
X94846350Y-107485707D01*
X94741518Y-107434464D01*
X94711027Y-107430016D01*
X94677744Y-107425160D01*
X94677740Y-107425160D01*
X94673218Y-107424500D01*
X94119148Y-107424500D01*
X94051027Y-107404498D01*
X94030053Y-107387595D01*
X93310578Y-106668120D01*
X93276552Y-106605808D01*
X93275178Y-106569045D01*
X93274100Y-106568962D01*
X93274404Y-106565007D01*
X93274955Y-106561088D01*
X93275249Y-106540000D01*
X93265117Y-106449672D01*
X93257266Y-106379672D01*
X93257265Y-106379669D01*
X93256481Y-106372676D01*
X93201108Y-106213668D01*
X93123698Y-106089785D01*
X93115617Y-106076853D01*
X93111884Y-106070879D01*
X93101887Y-106060812D01*
X92998205Y-105956403D01*
X92998201Y-105956400D01*
X92993242Y-105951406D01*
X92984535Y-105945880D01*
X92876105Y-105877069D01*
X92851079Y-105861187D01*
X92692462Y-105804706D01*
X92685474Y-105803873D01*
X92685471Y-105803872D01*
X92592300Y-105792762D01*
X92525273Y-105784769D01*
X92518270Y-105785505D01*
X92518269Y-105785505D01*
X92496216Y-105787823D01*
X92357821Y-105802369D01*
X92351155Y-105804638D01*
X92351152Y-105804639D01*
X92205098Y-105854360D01*
X92205095Y-105854361D01*
X92198431Y-105856630D01*
X92192436Y-105860318D01*
X92192432Y-105860320D01*
X92061021Y-105941165D01*
X92061019Y-105941167D01*
X92055022Y-105944856D01*
X92043231Y-105956403D01*
X91942763Y-106054789D01*
X91934724Y-106062661D01*
X91843515Y-106204190D01*
X91841105Y-106210810D01*
X91841104Y-106210813D01*
X91819465Y-106270266D01*
X91785927Y-106362409D01*
X91764825Y-106529455D01*
X91765512Y-106536462D01*
X91765512Y-106536465D01*
X91771024Y-106592676D01*
X91781255Y-106697025D01*
X91834402Y-106856791D01*
X91838049Y-106862813D01*
X91838050Y-106862815D01*
X91897565Y-106961085D01*
X91921624Y-107000812D01*
X91926513Y-107005875D01*
X91926514Y-107005876D01*
X91950858Y-107031085D01*
X92038586Y-107121929D01*
X92044483Y-107125788D01*
X92147297Y-107193068D01*
X92193346Y-107247105D01*
X92202869Y-107317460D01*
X92172844Y-107381796D01*
X92112803Y-107419685D01*
X92078304Y-107424500D01*
X90466782Y-107424500D01*
X90462232Y-107425170D01*
X90462229Y-107425170D01*
X90407574Y-107433216D01*
X90407573Y-107433216D01*
X90397888Y-107434642D01*
X90347992Y-107459140D01*
X90302493Y-107481478D01*
X90302491Y-107481479D01*
X90293145Y-107486068D01*
X90210707Y-107568650D01*
X90159464Y-107673482D01*
X90158052Y-107683161D01*
X90154657Y-107706433D01*
X90125031Y-107770953D01*
X90065226Y-107809213D01*
X89994230Y-107809067D01*
X89934583Y-107770560D01*
X89905320Y-107706595D01*
X89901784Y-107682574D01*
X89901784Y-107682573D01*
X89900358Y-107672888D01*
X89848932Y-107568145D01*
X89791544Y-107510857D01*
X89773721Y-107493065D01*
X89773720Y-107493065D01*
X89766350Y-107485707D01*
X89661518Y-107434464D01*
X89631027Y-107430016D01*
X89597744Y-107425160D01*
X89597740Y-107425160D01*
X89593218Y-107424500D01*
X87926782Y-107424500D01*
X87922232Y-107425170D01*
X87922229Y-107425170D01*
X87867574Y-107433216D01*
X87867573Y-107433216D01*
X87857888Y-107434642D01*
X87807992Y-107459140D01*
X87762493Y-107481478D01*
X87762491Y-107481479D01*
X87753145Y-107486068D01*
X87670707Y-107568650D01*
X87619464Y-107673482D01*
X87618052Y-107683161D01*
X87614657Y-107706433D01*
X87585031Y-107770953D01*
X87525226Y-107809213D01*
X87454230Y-107809067D01*
X87394583Y-107770560D01*
X87365320Y-107706595D01*
X87361784Y-107682574D01*
X87361784Y-107682573D01*
X87360358Y-107672888D01*
X87308932Y-107568145D01*
X87251544Y-107510857D01*
X87233721Y-107493065D01*
X87233720Y-107493065D01*
X87226350Y-107485707D01*
X87121518Y-107434464D01*
X87091027Y-107430016D01*
X87057744Y-107425160D01*
X87057740Y-107425160D01*
X87053218Y-107424500D01*
X85386782Y-107424500D01*
X85382232Y-107425170D01*
X85382229Y-107425170D01*
X85327574Y-107433216D01*
X85327573Y-107433216D01*
X85317888Y-107434642D01*
X85267992Y-107459140D01*
X85222493Y-107481478D01*
X85222491Y-107481479D01*
X85213145Y-107486068D01*
X85130707Y-107568650D01*
X85079464Y-107673482D01*
X85078052Y-107683161D01*
X85074657Y-107706433D01*
X85045031Y-107770953D01*
X84985226Y-107809213D01*
X84914230Y-107809067D01*
X84854583Y-107770560D01*
X84825320Y-107706595D01*
X84821784Y-107682574D01*
X84821784Y-107682573D01*
X84820358Y-107672888D01*
X84768932Y-107568145D01*
X84711544Y-107510857D01*
X84693721Y-107493065D01*
X84693720Y-107493065D01*
X84686350Y-107485707D01*
X84581518Y-107434464D01*
X84551027Y-107430016D01*
X84517744Y-107425160D01*
X84517740Y-107425160D01*
X84513218Y-107424500D01*
X82846782Y-107424500D01*
X82842232Y-107425170D01*
X82842229Y-107425170D01*
X82787574Y-107433216D01*
X82787573Y-107433216D01*
X82777888Y-107434642D01*
X82727992Y-107459140D01*
X82682493Y-107481478D01*
X82682491Y-107481479D01*
X82673145Y-107486068D01*
X82590707Y-107568650D01*
X82539464Y-107673482D01*
X82538052Y-107683161D01*
X82534657Y-107706433D01*
X82505031Y-107770953D01*
X82445226Y-107809213D01*
X82374230Y-107809067D01*
X82314583Y-107770560D01*
X82285320Y-107706595D01*
X82281784Y-107682574D01*
X82281784Y-107682573D01*
X82280358Y-107672888D01*
X82228932Y-107568145D01*
X82171544Y-107510857D01*
X82153721Y-107493065D01*
X82153720Y-107493065D01*
X82146350Y-107485707D01*
X82041518Y-107434464D01*
X82011027Y-107430016D01*
X81977744Y-107425160D01*
X81977740Y-107425160D01*
X81973218Y-107424500D01*
X80306782Y-107424500D01*
X80302232Y-107425170D01*
X80302229Y-107425170D01*
X80247574Y-107433216D01*
X80247573Y-107433216D01*
X80237888Y-107434642D01*
X80187992Y-107459140D01*
X80142493Y-107481478D01*
X80142491Y-107481479D01*
X80133145Y-107486068D01*
X80050707Y-107568650D01*
X79999464Y-107673482D01*
X79989500Y-107741782D01*
X79989500Y-111130502D01*
X79969498Y-111198623D01*
X79915842Y-111245116D01*
X79845568Y-111255220D01*
X79780988Y-111225726D01*
X79772330Y-111217474D01*
X79765547Y-111210363D01*
X79694485Y-111135871D01*
X79619136Y-111056885D01*
X79619134Y-111056883D01*
X79616064Y-111053665D01*
X79600832Y-111041657D01*
X79402639Y-110885414D01*
X79402637Y-110885413D01*
X79399144Y-110882659D01*
X79286609Y-110817294D01*
X79164147Y-110746161D01*
X79164141Y-110746158D01*
X79160293Y-110743923D01*
X78904277Y-110640226D01*
X78899964Y-110639155D01*
X78899959Y-110639153D01*
X78640525Y-110574709D01*
X78640520Y-110574708D01*
X78636204Y-110573636D01*
X78631776Y-110573182D01*
X78631774Y-110573182D01*
X78551573Y-110564965D01*
X78400630Y-110549500D01*
X78229638Y-110549500D01*
X78024470Y-110564027D01*
X78020115Y-110564965D01*
X78020112Y-110564965D01*
X77758785Y-110621227D01*
X77758783Y-110621227D01*
X77754438Y-110622163D01*
X77495291Y-110717767D01*
X77491373Y-110719881D01*
X77442668Y-110746161D01*
X77252200Y-110848932D01*
X77030016Y-111013040D01*
X77026837Y-111016169D01*
X77026834Y-111016172D01*
X76945723Y-111096019D01*
X76833171Y-111206817D01*
X76665594Y-111426396D01*
X76663416Y-111430285D01*
X76539505Y-111651544D01*
X76530627Y-111667396D01*
X76529023Y-111671541D01*
X76529022Y-111671544D01*
X76485903Y-111783000D01*
X76430964Y-111925009D01*
X76368593Y-112194095D01*
X76344759Y-112469285D01*
X76345003Y-112473720D01*
X76345003Y-112473724D01*
X76348384Y-112535147D01*
X76359938Y-112745087D01*
X76413825Y-113015999D01*
X76505347Y-113276616D01*
X76632678Y-113521737D01*
X76635261Y-113525352D01*
X76635265Y-113525358D01*
X76746355Y-113680813D01*
X76793275Y-113746471D01*
X76835707Y-113790951D01*
X76938388Y-113898588D01*
X76983936Y-113946335D01*
X76987431Y-113949091D01*
X76987433Y-113949092D01*
X77195681Y-114113261D01*
X77200856Y-114117341D01*
X77284355Y-114165841D01*
X77435853Y-114253839D01*
X77435859Y-114253842D01*
X77439707Y-114256077D01*
X77566736Y-114307529D01*
X77627639Y-114332197D01*
X77695723Y-114359774D01*
X77700036Y-114360845D01*
X77700041Y-114360847D01*
X77959475Y-114425291D01*
X77959480Y-114425292D01*
X77963796Y-114426364D01*
X77968224Y-114426818D01*
X77968226Y-114426818D01*
X78043339Y-114434514D01*
X78199370Y-114450500D01*
X78370362Y-114450500D01*
X78575530Y-114435973D01*
X78579885Y-114435035D01*
X78579888Y-114435035D01*
X78841215Y-114378773D01*
X78841217Y-114378773D01*
X78845562Y-114377837D01*
X79104709Y-114282233D01*
X79153185Y-114256077D01*
X79343884Y-114153181D01*
X79347800Y-114151068D01*
X79569984Y-113986960D01*
X79587511Y-113969707D01*
X79689566Y-113869242D01*
X79766829Y-113793183D01*
X79934406Y-113573604D01*
X79996509Y-113462712D01*
X80067197Y-113336490D01*
X80067198Y-113336487D01*
X80069373Y-113332604D01*
X80169036Y-113074991D01*
X80231407Y-112805905D01*
X80255241Y-112530715D01*
X80254370Y-112514881D01*
X80240307Y-112259356D01*
X80240306Y-112259349D01*
X80240062Y-112254913D01*
X80186175Y-111984001D01*
X80115971Y-111784089D01*
X80112273Y-111713188D01*
X80147493Y-111651544D01*
X80210449Y-111618726D01*
X80253042Y-111617660D01*
X80306782Y-111625500D01*
X81973218Y-111625500D01*
X81977768Y-111624830D01*
X81977771Y-111624830D01*
X82032426Y-111616784D01*
X82032427Y-111616784D01*
X82042112Y-111615358D01*
X82136804Y-111568867D01*
X82137507Y-111568522D01*
X82137509Y-111568521D01*
X82146855Y-111563932D01*
X82229293Y-111481350D01*
X82280536Y-111376518D01*
X82285343Y-111343567D01*
X82314969Y-111279047D01*
X82374774Y-111240787D01*
X82445770Y-111240933D01*
X82505417Y-111279440D01*
X82534680Y-111343405D01*
X82538130Y-111366838D01*
X82539642Y-111377112D01*
X82543958Y-111385902D01*
X82565749Y-111430285D01*
X82591068Y-111481855D01*
X82673650Y-111564293D01*
X82778482Y-111615536D01*
X82808973Y-111619984D01*
X82842256Y-111624840D01*
X82842260Y-111624840D01*
X82846782Y-111625500D01*
X84513218Y-111625500D01*
X84517768Y-111624830D01*
X84517771Y-111624830D01*
X84572426Y-111616784D01*
X84572427Y-111616784D01*
X84582112Y-111615358D01*
X84676804Y-111568867D01*
X84677507Y-111568522D01*
X84677509Y-111568521D01*
X84686855Y-111563932D01*
X84769293Y-111481350D01*
X84820536Y-111376518D01*
X84825343Y-111343567D01*
X84854969Y-111279047D01*
X84914774Y-111240787D01*
X84985770Y-111240933D01*
X85045417Y-111279440D01*
X85074680Y-111343405D01*
X85078130Y-111366838D01*
X85079642Y-111377112D01*
X85083958Y-111385902D01*
X85105749Y-111430285D01*
X85131068Y-111481855D01*
X85213650Y-111564293D01*
X85318482Y-111615536D01*
X85348973Y-111619984D01*
X85382256Y-111624840D01*
X85382260Y-111624840D01*
X85386782Y-111625500D01*
X87053218Y-111625500D01*
X87057768Y-111624830D01*
X87057771Y-111624830D01*
X87112426Y-111616784D01*
X87112427Y-111616784D01*
X87122112Y-111615358D01*
X87216804Y-111568867D01*
X87217507Y-111568522D01*
X87217509Y-111568521D01*
X87226855Y-111563932D01*
X87309293Y-111481350D01*
X87360536Y-111376518D01*
X87365343Y-111343567D01*
X87394969Y-111279047D01*
X87454774Y-111240787D01*
X87525770Y-111240933D01*
X87585417Y-111279440D01*
X87614680Y-111343405D01*
X87618130Y-111366838D01*
X87619642Y-111377112D01*
X87623958Y-111385902D01*
X87645749Y-111430285D01*
X87671068Y-111481855D01*
X87753650Y-111564293D01*
X87858482Y-111615536D01*
X87888973Y-111619984D01*
X87922256Y-111624840D01*
X87922260Y-111624840D01*
X87926782Y-111625500D01*
X89593218Y-111625500D01*
X89597768Y-111624830D01*
X89597771Y-111624830D01*
X89652426Y-111616784D01*
X89652427Y-111616784D01*
X89662112Y-111615358D01*
X89756804Y-111568867D01*
X89757507Y-111568522D01*
X89757509Y-111568521D01*
X89766855Y-111563932D01*
X89849293Y-111481350D01*
X89900536Y-111376518D01*
X89905343Y-111343567D01*
X89934969Y-111279047D01*
X89994774Y-111240787D01*
X90065770Y-111240933D01*
X90125417Y-111279440D01*
X90154680Y-111343405D01*
X90158130Y-111366838D01*
X90159642Y-111377112D01*
X90163958Y-111385902D01*
X90185749Y-111430285D01*
X90211068Y-111481855D01*
X90293650Y-111564293D01*
X90398482Y-111615536D01*
X90428973Y-111619984D01*
X90462256Y-111624840D01*
X90462260Y-111624840D01*
X90466782Y-111625500D01*
X92133218Y-111625500D01*
X92137768Y-111624830D01*
X92137771Y-111624830D01*
X92192426Y-111616784D01*
X92192427Y-111616784D01*
X92202112Y-111615358D01*
X92296804Y-111568867D01*
X92297507Y-111568522D01*
X92297509Y-111568521D01*
X92306855Y-111563932D01*
X92389293Y-111481350D01*
X92440536Y-111376518D01*
X92445343Y-111343567D01*
X92474969Y-111279047D01*
X92534774Y-111240787D01*
X92605770Y-111240933D01*
X92665417Y-111279440D01*
X92694680Y-111343405D01*
X92698130Y-111366838D01*
X92699642Y-111377112D01*
X92703958Y-111385902D01*
X92725749Y-111430285D01*
X92751068Y-111481855D01*
X92833650Y-111564293D01*
X92938482Y-111615536D01*
X92968973Y-111619984D01*
X93002256Y-111624840D01*
X93002260Y-111624840D01*
X93006782Y-111625500D01*
X94673218Y-111625500D01*
X94677768Y-111624830D01*
X94677771Y-111624830D01*
X94732426Y-111616784D01*
X94732427Y-111616784D01*
X94742112Y-111615358D01*
X94836804Y-111568867D01*
X94837507Y-111568522D01*
X94837509Y-111568521D01*
X94846855Y-111563932D01*
X94929293Y-111481350D01*
X94980536Y-111376518D01*
X94985343Y-111343567D01*
X95014969Y-111279047D01*
X95074774Y-111240787D01*
X95145770Y-111240933D01*
X95205417Y-111279440D01*
X95234680Y-111343405D01*
X95238130Y-111366838D01*
X95239642Y-111377112D01*
X95243958Y-111385902D01*
X95265749Y-111430285D01*
X95291068Y-111481855D01*
X95373650Y-111564293D01*
X95478482Y-111615536D01*
X95508973Y-111619984D01*
X95542256Y-111624840D01*
X95542260Y-111624840D01*
X95546782Y-111625500D01*
X95778500Y-111625500D01*
X95846621Y-111645502D01*
X95893114Y-111699158D01*
X95904500Y-111751500D01*
X95904500Y-113782627D01*
X95903261Y-113793723D01*
X95903859Y-113793771D01*
X95903139Y-113802717D01*
X95901158Y-113811473D01*
X95901714Y-113820433D01*
X95904258Y-113861440D01*
X95904500Y-113869242D01*
X95904500Y-113884145D01*
X95905841Y-113893508D01*
X95906871Y-113903566D01*
X95909592Y-113947417D01*
X95912641Y-113955862D01*
X95913932Y-113962098D01*
X95915865Y-113969849D01*
X95917646Y-113975938D01*
X95918919Y-113984829D01*
X95922636Y-113993004D01*
X95937108Y-114024836D01*
X95940920Y-114034201D01*
X95952791Y-114067083D01*
X95952793Y-114067086D01*
X95955841Y-114075530D01*
X95961136Y-114082777D01*
X95964129Y-114088407D01*
X95968132Y-114095257D01*
X95971577Y-114100644D01*
X95975294Y-114108820D01*
X95981154Y-114115620D01*
X95981154Y-114115621D01*
X96003981Y-114142113D01*
X96010266Y-114150029D01*
X96014702Y-114156101D01*
X96014708Y-114156108D01*
X96017577Y-114160035D01*
X96027618Y-114170076D01*
X96033976Y-114176923D01*
X96064204Y-114212004D01*
X96071739Y-114216888D01*
X96078501Y-114222787D01*
X96078431Y-114222867D01*
X96088794Y-114231252D01*
X97291946Y-115434405D01*
X97325972Y-115496717D01*
X97320907Y-115567533D01*
X97278360Y-115624368D01*
X97211840Y-115649179D01*
X97202851Y-115649500D01*
X78341003Y-115649500D01*
X78319487Y-115647649D01*
X78305185Y-115645169D01*
X78295361Y-115646578D01*
X78291375Y-115646520D01*
X78271170Y-115647293D01*
X78231503Y-115644671D01*
X77983395Y-115628273D01*
X77970541Y-115626757D01*
X77777881Y-115593930D01*
X77659075Y-115573687D01*
X77646453Y-115570862D01*
X77342086Y-115486121D01*
X77329817Y-115482016D01*
X77035737Y-115366492D01*
X77023949Y-115361147D01*
X76743278Y-115216066D01*
X76732100Y-115209539D01*
X76728618Y-115207258D01*
X76467801Y-115036434D01*
X76457354Y-115028797D01*
X76439350Y-115014159D01*
X76212196Y-114829481D01*
X76202587Y-114820810D01*
X75979190Y-114597413D01*
X75970519Y-114587803D01*
X75810587Y-114391088D01*
X75771201Y-114342644D01*
X75763565Y-114332197D01*
X75748281Y-114308861D01*
X75590460Y-114067898D01*
X75583934Y-114056722D01*
X75547874Y-113986960D01*
X75471599Y-113839400D01*
X75438853Y-113776051D01*
X75433508Y-113764263D01*
X75317985Y-113470186D01*
X75313878Y-113457911D01*
X75313484Y-113456497D01*
X75229138Y-113153547D01*
X75226312Y-113140921D01*
X75215079Y-113074991D01*
X75204284Y-113011636D01*
X75173243Y-112829459D01*
X75171727Y-112816605D01*
X75152707Y-112528830D01*
X75153480Y-112508625D01*
X75153422Y-112504639D01*
X75154831Y-112494815D01*
X75152351Y-112480513D01*
X75150500Y-112458997D01*
X75150500Y-87540865D01*
X75152340Y-87519410D01*
X75153145Y-87514751D01*
X75154834Y-87504978D01*
X75153420Y-87495162D01*
X75153476Y-87491171D01*
X75152692Y-87470958D01*
X75152802Y-87469285D01*
X76344759Y-87469285D01*
X76345003Y-87473720D01*
X76345003Y-87473724D01*
X76357650Y-87703508D01*
X76359938Y-87745087D01*
X76381052Y-87851234D01*
X76411417Y-88003891D01*
X76413825Y-88015999D01*
X76505347Y-88276616D01*
X76632678Y-88521737D01*
X76635261Y-88525352D01*
X76635265Y-88525358D01*
X76781060Y-88729378D01*
X76793275Y-88746471D01*
X76879245Y-88836591D01*
X76964034Y-88925472D01*
X76983936Y-88946335D01*
X76987431Y-88949091D01*
X76987433Y-88949092D01*
X77179921Y-89100837D01*
X77200856Y-89117341D01*
X77277866Y-89162072D01*
X77435853Y-89253839D01*
X77435859Y-89253842D01*
X77439707Y-89256077D01*
X77589272Y-89316657D01*
X77670901Y-89349720D01*
X77695723Y-89359774D01*
X77700036Y-89360845D01*
X77700041Y-89360847D01*
X77959475Y-89425291D01*
X77959480Y-89425292D01*
X77963796Y-89426364D01*
X77968224Y-89426818D01*
X77968226Y-89426818D01*
X78043339Y-89434514D01*
X78199370Y-89450500D01*
X78370362Y-89450500D01*
X78575530Y-89435973D01*
X78579885Y-89435035D01*
X78579888Y-89435035D01*
X78841215Y-89378773D01*
X78841217Y-89378773D01*
X78845562Y-89377837D01*
X79082696Y-89290354D01*
X79100532Y-89283774D01*
X79104709Y-89282233D01*
X79153185Y-89256077D01*
X79343884Y-89153181D01*
X79347800Y-89151068D01*
X79569984Y-88986960D01*
X79580178Y-88976925D01*
X79763650Y-88796313D01*
X79763654Y-88796309D01*
X79766829Y-88793183D01*
X79769129Y-88790169D01*
X79829042Y-88752389D01*
X79900036Y-88753000D01*
X79959430Y-88791895D01*
X79988367Y-88856727D01*
X79989500Y-88873586D01*
X79989500Y-92258218D01*
X79990170Y-92262768D01*
X79990170Y-92262771D01*
X79998130Y-92316839D01*
X79999642Y-92327112D01*
X80012743Y-92353796D01*
X80046164Y-92421866D01*
X80051068Y-92431855D01*
X80066637Y-92447397D01*
X80116170Y-92496843D01*
X80133650Y-92514293D01*
X80238482Y-92565536D01*
X80268973Y-92569984D01*
X80302256Y-92574840D01*
X80302260Y-92574840D01*
X80306782Y-92575500D01*
X81973218Y-92575500D01*
X81977768Y-92574830D01*
X81977771Y-92574830D01*
X82032426Y-92566784D01*
X82032427Y-92566784D01*
X82042112Y-92565358D01*
X82116114Y-92529025D01*
X82137507Y-92518522D01*
X82137509Y-92518521D01*
X82146855Y-92513932D01*
X82229293Y-92431350D01*
X82234561Y-92420574D01*
X82276240Y-92335306D01*
X82280536Y-92326518D01*
X82285343Y-92293567D01*
X82314969Y-92229047D01*
X82374774Y-92190787D01*
X82445770Y-92190933D01*
X82505417Y-92229440D01*
X82534680Y-92293405D01*
X82538130Y-92316838D01*
X82539642Y-92327112D01*
X82552743Y-92353796D01*
X82586164Y-92421866D01*
X82591068Y-92431855D01*
X82606637Y-92447397D01*
X82656170Y-92496843D01*
X82673650Y-92514293D01*
X82778482Y-92565536D01*
X82808973Y-92569984D01*
X82842256Y-92574840D01*
X82842260Y-92574840D01*
X82846782Y-92575500D01*
X83078500Y-92575500D01*
X83146621Y-92595502D01*
X83193114Y-92649158D01*
X83204500Y-92701500D01*
X83204500Y-97883511D01*
X83184412Y-97951765D01*
X83163515Y-97984190D01*
X83161105Y-97990810D01*
X83161104Y-97990813D01*
X83148970Y-98024151D01*
X83105927Y-98142409D01*
X83084825Y-98309455D01*
X83085512Y-98316462D01*
X83085512Y-98316465D01*
X83088252Y-98344409D01*
X83101255Y-98477025D01*
X83154402Y-98636791D01*
X83158049Y-98642813D01*
X83158050Y-98642815D01*
X83227119Y-98756861D01*
X83241624Y-98780812D01*
X83246513Y-98785875D01*
X83246514Y-98785876D01*
X83304006Y-98845410D01*
X83358586Y-98901929D01*
X83364483Y-98905788D01*
X83493577Y-98990266D01*
X83493581Y-98990268D01*
X83499475Y-98994125D01*
X83657289Y-99052815D01*
X83664270Y-99053746D01*
X83664272Y-99053747D01*
X83709812Y-99059823D01*
X83824183Y-99075083D01*
X83831194Y-99074445D01*
X83831198Y-99074445D01*
X83984843Y-99060462D01*
X83991864Y-99059823D01*
X83998566Y-99057645D01*
X83998568Y-99057645D01*
X84145298Y-99009970D01*
X84145301Y-99009969D01*
X84151997Y-99007793D01*
X84296623Y-98921578D01*
X84301717Y-98916727D01*
X84301721Y-98916724D01*
X84413454Y-98810322D01*
X84413455Y-98810320D01*
X84418554Y-98805465D01*
X84434934Y-98780812D01*
X84500850Y-98681600D01*
X84511731Y-98665223D01*
X84571521Y-98507823D01*
X84590272Y-98374409D01*
X84594404Y-98345010D01*
X84594404Y-98345006D01*
X84594955Y-98341088D01*
X84595249Y-98320000D01*
X84594809Y-98316077D01*
X84577266Y-98159672D01*
X84577265Y-98159669D01*
X84576481Y-98152676D01*
X84521108Y-97993668D01*
X84431884Y-97850879D01*
X84411470Y-97830322D01*
X84318205Y-97736403D01*
X84318201Y-97736400D01*
X84313242Y-97731406D01*
X84307294Y-97727631D01*
X84213986Y-97668416D01*
X84167187Y-97615027D01*
X84155500Y-97562031D01*
X84155500Y-92701500D01*
X84175502Y-92633379D01*
X84229158Y-92586886D01*
X84281500Y-92575500D01*
X84513218Y-92575500D01*
X84517768Y-92574830D01*
X84517771Y-92574830D01*
X84572426Y-92566784D01*
X84572427Y-92566784D01*
X84582112Y-92565358D01*
X84656114Y-92529025D01*
X84677507Y-92518522D01*
X84677509Y-92518521D01*
X84686855Y-92513932D01*
X84769293Y-92431350D01*
X84774561Y-92420574D01*
X84816240Y-92335306D01*
X84820536Y-92326518D01*
X84825343Y-92293567D01*
X84854969Y-92229047D01*
X84914774Y-92190787D01*
X84985770Y-92190933D01*
X85045417Y-92229440D01*
X85074680Y-92293405D01*
X85078130Y-92316838D01*
X85079642Y-92327112D01*
X85092743Y-92353796D01*
X85126164Y-92421866D01*
X85131068Y-92431855D01*
X85146637Y-92447397D01*
X85196170Y-92496843D01*
X85213650Y-92514293D01*
X85318482Y-92565536D01*
X85348973Y-92569984D01*
X85382256Y-92574840D01*
X85382260Y-92574840D01*
X85386782Y-92575500D01*
X86898500Y-92575500D01*
X86966621Y-92595502D01*
X87013114Y-92649158D01*
X87024500Y-92701500D01*
X87024500Y-104730348D01*
X87004498Y-104798469D01*
X86950842Y-104844962D01*
X86911671Y-104855658D01*
X86903402Y-104856527D01*
X86847821Y-104862369D01*
X86841155Y-104864638D01*
X86841152Y-104864639D01*
X86695098Y-104914360D01*
X86695095Y-104914361D01*
X86688431Y-104916630D01*
X86682436Y-104920318D01*
X86682432Y-104920320D01*
X86551021Y-105001165D01*
X86551019Y-105001167D01*
X86545022Y-105004856D01*
X86424724Y-105122661D01*
X86333515Y-105264190D01*
X86331105Y-105270810D01*
X86331104Y-105270813D01*
X86320646Y-105299546D01*
X86275927Y-105422409D01*
X86254825Y-105589455D01*
X86255512Y-105596462D01*
X86255512Y-105596465D01*
X86263030Y-105673143D01*
X86271255Y-105757025D01*
X86324402Y-105916791D01*
X86328049Y-105922813D01*
X86328050Y-105922815D01*
X86391189Y-106027069D01*
X86411624Y-106060812D01*
X86416513Y-106065875D01*
X86416514Y-106065876D01*
X86476249Y-106127733D01*
X86528586Y-106181929D01*
X86534483Y-106185788D01*
X86663577Y-106270266D01*
X86663581Y-106270268D01*
X86669475Y-106274125D01*
X86827289Y-106332815D01*
X86834270Y-106333746D01*
X86834272Y-106333747D01*
X86879812Y-106339823D01*
X86994183Y-106355083D01*
X87001194Y-106354445D01*
X87001198Y-106354445D01*
X87154843Y-106340462D01*
X87161864Y-106339823D01*
X87168566Y-106337645D01*
X87168568Y-106337645D01*
X87315298Y-106289970D01*
X87315301Y-106289969D01*
X87321997Y-106287793D01*
X87466623Y-106201578D01*
X87471717Y-106196727D01*
X87471721Y-106196724D01*
X87583454Y-106090322D01*
X87583455Y-106090320D01*
X87588554Y-106085465D01*
X87599771Y-106068583D01*
X87677836Y-105951085D01*
X87681731Y-105945223D01*
X87741521Y-105787823D01*
X87764955Y-105621088D01*
X87765249Y-105600000D01*
X87764810Y-105596085D01*
X87764809Y-105596068D01*
X87763850Y-105587520D01*
X87776136Y-105517595D01*
X87806168Y-105479105D01*
X87811350Y-105475835D01*
X87844499Y-105438301D01*
X87849845Y-105432614D01*
X87860374Y-105422085D01*
X87866050Y-105414511D01*
X87872432Y-105406673D01*
X87895571Y-105380473D01*
X87901513Y-105373745D01*
X87905328Y-105365619D01*
X87908826Y-105360294D01*
X87912936Y-105353454D01*
X87915988Y-105347878D01*
X87921372Y-105340695D01*
X87936798Y-105299546D01*
X87940725Y-105290226D01*
X87949839Y-105270813D01*
X87959399Y-105250452D01*
X87960780Y-105241582D01*
X87962639Y-105235502D01*
X87964665Y-105227781D01*
X87966031Y-105221568D01*
X87969184Y-105213157D01*
X87972441Y-105169324D01*
X87973595Y-105159277D01*
X87974751Y-105151855D01*
X87974751Y-105151853D01*
X87975500Y-105147044D01*
X87975500Y-105132838D01*
X87975846Y-105123501D01*
X87978612Y-105086274D01*
X87979277Y-105077326D01*
X87977404Y-105068550D01*
X87976793Y-105059593D01*
X87976899Y-105059586D01*
X87975500Y-105046333D01*
X87975500Y-93652778D01*
X87995502Y-93584657D01*
X88049158Y-93538164D01*
X88119432Y-93528060D01*
X88184012Y-93557554D01*
X88192136Y-93565250D01*
X88193691Y-93566861D01*
X88193695Y-93566865D01*
X88198586Y-93571929D01*
X88204483Y-93575788D01*
X88333577Y-93660266D01*
X88333581Y-93660268D01*
X88339475Y-93664125D01*
X88497289Y-93722815D01*
X88504270Y-93723746D01*
X88504272Y-93723747D01*
X88554602Y-93730462D01*
X88664183Y-93745083D01*
X88671194Y-93744445D01*
X88671198Y-93744445D01*
X88824843Y-93730462D01*
X88831864Y-93729823D01*
X88838566Y-93727645D01*
X88838568Y-93727645D01*
X88985298Y-93679970D01*
X88985301Y-93679969D01*
X88991997Y-93677793D01*
X89136623Y-93591578D01*
X89141717Y-93586727D01*
X89141721Y-93586724D01*
X89253454Y-93480322D01*
X89253455Y-93480320D01*
X89258554Y-93475465D01*
X89269815Y-93458517D01*
X89327646Y-93371473D01*
X89351731Y-93335223D01*
X89365762Y-93298285D01*
X89408648Y-93241710D01*
X89475316Y-93217299D01*
X89544598Y-93232808D01*
X89591325Y-93277758D01*
X89641624Y-93360812D01*
X89646513Y-93365875D01*
X89646514Y-93365876D01*
X89712264Y-93433961D01*
X89758586Y-93481929D01*
X89764483Y-93485788D01*
X89893577Y-93570266D01*
X89893581Y-93570268D01*
X89899475Y-93574125D01*
X90057289Y-93632815D01*
X90064270Y-93633746D01*
X90064272Y-93633747D01*
X90109812Y-93639823D01*
X90224183Y-93655083D01*
X90231194Y-93654445D01*
X90231198Y-93654445D01*
X90384843Y-93640462D01*
X90391864Y-93639823D01*
X90398566Y-93637645D01*
X90398568Y-93637645D01*
X90545298Y-93589970D01*
X90545301Y-93589969D01*
X90551997Y-93587793D01*
X90696623Y-93501578D01*
X90701717Y-93496727D01*
X90701721Y-93496724D01*
X90818554Y-93385465D01*
X90820725Y-93387744D01*
X90856368Y-93364463D01*
X90854830Y-93361081D01*
X90894836Y-93342892D01*
X90904201Y-93339080D01*
X90937083Y-93327209D01*
X90937086Y-93327207D01*
X90945530Y-93324159D01*
X90952777Y-93318864D01*
X90958407Y-93315871D01*
X90965257Y-93311868D01*
X90970644Y-93308423D01*
X90978820Y-93304706D01*
X90985621Y-93298846D01*
X91012113Y-93276019D01*
X91020029Y-93269734D01*
X91026101Y-93265298D01*
X91026108Y-93265292D01*
X91030035Y-93262423D01*
X91040076Y-93252382D01*
X91046923Y-93246024D01*
X91075206Y-93221654D01*
X91075207Y-93221652D01*
X91082004Y-93215796D01*
X91086884Y-93208267D01*
X91092789Y-93201498D01*
X91092869Y-93201567D01*
X91101251Y-93191209D01*
X91588589Y-92703871D01*
X91597311Y-92696902D01*
X91596921Y-92696444D01*
X91603758Y-92690625D01*
X91611350Y-92685835D01*
X91644499Y-92648301D01*
X91649845Y-92642614D01*
X91660374Y-92632085D01*
X91664981Y-92625937D01*
X91665837Y-92625298D01*
X91666002Y-92625107D01*
X91666044Y-92625143D01*
X91721837Y-92583422D01*
X91765809Y-92575500D01*
X92133218Y-92575500D01*
X92137768Y-92574830D01*
X92137771Y-92574830D01*
X92192426Y-92566784D01*
X92192427Y-92566784D01*
X92202112Y-92565358D01*
X92276114Y-92529025D01*
X92297507Y-92518522D01*
X92297509Y-92518521D01*
X92306855Y-92513932D01*
X92389293Y-92431350D01*
X92394561Y-92420574D01*
X92436240Y-92335306D01*
X92440536Y-92326518D01*
X92445343Y-92293567D01*
X92474969Y-92229047D01*
X92534774Y-92190787D01*
X92605770Y-92190933D01*
X92665417Y-92229440D01*
X92694680Y-92293405D01*
X92698130Y-92316838D01*
X92699642Y-92327112D01*
X92712743Y-92353796D01*
X92746164Y-92421866D01*
X92751068Y-92431855D01*
X92766637Y-92447397D01*
X92816170Y-92496843D01*
X92833650Y-92514293D01*
X92938482Y-92565536D01*
X92968973Y-92569984D01*
X93002256Y-92574840D01*
X93002260Y-92574840D01*
X93006782Y-92575500D01*
X93381947Y-92575500D01*
X93450068Y-92595502D01*
X93476456Y-92618501D01*
X93477577Y-92620035D01*
X93487618Y-92630076D01*
X93493976Y-92636923D01*
X93524204Y-92672004D01*
X93531739Y-92676888D01*
X93538501Y-92682787D01*
X93538431Y-92682867D01*
X93548794Y-92691252D01*
X93906128Y-93048586D01*
X93913100Y-93057312D01*
X93913558Y-93056923D01*
X93919374Y-93063757D01*
X93924165Y-93071350D01*
X93930894Y-93077292D01*
X93930894Y-93077293D01*
X93961707Y-93104506D01*
X93967394Y-93109852D01*
X93977915Y-93120373D01*
X93985487Y-93126048D01*
X93993318Y-93132424D01*
X94026255Y-93161513D01*
X94034382Y-93165329D01*
X94039719Y-93168834D01*
X94046537Y-93172930D01*
X94052120Y-93175987D01*
X94059305Y-93181372D01*
X94067710Y-93184523D01*
X94067712Y-93184524D01*
X94100454Y-93196798D01*
X94109774Y-93200725D01*
X94112990Y-93202235D01*
X94149548Y-93219399D01*
X94158418Y-93220780D01*
X94164498Y-93222639D01*
X94172219Y-93224665D01*
X94178432Y-93226031D01*
X94186843Y-93229184D01*
X94213880Y-93231193D01*
X94230676Y-93232441D01*
X94240723Y-93233595D01*
X94248145Y-93234751D01*
X94248147Y-93234751D01*
X94252956Y-93235500D01*
X94267162Y-93235500D01*
X94276500Y-93235846D01*
X94322674Y-93239277D01*
X94331450Y-93237404D01*
X94340407Y-93236793D01*
X94340414Y-93236899D01*
X94353667Y-93235500D01*
X94853159Y-93235500D01*
X94921280Y-93255502D01*
X94967773Y-93309158D01*
X94971520Y-93318683D01*
X94972180Y-93320111D01*
X94974402Y-93326791D01*
X94978049Y-93332813D01*
X95055356Y-93460462D01*
X95061624Y-93470812D01*
X95066513Y-93475875D01*
X95066514Y-93475876D01*
X95114573Y-93525642D01*
X95178586Y-93591929D01*
X95184483Y-93595788D01*
X95313577Y-93680266D01*
X95313581Y-93680268D01*
X95319475Y-93684125D01*
X95477289Y-93742815D01*
X95484270Y-93743746D01*
X95484272Y-93743747D01*
X95529812Y-93749823D01*
X95644183Y-93765083D01*
X95651194Y-93764445D01*
X95651198Y-93764445D01*
X95804843Y-93750462D01*
X95811864Y-93749823D01*
X95818566Y-93747645D01*
X95818568Y-93747645D01*
X95965298Y-93699970D01*
X95965301Y-93699969D01*
X95971997Y-93697793D01*
X96116623Y-93611578D01*
X96121717Y-93606727D01*
X96121721Y-93606724D01*
X96233454Y-93500322D01*
X96233455Y-93500320D01*
X96238554Y-93495465D01*
X96244984Y-93485788D01*
X96310572Y-93387070D01*
X96331731Y-93355223D01*
X96336711Y-93342113D01*
X96381672Y-93223752D01*
X96424560Y-93167173D01*
X96491229Y-93142764D01*
X96543688Y-93150513D01*
X96560462Y-93156801D01*
X96569774Y-93160725D01*
X96572699Y-93162098D01*
X96609548Y-93179399D01*
X96618418Y-93180780D01*
X96624498Y-93182639D01*
X96632219Y-93184665D01*
X96638432Y-93186031D01*
X96646843Y-93189184D01*
X96673880Y-93191193D01*
X96690676Y-93192441D01*
X96700723Y-93193595D01*
X96708145Y-93194751D01*
X96708147Y-93194751D01*
X96712956Y-93195500D01*
X96727162Y-93195500D01*
X96736500Y-93195846D01*
X96782674Y-93199277D01*
X96791450Y-93197404D01*
X96800407Y-93196793D01*
X96800414Y-93196899D01*
X96813667Y-93195500D01*
X96882324Y-93195500D01*
X96950445Y-93215502D01*
X96972960Y-93233973D01*
X97033687Y-93296857D01*
X97033692Y-93296861D01*
X97038586Y-93301929D01*
X97044483Y-93305788D01*
X97173577Y-93390266D01*
X97173581Y-93390268D01*
X97179475Y-93394125D01*
X97337289Y-93452815D01*
X97344270Y-93453746D01*
X97344272Y-93453747D01*
X97380024Y-93458517D01*
X97504183Y-93475083D01*
X97511194Y-93474445D01*
X97511198Y-93474445D01*
X97664843Y-93460462D01*
X97671864Y-93459823D01*
X97678566Y-93457645D01*
X97678568Y-93457645D01*
X97825298Y-93409970D01*
X97825301Y-93409969D01*
X97831997Y-93407793D01*
X97976623Y-93321578D01*
X97981717Y-93316727D01*
X97981721Y-93316724D01*
X98093454Y-93210322D01*
X98093455Y-93210320D01*
X98098554Y-93205465D01*
X98102666Y-93199277D01*
X98175880Y-93089081D01*
X98191731Y-93065223D01*
X98194960Y-93056724D01*
X98240876Y-92935846D01*
X98251521Y-92907823D01*
X98273200Y-92753575D01*
X98274404Y-92745010D01*
X98274404Y-92745006D01*
X98274955Y-92741088D01*
X98275249Y-92720000D01*
X98274750Y-92715552D01*
X98274776Y-92715405D01*
X98274615Y-92712112D01*
X98275361Y-92712076D01*
X98287030Y-92645627D01*
X98335165Y-92593439D01*
X98399964Y-92575500D01*
X98590852Y-92575500D01*
X98658973Y-92595502D01*
X98679947Y-92612405D01*
X98816127Y-92748585D01*
X98823098Y-92757310D01*
X98823556Y-92756920D01*
X98829374Y-92763756D01*
X98834165Y-92771350D01*
X98863680Y-92797417D01*
X98871699Y-92804499D01*
X98877386Y-92809845D01*
X98887915Y-92820374D01*
X98891502Y-92823062D01*
X98895485Y-92826047D01*
X98903327Y-92832432D01*
X98936255Y-92861513D01*
X98944381Y-92865328D01*
X98949706Y-92868826D01*
X98956546Y-92872936D01*
X98962122Y-92875988D01*
X98969305Y-92881372D01*
X98977713Y-92884524D01*
X99010454Y-92896798D01*
X99019774Y-92900725D01*
X99059548Y-92919399D01*
X99068418Y-92920780D01*
X99074498Y-92922639D01*
X99082219Y-92924665D01*
X99088432Y-92926031D01*
X99096843Y-92929184D01*
X99123880Y-92931193D01*
X99140676Y-92932441D01*
X99150723Y-92933595D01*
X99158145Y-92934751D01*
X99158147Y-92934751D01*
X99162956Y-92935500D01*
X99177162Y-92935500D01*
X99186500Y-92935846D01*
X99232674Y-92939277D01*
X99241450Y-92937404D01*
X99250407Y-92936793D01*
X99250414Y-92936899D01*
X99263667Y-92935500D01*
X99332324Y-92935500D01*
X99400445Y-92955502D01*
X99422960Y-92973973D01*
X99483687Y-93036857D01*
X99483692Y-93036861D01*
X99488586Y-93041929D01*
X99494483Y-93045788D01*
X99623577Y-93130266D01*
X99623581Y-93130268D01*
X99629475Y-93134125D01*
X99787289Y-93192815D01*
X99794270Y-93193746D01*
X99794272Y-93193747D01*
X99830466Y-93198576D01*
X99954183Y-93215083D01*
X99961194Y-93214445D01*
X99961198Y-93214445D01*
X100114843Y-93200462D01*
X100121864Y-93199823D01*
X100128566Y-93197645D01*
X100128568Y-93197645D01*
X100275298Y-93149970D01*
X100275301Y-93149969D01*
X100281997Y-93147793D01*
X100426623Y-93061578D01*
X100431717Y-93056727D01*
X100431721Y-93056724D01*
X100543454Y-92950322D01*
X100543455Y-92950320D01*
X100548554Y-92945465D01*
X100552666Y-92939277D01*
X100620974Y-92836465D01*
X100641731Y-92805223D01*
X100652341Y-92777293D01*
X100661350Y-92753575D01*
X100698128Y-92656756D01*
X100741015Y-92600179D01*
X100807683Y-92575769D01*
X100815915Y-92575500D01*
X100858500Y-92575500D01*
X100926621Y-92595502D01*
X100973114Y-92649158D01*
X100984500Y-92701500D01*
X100984500Y-95772627D01*
X100983261Y-95783723D01*
X100983859Y-95783771D01*
X100983139Y-95792717D01*
X100981158Y-95801473D01*
X100981714Y-95810433D01*
X100984258Y-95851440D01*
X100984500Y-95859242D01*
X100984500Y-95874145D01*
X100985774Y-95883042D01*
X100985841Y-95883508D01*
X100986871Y-95893566D01*
X100989592Y-95937417D01*
X100992641Y-95945862D01*
X100993932Y-95952098D01*
X100995865Y-95959849D01*
X100997646Y-95965938D01*
X100998919Y-95974829D01*
X101002636Y-95983004D01*
X101017108Y-96014836D01*
X101020920Y-96024201D01*
X101032791Y-96057083D01*
X101032793Y-96057086D01*
X101035841Y-96065530D01*
X101041136Y-96072777D01*
X101044129Y-96078407D01*
X101048132Y-96085257D01*
X101051577Y-96090644D01*
X101055294Y-96098820D01*
X101061154Y-96105620D01*
X101061154Y-96105621D01*
X101083981Y-96132113D01*
X101090266Y-96140029D01*
X101094702Y-96146101D01*
X101094708Y-96146108D01*
X101097577Y-96150035D01*
X101107618Y-96160076D01*
X101113976Y-96166923D01*
X101144204Y-96202004D01*
X101151739Y-96206888D01*
X101158501Y-96212787D01*
X101158431Y-96212867D01*
X101168794Y-96221252D01*
X102552979Y-97605437D01*
X102553522Y-97605982D01*
X102588300Y-97641187D01*
X102604557Y-97657644D01*
X102623950Y-97668416D01*
X102628235Y-97670796D01*
X102642619Y-97680119D01*
X102657126Y-97690992D01*
X102657128Y-97690993D01*
X102664305Y-97696372D01*
X102672705Y-97699521D01*
X102672709Y-97699523D01*
X102686221Y-97704588D01*
X102703176Y-97712422D01*
X102723627Y-97723782D01*
X102750057Y-97729763D01*
X102766463Y-97734669D01*
X102791843Y-97744183D01*
X102815184Y-97745917D01*
X102833645Y-97748677D01*
X102856473Y-97753842D01*
X102865433Y-97753286D01*
X102883516Y-97752164D01*
X102900658Y-97752269D01*
X102918723Y-97753612D01*
X102918725Y-97753612D01*
X102927674Y-97754277D01*
X102936448Y-97752404D01*
X102936450Y-97752404D01*
X102950563Y-97749391D01*
X102969064Y-97746857D01*
X102987034Y-97745742D01*
X102994837Y-97745500D01*
X103952324Y-97745500D01*
X104020445Y-97765502D01*
X104042960Y-97783973D01*
X104103687Y-97846857D01*
X104103692Y-97846861D01*
X104108586Y-97851929D01*
X104114483Y-97855788D01*
X104243577Y-97940266D01*
X104243581Y-97940268D01*
X104249475Y-97944125D01*
X104407289Y-98002815D01*
X104414270Y-98003746D01*
X104414272Y-98003747D01*
X104459812Y-98009823D01*
X104574183Y-98025083D01*
X104581194Y-98024445D01*
X104581198Y-98024445D01*
X104734843Y-98010462D01*
X104741864Y-98009823D01*
X104748566Y-98007645D01*
X104748568Y-98007645D01*
X104895298Y-97959970D01*
X104895301Y-97959969D01*
X104901997Y-97957793D01*
X105046623Y-97871578D01*
X105051717Y-97866727D01*
X105051721Y-97866724D01*
X105163454Y-97760322D01*
X105163455Y-97760320D01*
X105168554Y-97755465D01*
X105173064Y-97748678D01*
X105226389Y-97668416D01*
X105261731Y-97615223D01*
X105321521Y-97457823D01*
X105340141Y-97325341D01*
X105344404Y-97295010D01*
X105344404Y-97295006D01*
X105344955Y-97291088D01*
X105345249Y-97270000D01*
X105341447Y-97236101D01*
X105327266Y-97109672D01*
X105327265Y-97109669D01*
X105326481Y-97102676D01*
X105271108Y-96943668D01*
X105181884Y-96800879D01*
X105176920Y-96795880D01*
X105068205Y-96686403D01*
X105068201Y-96686400D01*
X105063242Y-96681406D01*
X104921079Y-96591187D01*
X104762462Y-96534706D01*
X104755474Y-96533873D01*
X104755471Y-96533872D01*
X104662300Y-96522762D01*
X104595273Y-96514769D01*
X104588270Y-96515505D01*
X104588269Y-96515505D01*
X104542712Y-96520293D01*
X104427821Y-96532369D01*
X104421155Y-96534638D01*
X104421152Y-96534639D01*
X104275098Y-96584360D01*
X104275095Y-96584361D01*
X104268431Y-96586630D01*
X104262436Y-96590318D01*
X104262432Y-96590320D01*
X104131021Y-96671165D01*
X104131019Y-96671167D01*
X104125022Y-96674856D01*
X104039583Y-96758525D01*
X103976918Y-96791894D01*
X103951426Y-96794500D01*
X103139149Y-96794500D01*
X103071028Y-96774498D01*
X103050054Y-96757595D01*
X101972405Y-95679947D01*
X101938380Y-95617635D01*
X101935500Y-95590852D01*
X101935500Y-92701500D01*
X101955502Y-92633379D01*
X102009158Y-92586886D01*
X102061500Y-92575500D01*
X102293218Y-92575500D01*
X102297768Y-92574830D01*
X102297771Y-92574830D01*
X102352426Y-92566784D01*
X102352427Y-92566784D01*
X102362112Y-92565358D01*
X102436114Y-92529025D01*
X102457507Y-92518522D01*
X102457509Y-92518521D01*
X102466855Y-92513932D01*
X102549293Y-92431350D01*
X102554561Y-92420574D01*
X102596240Y-92335306D01*
X102600536Y-92326518D01*
X102605343Y-92293567D01*
X102634969Y-92229047D01*
X102694774Y-92190787D01*
X102765770Y-92190933D01*
X102825417Y-92229440D01*
X102854680Y-92293405D01*
X102858130Y-92316838D01*
X102859642Y-92327112D01*
X102872743Y-92353796D01*
X102906164Y-92421866D01*
X102911068Y-92431855D01*
X102926637Y-92447397D01*
X102976170Y-92496843D01*
X102993650Y-92514293D01*
X103098482Y-92565536D01*
X103128973Y-92569984D01*
X103162256Y-92574840D01*
X103162260Y-92574840D01*
X103166782Y-92575500D01*
X103398500Y-92575500D01*
X103466621Y-92595502D01*
X103513114Y-92649158D01*
X103524500Y-92701500D01*
X103524500Y-92982627D01*
X103523261Y-92993723D01*
X103523859Y-92993771D01*
X103523139Y-93002717D01*
X103521158Y-93011473D01*
X103521714Y-93020433D01*
X103524258Y-93061440D01*
X103524500Y-93069242D01*
X103524500Y-93084145D01*
X103525207Y-93089081D01*
X103525841Y-93093508D01*
X103526871Y-93103566D01*
X103529592Y-93147417D01*
X103532641Y-93155862D01*
X103533932Y-93162098D01*
X103535865Y-93169849D01*
X103537646Y-93175938D01*
X103538919Y-93184829D01*
X103542636Y-93193004D01*
X103557108Y-93224836D01*
X103560920Y-93234201D01*
X103572791Y-93267083D01*
X103572793Y-93267086D01*
X103575841Y-93275530D01*
X103581136Y-93282777D01*
X103584129Y-93288407D01*
X103588132Y-93295257D01*
X103591577Y-93300644D01*
X103595294Y-93308820D01*
X103601154Y-93315620D01*
X103601154Y-93315621D01*
X103623981Y-93342113D01*
X103630266Y-93350029D01*
X103634702Y-93356101D01*
X103634708Y-93356108D01*
X103637577Y-93360035D01*
X103647618Y-93370076D01*
X103653976Y-93376923D01*
X103684204Y-93412004D01*
X103691739Y-93416888D01*
X103698501Y-93422787D01*
X103698431Y-93422867D01*
X103708794Y-93431252D01*
X106537595Y-96260053D01*
X106571621Y-96322365D01*
X106574500Y-96349148D01*
X106574500Y-97242627D01*
X106573261Y-97253723D01*
X106573859Y-97253771D01*
X106573139Y-97262717D01*
X106571158Y-97271473D01*
X106571714Y-97280433D01*
X106574258Y-97321440D01*
X106574500Y-97329242D01*
X106574500Y-97344145D01*
X106575841Y-97353508D01*
X106576871Y-97363566D01*
X106579592Y-97407417D01*
X106582641Y-97415862D01*
X106583932Y-97422098D01*
X106585865Y-97429849D01*
X106587646Y-97435938D01*
X106588919Y-97444829D01*
X106592636Y-97453004D01*
X106607108Y-97484836D01*
X106610920Y-97494201D01*
X106622791Y-97527083D01*
X106622793Y-97527086D01*
X106625841Y-97535530D01*
X106631136Y-97542777D01*
X106634129Y-97548407D01*
X106638132Y-97555257D01*
X106641577Y-97560644D01*
X106645294Y-97568820D01*
X106651154Y-97575620D01*
X106651154Y-97575621D01*
X106673981Y-97602113D01*
X106680266Y-97610029D01*
X106684702Y-97616101D01*
X106684708Y-97616108D01*
X106687577Y-97620035D01*
X106697618Y-97630076D01*
X106703976Y-97636923D01*
X106728345Y-97665205D01*
X106728347Y-97665207D01*
X106734204Y-97672004D01*
X106741733Y-97676884D01*
X106748500Y-97682788D01*
X106748431Y-97682867D01*
X106758793Y-97691252D01*
X107129272Y-98061731D01*
X107163298Y-98124043D01*
X107164685Y-98155407D01*
X107165806Y-98155423D01*
X107165708Y-98162468D01*
X107164825Y-98169455D01*
X107165512Y-98176462D01*
X107165512Y-98176465D01*
X107172546Y-98248203D01*
X107181255Y-98337025D01*
X107234402Y-98496791D01*
X107238049Y-98502813D01*
X107238050Y-98502815D01*
X107314834Y-98629600D01*
X107321624Y-98640812D01*
X107326513Y-98645875D01*
X107326514Y-98645876D01*
X107355685Y-98676083D01*
X107438586Y-98761929D01*
X107444483Y-98765788D01*
X107573577Y-98850266D01*
X107573581Y-98850268D01*
X107579475Y-98854125D01*
X107737289Y-98912815D01*
X107744270Y-98913746D01*
X107744272Y-98913747D01*
X107789812Y-98919823D01*
X107904183Y-98935083D01*
X107911194Y-98934445D01*
X107911198Y-98934445D01*
X108064843Y-98920462D01*
X108071864Y-98919823D01*
X108078566Y-98917645D01*
X108078568Y-98917645D01*
X108225298Y-98869970D01*
X108225301Y-98869969D01*
X108231997Y-98867793D01*
X108376623Y-98781578D01*
X108381717Y-98776727D01*
X108381721Y-98776724D01*
X108493454Y-98670322D01*
X108493455Y-98670320D01*
X108498554Y-98665465D01*
X108514934Y-98640812D01*
X108587836Y-98531085D01*
X108591731Y-98525223D01*
X108651521Y-98367823D01*
X108653790Y-98351679D01*
X108683077Y-98287004D01*
X108742680Y-98248430D01*
X108813676Y-98248203D01*
X108867659Y-98280117D01*
X109339272Y-98751730D01*
X109373298Y-98814042D01*
X109374690Y-98845410D01*
X109375807Y-98845426D01*
X109375709Y-98852460D01*
X109374825Y-98859455D01*
X109391255Y-99027025D01*
X109444402Y-99186791D01*
X109448049Y-99192813D01*
X109448050Y-99192815D01*
X109512526Y-99299277D01*
X109531624Y-99330812D01*
X109536513Y-99335875D01*
X109536514Y-99335876D01*
X109567325Y-99367781D01*
X109648586Y-99451929D01*
X109654483Y-99455788D01*
X109783577Y-99540266D01*
X109783581Y-99540268D01*
X109789475Y-99544125D01*
X109947289Y-99602815D01*
X109954270Y-99603746D01*
X109954272Y-99603747D01*
X109994431Y-99609105D01*
X110114183Y-99625083D01*
X110121194Y-99624445D01*
X110121198Y-99624445D01*
X110274843Y-99610462D01*
X110281864Y-99609823D01*
X110288566Y-99607645D01*
X110288568Y-99607645D01*
X110435298Y-99559970D01*
X110435301Y-99559969D01*
X110441997Y-99557793D01*
X110586623Y-99471578D01*
X110591717Y-99466727D01*
X110591721Y-99466724D01*
X110703454Y-99360322D01*
X110703455Y-99360320D01*
X110708554Y-99355465D01*
X110713127Y-99348583D01*
X110761333Y-99276026D01*
X110801731Y-99215223D01*
X110807654Y-99199632D01*
X110832448Y-99134360D01*
X110861521Y-99057823D01*
X110872416Y-98980303D01*
X110901704Y-98915629D01*
X110961309Y-98877056D01*
X111032305Y-98876831D01*
X111086285Y-98908744D01*
X114176127Y-101998586D01*
X114183098Y-102007311D01*
X114183556Y-102006921D01*
X114189375Y-102013758D01*
X114194165Y-102021350D01*
X114200894Y-102027293D01*
X114200895Y-102027294D01*
X114231699Y-102054499D01*
X114237386Y-102059845D01*
X114247915Y-102070374D01*
X114251502Y-102073062D01*
X114255485Y-102076047D01*
X114263327Y-102082432D01*
X114296255Y-102111513D01*
X114304381Y-102115328D01*
X114309706Y-102118826D01*
X114316546Y-102122936D01*
X114322122Y-102125988D01*
X114329305Y-102131372D01*
X114337713Y-102134524D01*
X114370454Y-102146798D01*
X114379774Y-102150725D01*
X114419548Y-102169399D01*
X114428418Y-102170780D01*
X114434498Y-102172639D01*
X114442219Y-102174665D01*
X114448432Y-102176031D01*
X114456843Y-102179184D01*
X114483880Y-102181193D01*
X114500676Y-102182441D01*
X114510723Y-102183595D01*
X114518145Y-102184751D01*
X114518147Y-102184751D01*
X114522956Y-102185500D01*
X114537162Y-102185500D01*
X114546500Y-102185846D01*
X114592674Y-102189277D01*
X114601450Y-102187404D01*
X114610407Y-102186793D01*
X114610414Y-102186899D01*
X114623667Y-102185500D01*
X118500852Y-102185500D01*
X118568973Y-102205502D01*
X118589947Y-102222405D01*
X122669272Y-106301731D01*
X122703298Y-106364043D01*
X122704685Y-106395407D01*
X122705806Y-106395423D01*
X122705708Y-106402468D01*
X122704825Y-106409455D01*
X122705512Y-106416462D01*
X122705512Y-106416465D01*
X122708082Y-106442676D01*
X122721255Y-106577025D01*
X122774402Y-106736791D01*
X122778049Y-106742813D01*
X122778050Y-106742815D01*
X122853758Y-106867823D01*
X122861624Y-106880812D01*
X122866513Y-106885875D01*
X122866514Y-106885876D01*
X122896595Y-106917025D01*
X122978586Y-107001929D01*
X122984483Y-107005788D01*
X123113577Y-107090266D01*
X123113581Y-107090268D01*
X123119475Y-107094125D01*
X123277289Y-107152815D01*
X123284270Y-107153746D01*
X123284272Y-107153747D01*
X123328141Y-107159600D01*
X123444183Y-107175083D01*
X123451194Y-107174445D01*
X123451198Y-107174445D01*
X123604843Y-107160462D01*
X123611864Y-107159823D01*
X123618566Y-107157645D01*
X123618568Y-107157645D01*
X123765298Y-107109970D01*
X123765301Y-107109969D01*
X123771997Y-107107793D01*
X123916623Y-107021578D01*
X123921717Y-107016727D01*
X123921721Y-107016724D01*
X124033454Y-106910322D01*
X124033455Y-106910320D01*
X124038554Y-106905465D01*
X124054934Y-106880812D01*
X124105696Y-106804409D01*
X124131731Y-106765223D01*
X124191521Y-106607823D01*
X124214955Y-106441088D01*
X124215249Y-106420000D01*
X124209941Y-106372676D01*
X124197266Y-106259672D01*
X124197265Y-106259669D01*
X124196481Y-106252676D01*
X124141108Y-106093668D01*
X124051884Y-105950879D01*
X124046920Y-105945880D01*
X123938205Y-105836403D01*
X123938201Y-105836400D01*
X123933242Y-105831406D01*
X123791079Y-105741187D01*
X123632462Y-105684706D01*
X123625474Y-105683873D01*
X123625471Y-105683872D01*
X123532300Y-105672762D01*
X123465273Y-105664769D01*
X123458270Y-105665505D01*
X123458269Y-105665505D01*
X123449511Y-105666426D01*
X123445370Y-105666861D01*
X123375532Y-105654089D01*
X123343104Y-105630646D01*
X119133872Y-101421414D01*
X119126900Y-101412688D01*
X119126442Y-101413077D01*
X119120626Y-101406243D01*
X119115835Y-101398650D01*
X119078293Y-101365494D01*
X119072606Y-101360148D01*
X119062085Y-101349627D01*
X119054513Y-101343952D01*
X119046682Y-101337576D01*
X119020474Y-101314430D01*
X119020475Y-101314430D01*
X119013745Y-101308487D01*
X119005618Y-101304671D01*
X119000281Y-101301166D01*
X118993463Y-101297070D01*
X118987880Y-101294013D01*
X118980695Y-101288628D01*
X118972290Y-101285477D01*
X118972288Y-101285476D01*
X118939546Y-101273202D01*
X118930226Y-101269275D01*
X118927010Y-101267765D01*
X118890452Y-101250601D01*
X118881582Y-101249220D01*
X118875502Y-101247361D01*
X118867781Y-101245335D01*
X118861568Y-101243969D01*
X118853157Y-101240816D01*
X118826120Y-101238807D01*
X118809324Y-101237559D01*
X118799277Y-101236405D01*
X118791855Y-101235249D01*
X118791853Y-101235249D01*
X118787044Y-101234500D01*
X118772838Y-101234500D01*
X118763501Y-101234154D01*
X118749329Y-101233101D01*
X118717326Y-101230723D01*
X118708550Y-101232596D01*
X118699593Y-101233207D01*
X118699586Y-101233101D01*
X118686333Y-101234500D01*
X116120076Y-101234500D01*
X116051955Y-101214498D01*
X116005462Y-101160842D01*
X115995358Y-101090568D01*
X116002288Y-101063757D01*
X116011519Y-101039455D01*
X129084825Y-101039455D01*
X129085512Y-101046462D01*
X129085512Y-101046465D01*
X129094399Y-101137104D01*
X129101255Y-101207025D01*
X129154402Y-101366791D01*
X129158049Y-101372813D01*
X129158050Y-101372815D01*
X129187483Y-101421414D01*
X129241624Y-101510812D01*
X129246513Y-101515875D01*
X129246514Y-101515876D01*
X129317825Y-101589720D01*
X129358586Y-101631929D01*
X129364483Y-101635788D01*
X129493577Y-101720266D01*
X129493581Y-101720268D01*
X129499475Y-101724125D01*
X129657289Y-101782815D01*
X129664270Y-101783746D01*
X129664272Y-101783747D01*
X129709812Y-101789823D01*
X129824183Y-101805083D01*
X129831194Y-101804445D01*
X129831198Y-101804445D01*
X129984843Y-101790462D01*
X129991864Y-101789823D01*
X129998566Y-101787645D01*
X129998568Y-101787645D01*
X130145298Y-101739970D01*
X130145301Y-101739969D01*
X130151997Y-101737793D01*
X130296623Y-101651578D01*
X130301717Y-101646727D01*
X130301721Y-101646724D01*
X130413454Y-101540322D01*
X130413455Y-101540320D01*
X130418554Y-101535465D01*
X130434934Y-101510812D01*
X130465659Y-101464567D01*
X130511731Y-101395223D01*
X130571521Y-101237823D01*
X130594955Y-101071088D01*
X130595249Y-101050000D01*
X130593283Y-101032468D01*
X130577266Y-100889672D01*
X130577265Y-100889669D01*
X130576481Y-100882676D01*
X130521108Y-100723668D01*
X130431884Y-100580879D01*
X130426920Y-100575880D01*
X130352094Y-100500530D01*
X130318287Y-100438099D01*
X130315500Y-100411746D01*
X130315500Y-99299149D01*
X130335502Y-99231028D01*
X130352405Y-99210053D01*
X130724360Y-98838099D01*
X131130374Y-98432085D01*
X131130387Y-98432071D01*
X133760053Y-95802405D01*
X133822365Y-95768379D01*
X133849148Y-95765500D01*
X135962324Y-95765500D01*
X136030445Y-95785502D01*
X136052960Y-95803973D01*
X136113687Y-95866857D01*
X136113692Y-95866861D01*
X136118586Y-95871929D01*
X136124483Y-95875788D01*
X136253577Y-95960266D01*
X136253581Y-95960268D01*
X136259475Y-95964125D01*
X136417289Y-96022815D01*
X136424270Y-96023746D01*
X136424272Y-96023747D01*
X136456596Y-96028060D01*
X136479948Y-96031175D01*
X136544824Y-96060010D01*
X136583813Y-96119343D01*
X136584535Y-96190336D01*
X136552379Y-96245163D01*
X136111414Y-96686128D01*
X136102688Y-96693100D01*
X136103077Y-96693558D01*
X136096243Y-96699374D01*
X136088650Y-96704165D01*
X136082708Y-96710894D01*
X136082707Y-96710894D01*
X136055494Y-96741707D01*
X136050148Y-96747394D01*
X136039627Y-96757915D01*
X136033952Y-96765487D01*
X136027576Y-96773318D01*
X135998487Y-96806255D01*
X135994671Y-96814382D01*
X135991166Y-96819719D01*
X135987070Y-96826537D01*
X135984013Y-96832120D01*
X135978628Y-96839305D01*
X135975477Y-96847710D01*
X135975476Y-96847712D01*
X135963202Y-96880454D01*
X135959275Y-96889774D01*
X135940601Y-96929548D01*
X135939220Y-96938418D01*
X135937361Y-96944498D01*
X135935335Y-96952219D01*
X135933969Y-96958432D01*
X135930816Y-96966843D01*
X135930151Y-96975798D01*
X135927559Y-97010676D01*
X135926405Y-97020723D01*
X135925363Y-97027417D01*
X135924500Y-97032956D01*
X135924500Y-97047162D01*
X135924154Y-97056499D01*
X135920723Y-97102674D01*
X135922596Y-97111450D01*
X135923207Y-97120407D01*
X135923101Y-97120414D01*
X135924500Y-97133667D01*
X135924500Y-98941940D01*
X135904498Y-99010061D01*
X135850842Y-99056554D01*
X135811671Y-99067250D01*
X135772539Y-99071363D01*
X135674828Y-99081632D01*
X135674823Y-99081633D01*
X135667821Y-99082369D01*
X135661155Y-99084638D01*
X135661152Y-99084639D01*
X135515098Y-99134360D01*
X135515095Y-99134361D01*
X135508431Y-99136630D01*
X135502436Y-99140318D01*
X135502432Y-99140320D01*
X135371021Y-99221165D01*
X135371019Y-99221167D01*
X135365022Y-99224856D01*
X135342452Y-99246958D01*
X135251653Y-99335876D01*
X135244724Y-99342661D01*
X135153515Y-99484190D01*
X135151105Y-99490810D01*
X135151104Y-99490813D01*
X135140309Y-99520473D01*
X135095927Y-99642409D01*
X135074825Y-99809455D01*
X135075512Y-99816462D01*
X135075512Y-99816465D01*
X135078311Y-99845010D01*
X135091255Y-99977025D01*
X135144402Y-100136791D01*
X135148049Y-100142813D01*
X135148050Y-100142815D01*
X135185375Y-100204445D01*
X135231624Y-100280812D01*
X135236513Y-100285875D01*
X135236514Y-100285876D01*
X135307825Y-100359720D01*
X135348586Y-100401929D01*
X135354483Y-100405788D01*
X135483577Y-100490266D01*
X135483581Y-100490268D01*
X135489475Y-100494125D01*
X135647289Y-100552815D01*
X135654270Y-100553746D01*
X135654272Y-100553747D01*
X135699812Y-100559823D01*
X135814183Y-100575083D01*
X135821194Y-100574445D01*
X135821198Y-100574445D01*
X135974843Y-100560462D01*
X135981864Y-100559823D01*
X135988566Y-100557645D01*
X135988568Y-100557645D01*
X136135298Y-100509970D01*
X136135301Y-100509969D01*
X136141997Y-100507793D01*
X136286623Y-100421578D01*
X136291717Y-100416727D01*
X136291721Y-100416724D01*
X136403454Y-100310322D01*
X136403455Y-100310320D01*
X136408554Y-100305465D01*
X136424934Y-100280812D01*
X136486834Y-100187645D01*
X136501731Y-100165223D01*
X136517343Y-100124125D01*
X136559019Y-100014409D01*
X136561521Y-100007823D01*
X136584955Y-99841088D01*
X136585249Y-99820000D01*
X136584810Y-99816085D01*
X136584809Y-99816068D01*
X136583659Y-99805817D01*
X136595945Y-99735892D01*
X136619778Y-99702681D01*
X136648235Y-99674223D01*
X136688592Y-99633867D01*
X136697312Y-99626904D01*
X136696921Y-99626444D01*
X136703758Y-99620625D01*
X136711350Y-99615835D01*
X136744499Y-99578301D01*
X136749845Y-99572614D01*
X136760374Y-99562085D01*
X136766050Y-99554511D01*
X136772432Y-99546673D01*
X136795571Y-99520473D01*
X136801513Y-99513745D01*
X136805328Y-99505619D01*
X136808826Y-99500294D01*
X136812936Y-99493454D01*
X136815988Y-99487878D01*
X136821372Y-99480695D01*
X136836798Y-99439546D01*
X136840725Y-99430226D01*
X136842235Y-99427010D01*
X136859399Y-99390452D01*
X136860780Y-99381582D01*
X136862639Y-99375502D01*
X136864665Y-99367781D01*
X136866031Y-99361568D01*
X136869184Y-99353157D01*
X136872441Y-99309324D01*
X136873595Y-99299277D01*
X136874751Y-99291855D01*
X136874751Y-99291853D01*
X136875500Y-99287044D01*
X136875500Y-99272838D01*
X136875846Y-99263501D01*
X136878612Y-99226274D01*
X136879277Y-99217326D01*
X136877404Y-99208550D01*
X136876793Y-99199593D01*
X136876899Y-99199586D01*
X136875500Y-99186333D01*
X136875500Y-97319148D01*
X136895502Y-97251027D01*
X136912405Y-97230053D01*
X138088586Y-96053872D01*
X138097312Y-96046900D01*
X138096923Y-96046442D01*
X138103757Y-96040626D01*
X138111350Y-96035835D01*
X138144506Y-95998293D01*
X138149852Y-95992606D01*
X138160373Y-95982085D01*
X138166048Y-95974513D01*
X138172424Y-95966682D01*
X138195570Y-95940474D01*
X138201513Y-95933745D01*
X138205329Y-95925618D01*
X138208834Y-95920281D01*
X138212930Y-95913463D01*
X138215987Y-95907880D01*
X138221372Y-95900695D01*
X138225938Y-95888517D01*
X138236798Y-95859546D01*
X138240725Y-95850226D01*
X138249821Y-95830852D01*
X138259399Y-95810452D01*
X138260780Y-95801582D01*
X138262639Y-95795502D01*
X138264665Y-95787781D01*
X138266031Y-95781568D01*
X138269184Y-95773157D01*
X138271291Y-95744798D01*
X138272441Y-95729324D01*
X138273595Y-95719277D01*
X138274751Y-95711855D01*
X138274751Y-95711853D01*
X138275500Y-95707044D01*
X138275500Y-95692838D01*
X138275846Y-95683501D01*
X138278612Y-95646274D01*
X138279277Y-95637326D01*
X138277404Y-95628550D01*
X138276793Y-95619593D01*
X138276899Y-95619586D01*
X138275500Y-95606333D01*
X138275500Y-94427373D01*
X138276739Y-94416277D01*
X138276141Y-94416229D01*
X138276861Y-94407283D01*
X138278842Y-94398527D01*
X138275742Y-94348554D01*
X138275500Y-94340753D01*
X138275500Y-94325855D01*
X138274159Y-94316492D01*
X138273129Y-94306434D01*
X138270965Y-94271542D01*
X138270965Y-94271540D01*
X138270409Y-94262584D01*
X138267362Y-94254144D01*
X138266068Y-94247897D01*
X138264147Y-94240191D01*
X138262353Y-94234056D01*
X138261081Y-94225171D01*
X138255516Y-94212930D01*
X138242893Y-94185168D01*
X138239080Y-94175802D01*
X138227206Y-94142911D01*
X138224159Y-94134471D01*
X138218865Y-94127225D01*
X138215868Y-94121588D01*
X138211863Y-94114735D01*
X138208423Y-94109356D01*
X138204706Y-94101180D01*
X138176022Y-94067890D01*
X138169745Y-94059987D01*
X138162424Y-94049965D01*
X138152376Y-94039917D01*
X138146018Y-94033070D01*
X138121657Y-94004798D01*
X138115796Y-93997996D01*
X138108261Y-93993112D01*
X138101499Y-93987213D01*
X138101569Y-93987133D01*
X138091209Y-93978750D01*
X137623872Y-93511413D01*
X137616899Y-93502686D01*
X137616442Y-93503075D01*
X137610624Y-93496239D01*
X137605835Y-93488650D01*
X137568293Y-93455494D01*
X137562606Y-93450148D01*
X137552085Y-93439627D01*
X137544513Y-93433952D01*
X137536682Y-93427576D01*
X137510474Y-93404430D01*
X137510475Y-93404430D01*
X137503745Y-93398487D01*
X137495618Y-93394671D01*
X137490281Y-93391166D01*
X137483463Y-93387070D01*
X137477880Y-93384013D01*
X137470695Y-93378628D01*
X137462290Y-93375477D01*
X137462288Y-93375476D01*
X137429546Y-93363202D01*
X137420226Y-93359275D01*
X137414748Y-93356703D01*
X137380452Y-93340601D01*
X137371582Y-93339220D01*
X137365502Y-93337361D01*
X137357781Y-93335335D01*
X137351568Y-93333969D01*
X137343157Y-93330816D01*
X137313964Y-93328647D01*
X137299324Y-93327559D01*
X137289277Y-93326405D01*
X137281855Y-93325249D01*
X137281853Y-93325249D01*
X137277044Y-93324500D01*
X137262838Y-93324500D01*
X137253501Y-93324154D01*
X137239329Y-93323101D01*
X137207326Y-93320723D01*
X137198550Y-93322596D01*
X137189593Y-93323207D01*
X137189586Y-93323101D01*
X137176333Y-93324500D01*
X132069148Y-93324500D01*
X132001027Y-93304498D01*
X131980053Y-93287595D01*
X131232405Y-92539947D01*
X131198379Y-92477635D01*
X131195500Y-92450852D01*
X131195500Y-91993138D01*
X132344758Y-91993138D01*
X132362035Y-92149633D01*
X132416143Y-92297490D01*
X132420380Y-92303796D01*
X132420382Y-92303799D01*
X132453979Y-92353796D01*
X132503958Y-92428172D01*
X132525086Y-92447397D01*
X132603252Y-92518522D01*
X132620410Y-92534135D01*
X132641736Y-92545714D01*
X132752099Y-92605637D01*
X132752101Y-92605638D01*
X132758776Y-92609262D01*
X132766125Y-92611190D01*
X132903719Y-92647287D01*
X132903721Y-92647287D01*
X132911069Y-92649215D01*
X132994380Y-92650524D01*
X133060898Y-92651569D01*
X133060901Y-92651569D01*
X133068495Y-92651688D01*
X133221968Y-92616538D01*
X133362625Y-92545795D01*
X133417741Y-92498722D01*
X133482528Y-92469692D01*
X133552728Y-92480297D01*
X133584369Y-92501341D01*
X133614789Y-92529021D01*
X133614793Y-92529024D01*
X133620410Y-92534135D01*
X133641736Y-92545714D01*
X133752099Y-92605637D01*
X133752101Y-92605638D01*
X133758776Y-92609262D01*
X133766125Y-92611190D01*
X133903719Y-92647287D01*
X133903721Y-92647287D01*
X133911069Y-92649215D01*
X133994380Y-92650524D01*
X134060898Y-92651569D01*
X134060901Y-92651569D01*
X134068495Y-92651688D01*
X134221968Y-92616538D01*
X134362625Y-92545795D01*
X134417741Y-92498722D01*
X134482528Y-92469692D01*
X134552728Y-92480297D01*
X134584369Y-92501341D01*
X134614789Y-92529021D01*
X134614793Y-92529024D01*
X134620410Y-92534135D01*
X134641736Y-92545714D01*
X134752099Y-92605637D01*
X134752101Y-92605638D01*
X134758776Y-92609262D01*
X134766125Y-92611190D01*
X134903719Y-92647287D01*
X134903721Y-92647287D01*
X134911069Y-92649215D01*
X134994380Y-92650524D01*
X135060898Y-92651569D01*
X135060901Y-92651569D01*
X135068495Y-92651688D01*
X135221968Y-92616538D01*
X135362625Y-92545795D01*
X135409456Y-92505798D01*
X135476574Y-92448474D01*
X135476576Y-92448471D01*
X135482348Y-92443542D01*
X135574224Y-92315683D01*
X135632950Y-92169598D01*
X135655134Y-92013723D01*
X135655278Y-92000000D01*
X135637002Y-91848977D01*
X135648675Y-91778948D01*
X135680259Y-91738030D01*
X135726574Y-91698474D01*
X135726576Y-91698471D01*
X135732348Y-91693542D01*
X135824224Y-91565683D01*
X135882950Y-91419598D01*
X135891537Y-91359262D01*
X135904553Y-91267807D01*
X135904553Y-91267804D01*
X135905134Y-91263723D01*
X135905203Y-91257128D01*
X135905235Y-91254134D01*
X135905235Y-91254128D01*
X135905278Y-91250000D01*
X135904518Y-91243721D01*
X135904626Y-91243074D01*
X135904555Y-91241787D01*
X135904843Y-91241771D01*
X135916194Y-91173691D01*
X135963877Y-91121090D01*
X135972992Y-91116023D01*
X135993640Y-91105638D01*
X136112625Y-91045795D01*
X136217935Y-90955852D01*
X136226574Y-90948474D01*
X136226576Y-90948471D01*
X136232348Y-90943542D01*
X136324224Y-90815683D01*
X136329910Y-90801538D01*
X136358970Y-90729251D01*
X136402937Y-90673507D01*
X136470062Y-90650382D01*
X136477851Y-90650264D01*
X136503787Y-90650672D01*
X136560898Y-90651569D01*
X136560901Y-90651569D01*
X136568495Y-90651688D01*
X136721968Y-90616538D01*
X136862625Y-90545795D01*
X136900177Y-90513723D01*
X136976574Y-90448474D01*
X136976576Y-90448471D01*
X136982348Y-90443542D01*
X137038671Y-90365160D01*
X137094666Y-90321512D01*
X137165369Y-90315066D01*
X137201116Y-90327955D01*
X137252099Y-90355637D01*
X137252101Y-90355638D01*
X137258776Y-90359262D01*
X137266125Y-90361190D01*
X137403719Y-90397287D01*
X137403721Y-90397287D01*
X137411069Y-90399215D01*
X137494380Y-90400524D01*
X137560898Y-90401569D01*
X137560901Y-90401569D01*
X137568495Y-90401688D01*
X137721968Y-90366538D01*
X137802535Y-90326017D01*
X137872379Y-90313279D01*
X137938023Y-90340323D01*
X137963726Y-90368300D01*
X138003958Y-90428172D01*
X138024004Y-90446412D01*
X138085500Y-90502369D01*
X138120410Y-90534135D01*
X138165535Y-90558636D01*
X138252099Y-90605637D01*
X138252101Y-90605638D01*
X138258776Y-90609262D01*
X138266125Y-90611190D01*
X138403719Y-90647287D01*
X138403721Y-90647287D01*
X138411069Y-90649215D01*
X138474662Y-90650214D01*
X138526457Y-90651028D01*
X138594255Y-90672097D01*
X138639899Y-90726477D01*
X138642803Y-90733711D01*
X138663531Y-90790354D01*
X138663533Y-90790358D01*
X138666143Y-90797490D01*
X138670380Y-90803796D01*
X138670382Y-90803799D01*
X138705216Y-90855637D01*
X138753958Y-90928172D01*
X138870410Y-91034135D01*
X139008776Y-91109262D01*
X139016119Y-91111188D01*
X139016204Y-91111222D01*
X139072177Y-91154898D01*
X139095652Y-91221901D01*
X139095811Y-91229691D01*
X139095749Y-91235611D01*
X139094758Y-91243138D01*
X139095591Y-91250684D01*
X139095591Y-91250687D01*
X139102550Y-91313721D01*
X139112035Y-91399633D01*
X139166143Y-91547490D01*
X139170380Y-91553796D01*
X139170382Y-91553799D01*
X139195438Y-91591085D01*
X139253958Y-91678172D01*
X139259577Y-91683285D01*
X139259578Y-91683286D01*
X139323354Y-91741318D01*
X139360277Y-91801958D01*
X139363477Y-91850956D01*
X139344758Y-91993138D01*
X139362035Y-92149633D01*
X139416143Y-92297490D01*
X139420380Y-92303796D01*
X139420382Y-92303799D01*
X139453979Y-92353796D01*
X139503958Y-92428172D01*
X139525086Y-92447397D01*
X139603252Y-92518522D01*
X139620410Y-92534135D01*
X139641736Y-92545714D01*
X139752099Y-92605637D01*
X139752101Y-92605638D01*
X139758776Y-92609262D01*
X139766125Y-92611190D01*
X139903719Y-92647287D01*
X139903721Y-92647287D01*
X139911069Y-92649215D01*
X139994380Y-92650524D01*
X140060898Y-92651569D01*
X140060901Y-92651569D01*
X140068495Y-92651688D01*
X140221968Y-92616538D01*
X140362625Y-92545795D01*
X140417741Y-92498722D01*
X140482528Y-92469692D01*
X140552728Y-92480297D01*
X140584369Y-92501341D01*
X140614789Y-92529021D01*
X140614793Y-92529024D01*
X140620410Y-92534135D01*
X140641736Y-92545714D01*
X140752099Y-92605637D01*
X140752101Y-92605638D01*
X140758776Y-92609262D01*
X140766125Y-92611190D01*
X140903719Y-92647287D01*
X140903721Y-92647287D01*
X140911069Y-92649215D01*
X140994380Y-92650524D01*
X141060898Y-92651569D01*
X141060901Y-92651569D01*
X141068495Y-92651688D01*
X141221968Y-92616538D01*
X141362625Y-92545795D01*
X141417741Y-92498722D01*
X141482528Y-92469692D01*
X141552728Y-92480297D01*
X141584369Y-92501341D01*
X141614789Y-92529021D01*
X141614793Y-92529024D01*
X141620410Y-92534135D01*
X141641736Y-92545714D01*
X141752099Y-92605637D01*
X141752101Y-92605638D01*
X141758776Y-92609262D01*
X141766125Y-92611190D01*
X141903719Y-92647287D01*
X141903721Y-92647287D01*
X141911069Y-92649215D01*
X141994380Y-92650524D01*
X142060898Y-92651569D01*
X142060901Y-92651569D01*
X142068495Y-92651688D01*
X142221968Y-92616538D01*
X142362625Y-92545795D01*
X142409456Y-92505798D01*
X142476574Y-92448474D01*
X142476576Y-92448471D01*
X142482348Y-92443542D01*
X142574224Y-92315683D01*
X142632950Y-92169598D01*
X142655134Y-92013723D01*
X142655278Y-92000000D01*
X142636363Y-91843694D01*
X142616616Y-91791434D01*
X142583394Y-91703514D01*
X142583393Y-91703511D01*
X142580710Y-91696412D01*
X142491531Y-91566657D01*
X142417303Y-91500522D01*
X142379648Y-91466972D01*
X142379645Y-91466970D01*
X142373976Y-91461919D01*
X142352410Y-91450500D01*
X142256250Y-91399586D01*
X142234831Y-91388245D01*
X142208225Y-91381562D01*
X142089498Y-91351740D01*
X142089496Y-91351740D01*
X142082128Y-91349889D01*
X142074530Y-91349849D01*
X142074528Y-91349849D01*
X142007319Y-91349497D01*
X141924684Y-91349065D01*
X141917305Y-91350837D01*
X141917301Y-91350837D01*
X141778967Y-91384048D01*
X141778963Y-91384049D01*
X141771588Y-91385820D01*
X141631679Y-91458032D01*
X141625957Y-91463024D01*
X141625955Y-91463025D01*
X141582972Y-91500522D01*
X141518490Y-91530230D01*
X141448183Y-91520361D01*
X141416325Y-91499650D01*
X141379648Y-91466972D01*
X141379645Y-91466970D01*
X141373976Y-91461919D01*
X141352410Y-91450500D01*
X141256250Y-91399586D01*
X141205407Y-91350033D01*
X141189425Y-91280859D01*
X141213379Y-91214025D01*
X141222462Y-91202944D01*
X141226570Y-91198477D01*
X141232348Y-91193542D01*
X141243393Y-91178172D01*
X141319793Y-91071849D01*
X141324224Y-91065683D01*
X141335450Y-91037759D01*
X141375462Y-90938225D01*
X141419429Y-90882481D01*
X141486554Y-90859356D01*
X141524342Y-90863346D01*
X141653719Y-90897287D01*
X141653721Y-90897287D01*
X141661069Y-90899215D01*
X141744380Y-90900524D01*
X141810898Y-90901569D01*
X141810901Y-90901569D01*
X141818495Y-90901688D01*
X141971968Y-90866538D01*
X142112625Y-90795795D01*
X142225917Y-90699035D01*
X142226574Y-90698474D01*
X142226576Y-90698471D01*
X142232348Y-90693542D01*
X142324224Y-90565683D01*
X142382950Y-90419598D01*
X142405134Y-90263723D01*
X142405278Y-90250000D01*
X142386363Y-90093694D01*
X142375779Y-90065683D01*
X142333394Y-89953514D01*
X142333393Y-89953511D01*
X142330710Y-89946412D01*
X142241531Y-89816657D01*
X142166717Y-89750000D01*
X142129648Y-89716972D01*
X142129645Y-89716970D01*
X142123976Y-89711919D01*
X141984831Y-89638245D01*
X141968122Y-89634048D01*
X141839498Y-89601740D01*
X141839496Y-89601740D01*
X141832128Y-89599889D01*
X141824530Y-89599849D01*
X141824528Y-89599849D01*
X141757319Y-89599497D01*
X141674684Y-89599065D01*
X141667305Y-89600837D01*
X141667301Y-89600837D01*
X141528967Y-89634048D01*
X141528963Y-89634049D01*
X141521588Y-89635820D01*
X141491414Y-89651394D01*
X141395050Y-89701131D01*
X141381679Y-89708032D01*
X141375957Y-89713024D01*
X141375955Y-89713025D01*
X141268759Y-89806538D01*
X141268756Y-89806541D01*
X141263034Y-89811533D01*
X141258667Y-89817747D01*
X141206422Y-89892084D01*
X141172501Y-89940348D01*
X141130729Y-90047490D01*
X141125839Y-90060032D01*
X141082459Y-90116234D01*
X141015580Y-90140061D01*
X140977754Y-90136467D01*
X140832128Y-90099889D01*
X140824530Y-90099849D01*
X140824528Y-90099849D01*
X140797784Y-90099709D01*
X140746444Y-90099441D01*
X140678430Y-90079083D01*
X140632218Y-90025185D01*
X140622482Y-89954859D01*
X140628150Y-89933983D01*
X140630114Y-89926652D01*
X140632950Y-89919598D01*
X140655134Y-89763723D01*
X140655971Y-89763842D01*
X140679689Y-89701131D01*
X140736719Y-89658846D01*
X140782188Y-89651118D01*
X140810897Y-89651569D01*
X140810900Y-89651569D01*
X140818495Y-89651688D01*
X140971968Y-89616538D01*
X141112625Y-89545795D01*
X141140757Y-89521768D01*
X141226574Y-89448474D01*
X141226576Y-89448471D01*
X141232348Y-89443542D01*
X141324224Y-89315683D01*
X141329104Y-89303545D01*
X141347513Y-89257751D01*
X141382950Y-89169598D01*
X141391973Y-89106197D01*
X141404553Y-89017807D01*
X141404553Y-89017804D01*
X141405134Y-89013723D01*
X141405278Y-89000000D01*
X141404038Y-88989749D01*
X141395360Y-88918041D01*
X141386363Y-88843694D01*
X141372937Y-88808162D01*
X141333394Y-88703514D01*
X141333393Y-88703511D01*
X141330710Y-88696412D01*
X141241531Y-88566657D01*
X141187649Y-88518650D01*
X141129648Y-88466972D01*
X141129645Y-88466970D01*
X141123976Y-88461919D01*
X141089076Y-88443440D01*
X141060239Y-88428172D01*
X140984831Y-88388245D01*
X140958555Y-88381645D01*
X140839498Y-88351740D01*
X140839496Y-88351740D01*
X140832128Y-88349889D01*
X140824530Y-88349849D01*
X140824528Y-88349849D01*
X140757319Y-88349497D01*
X140674684Y-88349065D01*
X140667305Y-88350837D01*
X140667301Y-88350837D01*
X140528967Y-88384048D01*
X140528963Y-88384049D01*
X140521588Y-88385820D01*
X140451750Y-88421866D01*
X140390433Y-88453514D01*
X140381679Y-88458032D01*
X140375957Y-88463024D01*
X140375955Y-88463025D01*
X140268759Y-88556538D01*
X140268756Y-88556541D01*
X140263034Y-88561533D01*
X140172501Y-88690348D01*
X140115309Y-88837039D01*
X140114318Y-88844567D01*
X140095204Y-88989749D01*
X140066481Y-89054676D01*
X140007216Y-89093767D01*
X139969623Y-89099300D01*
X139953378Y-89099215D01*
X139924684Y-89099065D01*
X139917305Y-89100837D01*
X139917301Y-89100837D01*
X139810658Y-89126440D01*
X139739750Y-89122893D01*
X139682016Y-89081573D01*
X139655786Y-89015599D01*
X139655483Y-89008246D01*
X139655461Y-89008247D01*
X139655235Y-89004134D01*
X139655278Y-89000000D01*
X139654038Y-88989749D01*
X139645360Y-88918041D01*
X139636363Y-88843694D01*
X139615238Y-88787788D01*
X139609870Y-88716994D01*
X139643628Y-88654537D01*
X139704975Y-88620430D01*
X139714564Y-88618234D01*
X139714566Y-88618233D01*
X139721968Y-88616538D01*
X139862625Y-88545795D01*
X139903613Y-88510788D01*
X139976574Y-88448474D01*
X139976576Y-88448471D01*
X139982348Y-88443542D01*
X140074224Y-88315683D01*
X140079104Y-88303545D01*
X140091915Y-88271676D01*
X140132950Y-88169598D01*
X140148742Y-88058636D01*
X140154553Y-88017807D01*
X140154553Y-88017804D01*
X140155134Y-88013723D01*
X140155278Y-88000000D01*
X140136363Y-87843694D01*
X140080710Y-87696412D01*
X139991531Y-87566657D01*
X139915019Y-87498487D01*
X139882244Y-87469285D01*
X146344759Y-87469285D01*
X146345003Y-87473720D01*
X146345003Y-87473724D01*
X146357650Y-87703508D01*
X146359938Y-87745087D01*
X146381052Y-87851234D01*
X146411417Y-88003891D01*
X146413825Y-88015999D01*
X146505347Y-88276616D01*
X146632678Y-88521737D01*
X146635261Y-88525352D01*
X146635265Y-88525358D01*
X146781060Y-88729378D01*
X146793275Y-88746471D01*
X146879245Y-88836591D01*
X146964034Y-88925472D01*
X146983936Y-88946335D01*
X146987431Y-88949091D01*
X146987433Y-88949092D01*
X147179921Y-89100837D01*
X147200856Y-89117341D01*
X147277866Y-89162072D01*
X147435853Y-89253839D01*
X147435859Y-89253842D01*
X147439707Y-89256077D01*
X147589272Y-89316657D01*
X147670901Y-89349720D01*
X147695723Y-89359774D01*
X147700036Y-89360845D01*
X147700041Y-89360847D01*
X147959475Y-89425291D01*
X147959480Y-89425292D01*
X147963796Y-89426364D01*
X147968224Y-89426818D01*
X147968226Y-89426818D01*
X148043339Y-89434514D01*
X148199370Y-89450500D01*
X148370362Y-89450500D01*
X148575530Y-89435973D01*
X148579885Y-89435035D01*
X148579888Y-89435035D01*
X148841215Y-89378773D01*
X148841217Y-89378773D01*
X148845562Y-89377837D01*
X149082696Y-89290354D01*
X149100532Y-89283774D01*
X149104709Y-89282233D01*
X149153185Y-89256077D01*
X149343884Y-89153181D01*
X149347800Y-89151068D01*
X149569984Y-88986960D01*
X149601194Y-88956237D01*
X149715518Y-88843694D01*
X149766829Y-88793183D01*
X149934406Y-88573604D01*
X149939919Y-88563760D01*
X150067197Y-88336490D01*
X150067198Y-88336487D01*
X150069373Y-88332604D01*
X150071763Y-88326428D01*
X150167433Y-88079134D01*
X150169036Y-88074991D01*
X150170466Y-88068824D01*
X150220900Y-87851234D01*
X150231407Y-87805905D01*
X150255241Y-87530715D01*
X150254997Y-87526276D01*
X150240307Y-87259356D01*
X150240306Y-87259349D01*
X150240062Y-87254913D01*
X150186175Y-86984001D01*
X150094653Y-86723384D01*
X149967322Y-86478263D01*
X149964739Y-86474648D01*
X149964735Y-86474642D01*
X149809313Y-86257150D01*
X149809310Y-86257146D01*
X149806725Y-86253529D01*
X149625873Y-86063947D01*
X149619136Y-86056885D01*
X149619134Y-86056883D01*
X149616064Y-86053665D01*
X149601861Y-86042468D01*
X149402639Y-85885414D01*
X149402637Y-85885413D01*
X149399144Y-85882659D01*
X149286609Y-85817294D01*
X149164147Y-85746161D01*
X149164141Y-85746158D01*
X149160293Y-85743923D01*
X148945221Y-85656810D01*
X148908403Y-85641897D01*
X148908401Y-85641896D01*
X148904277Y-85640226D01*
X148899964Y-85639155D01*
X148899959Y-85639153D01*
X148640525Y-85574709D01*
X148640520Y-85574708D01*
X148636204Y-85573636D01*
X148631776Y-85573182D01*
X148631774Y-85573182D01*
X148551573Y-85564965D01*
X148400630Y-85549500D01*
X148229638Y-85549500D01*
X148024470Y-85564027D01*
X148020115Y-85564965D01*
X148020112Y-85564965D01*
X147758785Y-85621227D01*
X147758783Y-85621227D01*
X147754438Y-85622163D01*
X147495291Y-85717767D01*
X147491373Y-85719881D01*
X147442668Y-85746161D01*
X147252200Y-85848932D01*
X147030016Y-86013040D01*
X147026837Y-86016169D01*
X147026834Y-86016172D01*
X146933388Y-86108162D01*
X146833171Y-86206817D01*
X146665594Y-86426396D01*
X146663416Y-86430285D01*
X146538144Y-86653974D01*
X146530627Y-86667396D01*
X146529023Y-86671541D01*
X146529022Y-86671544D01*
X146499560Y-86747700D01*
X146430964Y-86925009D01*
X146429961Y-86929334D01*
X146429960Y-86929339D01*
X146421215Y-86967069D01*
X146368593Y-87194095D01*
X146344759Y-87469285D01*
X139882244Y-87469285D01*
X139879648Y-87466972D01*
X139879645Y-87466970D01*
X139873976Y-87461919D01*
X139828084Y-87437620D01*
X139741543Y-87391799D01*
X139741544Y-87391799D01*
X139734831Y-87388245D01*
X139665431Y-87370813D01*
X139589498Y-87351740D01*
X139589496Y-87351740D01*
X139582128Y-87349889D01*
X139574530Y-87349849D01*
X139574528Y-87349849D01*
X139507319Y-87349497D01*
X139424684Y-87349065D01*
X139417305Y-87350837D01*
X139417301Y-87350837D01*
X139278967Y-87384048D01*
X139278963Y-87384049D01*
X139271588Y-87385820D01*
X139264843Y-87389301D01*
X139264844Y-87389301D01*
X139140433Y-87453514D01*
X139131679Y-87458032D01*
X139125957Y-87463024D01*
X139125955Y-87463025D01*
X139018759Y-87556538D01*
X139018756Y-87556541D01*
X139013034Y-87561533D01*
X138922501Y-87690348D01*
X138865309Y-87837039D01*
X138864318Y-87844568D01*
X138849806Y-87954798D01*
X138844758Y-87993138D01*
X138862035Y-88149633D01*
X138864645Y-88156765D01*
X138885582Y-88213978D01*
X138890208Y-88284823D01*
X138855799Y-88346924D01*
X138796672Y-88379797D01*
X138778972Y-88384047D01*
X138778970Y-88384048D01*
X138771588Y-88385820D01*
X138701750Y-88421866D01*
X138640433Y-88453514D01*
X138631679Y-88458032D01*
X138625957Y-88463024D01*
X138625955Y-88463025D01*
X138518759Y-88556538D01*
X138518756Y-88556541D01*
X138513034Y-88561533D01*
X138422501Y-88690348D01*
X138417368Y-88703514D01*
X138395281Y-88760164D01*
X138351901Y-88816366D01*
X138285022Y-88840193D01*
X138215878Y-88824080D01*
X138166422Y-88773142D01*
X138152801Y-88729532D01*
X138151284Y-88716994D01*
X138136363Y-88593694D01*
X138127302Y-88569715D01*
X138083394Y-88453514D01*
X138083393Y-88453511D01*
X138080710Y-88446412D01*
X138041223Y-88388958D01*
X137993951Y-88320178D01*
X137971851Y-88252708D01*
X137989736Y-88184001D01*
X137995468Y-88175284D01*
X138064558Y-88079134D01*
X138074224Y-88065683D01*
X138132950Y-87919598D01*
X138144700Y-87837039D01*
X138154553Y-87767807D01*
X138154553Y-87767804D01*
X138155134Y-87763723D01*
X138155278Y-87750000D01*
X138154684Y-87745087D01*
X138137451Y-87602686D01*
X138136363Y-87593694D01*
X138128512Y-87572917D01*
X138083394Y-87453514D01*
X138083393Y-87453511D01*
X138080710Y-87446412D01*
X137991531Y-87316657D01*
X137906168Y-87240601D01*
X137879648Y-87216972D01*
X137879645Y-87216970D01*
X137873976Y-87211919D01*
X137734831Y-87138245D01*
X137660721Y-87119630D01*
X137589498Y-87101740D01*
X137589496Y-87101740D01*
X137582128Y-87099889D01*
X137574530Y-87099849D01*
X137574528Y-87099849D01*
X137507319Y-87099497D01*
X137424684Y-87099065D01*
X137417305Y-87100837D01*
X137417301Y-87100837D01*
X137278967Y-87134048D01*
X137278963Y-87134049D01*
X137271588Y-87135820D01*
X137264843Y-87139301D01*
X137264844Y-87139301D01*
X137158682Y-87194095D01*
X137131679Y-87208032D01*
X137125957Y-87213024D01*
X137125955Y-87213025D01*
X137018759Y-87306538D01*
X137018756Y-87306541D01*
X137013034Y-87311533D01*
X136982138Y-87355494D01*
X136929668Y-87430151D01*
X136922501Y-87440348D01*
X136865309Y-87587039D01*
X136864318Y-87594568D01*
X136850776Y-87697430D01*
X136844758Y-87743138D01*
X136862035Y-87899633D01*
X136916143Y-88047490D01*
X136920380Y-88053796D01*
X136920382Y-88053799D01*
X137003958Y-88178172D01*
X137001903Y-88179553D01*
X137026325Y-88233290D01*
X137016093Y-88303545D01*
X137004662Y-88323445D01*
X136958378Y-88389301D01*
X136922501Y-88440348D01*
X136865309Y-88587039D01*
X136847731Y-88720560D01*
X136846570Y-88729378D01*
X136817848Y-88794305D01*
X136758583Y-88833397D01*
X136687591Y-88834242D01*
X136627412Y-88796572D01*
X136603782Y-88757470D01*
X136583394Y-88703514D01*
X136583393Y-88703511D01*
X136580710Y-88696412D01*
X136491531Y-88566657D01*
X136437649Y-88518650D01*
X136379648Y-88466972D01*
X136379645Y-88466970D01*
X136373976Y-88461919D01*
X136339076Y-88443440D01*
X136310239Y-88428172D01*
X136234831Y-88388245D01*
X136202543Y-88380135D01*
X136141348Y-88344139D01*
X136109328Y-88280774D01*
X136116333Y-88210934D01*
X136122997Y-88194356D01*
X136132950Y-88169598D01*
X136148742Y-88058636D01*
X136154553Y-88017807D01*
X136154553Y-88017804D01*
X136155134Y-88013723D01*
X136155278Y-88000000D01*
X136136363Y-87843694D01*
X136080710Y-87696412D01*
X135991531Y-87566657D01*
X135915019Y-87498487D01*
X135879648Y-87466972D01*
X135879645Y-87466970D01*
X135873976Y-87461919D01*
X135828084Y-87437620D01*
X135741543Y-87391799D01*
X135741544Y-87391799D01*
X135734831Y-87388245D01*
X135665431Y-87370813D01*
X135589498Y-87351740D01*
X135589496Y-87351740D01*
X135582128Y-87349889D01*
X135574530Y-87349849D01*
X135574528Y-87349849D01*
X135507319Y-87349497D01*
X135424684Y-87349065D01*
X135417305Y-87350837D01*
X135417301Y-87350837D01*
X135278967Y-87384048D01*
X135278963Y-87384049D01*
X135271588Y-87385820D01*
X135264843Y-87389301D01*
X135264844Y-87389301D01*
X135140433Y-87453514D01*
X135131679Y-87458032D01*
X135125957Y-87463024D01*
X135125955Y-87463025D01*
X135018759Y-87556538D01*
X135018756Y-87556541D01*
X135013034Y-87561533D01*
X134922501Y-87690348D01*
X134865309Y-87837039D01*
X134864318Y-87844568D01*
X134849806Y-87954798D01*
X134844758Y-87993138D01*
X134862035Y-88149633D01*
X134916143Y-88297490D01*
X134920380Y-88303796D01*
X134920382Y-88303799D01*
X134951991Y-88350837D01*
X135003958Y-88428172D01*
X135051417Y-88471356D01*
X135113111Y-88527493D01*
X135120410Y-88534135D01*
X135167060Y-88559464D01*
X135252099Y-88605637D01*
X135252101Y-88605638D01*
X135258776Y-88609262D01*
X135292976Y-88618234D01*
X135299200Y-88619867D01*
X135360015Y-88656501D01*
X135391370Y-88720199D01*
X135384619Y-88787510D01*
X135365309Y-88837039D01*
X135358508Y-88888700D01*
X135345984Y-88983828D01*
X135344758Y-88993138D01*
X135345591Y-89000688D01*
X135345538Y-89005810D01*
X135324824Y-89073718D01*
X135270685Y-89119646D01*
X135200309Y-89129014D01*
X135188850Y-89126695D01*
X135089498Y-89101740D01*
X135089496Y-89101740D01*
X135082128Y-89099889D01*
X135074530Y-89099849D01*
X135074528Y-89099849D01*
X135059788Y-89099772D01*
X135028343Y-89099608D01*
X134960329Y-89079251D01*
X134914117Y-89025353D01*
X134903916Y-88988747D01*
X134903321Y-88983828D01*
X134886363Y-88843694D01*
X134872937Y-88808162D01*
X134833394Y-88703514D01*
X134833393Y-88703511D01*
X134830710Y-88696412D01*
X134741531Y-88566657D01*
X134687649Y-88518650D01*
X134629648Y-88466972D01*
X134629645Y-88466970D01*
X134623976Y-88461919D01*
X134589076Y-88443440D01*
X134560239Y-88428172D01*
X134484831Y-88388245D01*
X134458555Y-88381645D01*
X134339498Y-88351740D01*
X134339496Y-88351740D01*
X134332128Y-88349889D01*
X134324530Y-88349849D01*
X134324528Y-88349849D01*
X134257319Y-88349497D01*
X134174684Y-88349065D01*
X134167305Y-88350837D01*
X134167301Y-88350837D01*
X134028967Y-88384048D01*
X134028963Y-88384049D01*
X134021588Y-88385820D01*
X133951750Y-88421866D01*
X133890433Y-88453514D01*
X133881679Y-88458032D01*
X133875957Y-88463024D01*
X133875955Y-88463025D01*
X133768759Y-88556538D01*
X133768756Y-88556541D01*
X133763034Y-88561533D01*
X133672501Y-88690348D01*
X133615309Y-88837039D01*
X133608508Y-88888700D01*
X133595984Y-88983828D01*
X133594758Y-88993138D01*
X133612035Y-89149633D01*
X133666143Y-89297490D01*
X133670380Y-89303796D01*
X133670382Y-89303799D01*
X133683583Y-89323444D01*
X133753958Y-89428172D01*
X133774004Y-89446412D01*
X133860425Y-89525049D01*
X133870410Y-89534135D01*
X133877085Y-89537759D01*
X134002099Y-89605637D01*
X134002101Y-89605638D01*
X134008776Y-89609262D01*
X134016125Y-89611190D01*
X134153719Y-89647287D01*
X134153721Y-89647287D01*
X134161069Y-89649215D01*
X134197251Y-89649783D01*
X134223621Y-89650198D01*
X134291419Y-89671268D01*
X134337063Y-89725647D01*
X134346879Y-89762354D01*
X134362035Y-89899633D01*
X134364646Y-89906768D01*
X134373214Y-89930183D01*
X134377840Y-90001029D01*
X134343430Y-90063129D01*
X134280908Y-90096767D01*
X134254229Y-90099481D01*
X134214611Y-90099274D01*
X134174684Y-90099065D01*
X134167305Y-90100837D01*
X134167301Y-90100837D01*
X134021588Y-90135820D01*
X134020878Y-90132864D01*
X133963980Y-90136886D01*
X133901696Y-90102810D01*
X133872999Y-90058326D01*
X133833394Y-89953514D01*
X133833393Y-89953511D01*
X133830710Y-89946412D01*
X133741531Y-89816657D01*
X133666717Y-89750000D01*
X133629648Y-89716972D01*
X133629645Y-89716970D01*
X133623976Y-89711919D01*
X133484831Y-89638245D01*
X133468122Y-89634048D01*
X133339498Y-89601740D01*
X133339496Y-89601740D01*
X133332128Y-89599889D01*
X133324530Y-89599849D01*
X133324528Y-89599849D01*
X133257319Y-89599497D01*
X133174684Y-89599065D01*
X133167305Y-89600837D01*
X133167301Y-89600837D01*
X133028967Y-89634048D01*
X133028963Y-89634049D01*
X133021588Y-89635820D01*
X132991414Y-89651394D01*
X132895050Y-89701131D01*
X132881679Y-89708032D01*
X132875957Y-89713024D01*
X132875955Y-89713025D01*
X132768759Y-89806538D01*
X132768756Y-89806541D01*
X132763034Y-89811533D01*
X132758667Y-89817747D01*
X132706422Y-89892084D01*
X132672501Y-89940348D01*
X132615309Y-90087039D01*
X132594758Y-90243138D01*
X132612035Y-90399633D01*
X132666143Y-90547490D01*
X132670380Y-90553796D01*
X132670382Y-90553799D01*
X132692719Y-90587039D01*
X132753958Y-90678172D01*
X132776270Y-90698474D01*
X132853319Y-90768583D01*
X132870410Y-90784135D01*
X132915535Y-90808636D01*
X133002099Y-90855637D01*
X133002101Y-90855638D01*
X133008776Y-90859262D01*
X133016125Y-90861190D01*
X133153719Y-90897287D01*
X133153721Y-90897287D01*
X133161069Y-90899215D01*
X133244380Y-90900524D01*
X133310898Y-90901569D01*
X133310901Y-90901569D01*
X133318495Y-90901688D01*
X133468501Y-90867332D01*
X133468502Y-90867332D01*
X133471968Y-90866538D01*
X133472100Y-90867116D01*
X133537652Y-90863179D01*
X133599571Y-90897914D01*
X133627790Y-90942684D01*
X133666143Y-91047490D01*
X133670380Y-91053796D01*
X133670382Y-91053799D01*
X133683067Y-91072676D01*
X133753958Y-91178172D01*
X133759575Y-91183283D01*
X133771860Y-91194462D01*
X133808782Y-91255103D01*
X133807057Y-91326079D01*
X133767235Y-91384855D01*
X133744849Y-91399621D01*
X133631679Y-91458032D01*
X133625957Y-91463024D01*
X133625955Y-91463025D01*
X133582972Y-91500522D01*
X133518490Y-91530230D01*
X133448183Y-91520361D01*
X133416325Y-91499650D01*
X133379648Y-91466972D01*
X133379645Y-91466970D01*
X133373976Y-91461919D01*
X133352410Y-91450500D01*
X133256250Y-91399586D01*
X133234831Y-91388245D01*
X133208225Y-91381562D01*
X133089498Y-91351740D01*
X133089496Y-91351740D01*
X133082128Y-91349889D01*
X133074530Y-91349849D01*
X133074528Y-91349849D01*
X133007319Y-91349497D01*
X132924684Y-91349065D01*
X132917305Y-91350837D01*
X132917301Y-91350837D01*
X132778967Y-91384048D01*
X132778963Y-91384049D01*
X132771588Y-91385820D01*
X132631679Y-91458032D01*
X132625957Y-91463024D01*
X132625955Y-91463025D01*
X132518759Y-91556538D01*
X132518756Y-91556541D01*
X132513034Y-91561533D01*
X132422501Y-91690348D01*
X132365309Y-91837039D01*
X132363440Y-91851234D01*
X132348411Y-91965392D01*
X132344758Y-91993138D01*
X131195500Y-91993138D01*
X131195500Y-91877606D01*
X131215502Y-91809485D01*
X131234608Y-91786360D01*
X131293454Y-91730322D01*
X131293455Y-91730320D01*
X131298554Y-91725465D01*
X131314934Y-91700812D01*
X131387836Y-91591085D01*
X131391731Y-91585223D01*
X131398370Y-91567747D01*
X131416369Y-91520361D01*
X131451521Y-91427823D01*
X131474955Y-91261088D01*
X131475249Y-91240000D01*
X131473219Y-91221901D01*
X131457266Y-91079672D01*
X131457265Y-91079669D01*
X131456481Y-91072676D01*
X131401108Y-90913668D01*
X131311884Y-90770879D01*
X131303723Y-90762661D01*
X131198205Y-90656403D01*
X131198201Y-90656400D01*
X131193242Y-90651406D01*
X131186752Y-90647287D01*
X131135276Y-90614620D01*
X131051079Y-90561187D01*
X130892462Y-90504706D01*
X130885474Y-90503873D01*
X130885471Y-90503872D01*
X130792300Y-90492762D01*
X130725273Y-90484769D01*
X130718270Y-90485505D01*
X130718269Y-90485505D01*
X130672712Y-90490293D01*
X130557821Y-90502369D01*
X130551155Y-90504638D01*
X130551152Y-90504639D01*
X130405098Y-90554360D01*
X130405095Y-90554361D01*
X130398431Y-90556630D01*
X130392436Y-90560318D01*
X130392432Y-90560320D01*
X130261021Y-90641165D01*
X130261019Y-90641167D01*
X130255022Y-90644856D01*
X130227205Y-90672097D01*
X130164287Y-90733711D01*
X130134724Y-90762661D01*
X130043515Y-90904190D01*
X130041105Y-90910810D01*
X130041104Y-90910813D01*
X130024711Y-90955852D01*
X129985927Y-91062409D01*
X129964825Y-91229455D01*
X129965512Y-91236462D01*
X129965512Y-91236465D01*
X129971447Y-91296993D01*
X129981255Y-91397025D01*
X130034402Y-91556791D01*
X130038049Y-91562813D01*
X130038050Y-91562815D01*
X130115287Y-91690348D01*
X130121624Y-91700812D01*
X130126513Y-91705875D01*
X130126514Y-91705876D01*
X130209137Y-91791434D01*
X130242069Y-91854330D01*
X130244500Y-91878961D01*
X130244500Y-92632627D01*
X130243261Y-92643723D01*
X130243859Y-92643771D01*
X130243139Y-92652717D01*
X130241158Y-92661473D01*
X130243006Y-92691252D01*
X130244258Y-92711440D01*
X130244500Y-92719242D01*
X130244500Y-92734145D01*
X130245135Y-92738582D01*
X130245136Y-92738590D01*
X130245841Y-92743513D01*
X130246872Y-92753572D01*
X130249592Y-92797417D01*
X130252641Y-92805862D01*
X130253932Y-92812098D01*
X130255865Y-92819849D01*
X130257646Y-92825938D01*
X130258919Y-92834829D01*
X130262636Y-92843004D01*
X130277108Y-92874836D01*
X130280920Y-92884201D01*
X130292791Y-92917083D01*
X130292793Y-92917086D01*
X130295841Y-92925530D01*
X130301136Y-92932777D01*
X130304129Y-92938407D01*
X130308132Y-92945257D01*
X130311577Y-92950644D01*
X130315294Y-92958820D01*
X130321154Y-92965620D01*
X130321154Y-92965621D01*
X130343981Y-92992113D01*
X130350266Y-93000029D01*
X130354702Y-93006101D01*
X130354708Y-93006108D01*
X130357577Y-93010035D01*
X130367618Y-93020076D01*
X130373976Y-93026923D01*
X130404204Y-93062004D01*
X130411739Y-93066888D01*
X130418501Y-93072787D01*
X130418431Y-93072867D01*
X130428794Y-93081252D01*
X131436128Y-94088586D01*
X131443100Y-94097312D01*
X131443558Y-94096923D01*
X131449374Y-94103757D01*
X131454165Y-94111350D01*
X131460894Y-94117292D01*
X131460894Y-94117293D01*
X131491707Y-94144506D01*
X131497394Y-94149852D01*
X131507915Y-94160373D01*
X131515487Y-94166048D01*
X131523318Y-94172424D01*
X131556255Y-94201513D01*
X131564382Y-94205329D01*
X131569719Y-94208834D01*
X131576537Y-94212930D01*
X131582120Y-94215987D01*
X131589305Y-94221372D01*
X131597710Y-94224523D01*
X131597712Y-94224524D01*
X131630454Y-94236798D01*
X131639774Y-94240725D01*
X131679548Y-94259399D01*
X131688418Y-94260780D01*
X131694498Y-94262639D01*
X131702219Y-94264665D01*
X131708432Y-94266031D01*
X131716843Y-94269184D01*
X131743880Y-94271193D01*
X131760676Y-94272441D01*
X131770723Y-94273595D01*
X131778145Y-94274751D01*
X131778147Y-94274751D01*
X131782956Y-94275500D01*
X131797162Y-94275500D01*
X131806500Y-94275846D01*
X131852674Y-94279277D01*
X131861450Y-94277404D01*
X131870407Y-94276793D01*
X131870414Y-94276899D01*
X131883667Y-94275500D01*
X136990851Y-94275500D01*
X137058972Y-94295502D01*
X137079947Y-94312405D01*
X137287596Y-94520055D01*
X137321621Y-94582367D01*
X137324500Y-94609150D01*
X137324500Y-94648725D01*
X137304498Y-94716846D01*
X137250842Y-94763339D01*
X137180568Y-94773443D01*
X137115988Y-94743949D01*
X137109094Y-94737509D01*
X137078205Y-94706403D01*
X137078201Y-94706400D01*
X137073242Y-94701406D01*
X136931079Y-94611187D01*
X136772462Y-94554706D01*
X136765474Y-94553873D01*
X136765471Y-94553872D01*
X136672300Y-94542762D01*
X136605273Y-94534769D01*
X136598270Y-94535505D01*
X136598269Y-94535505D01*
X136552712Y-94540293D01*
X136437821Y-94552369D01*
X136431155Y-94554638D01*
X136431152Y-94554639D01*
X136285098Y-94604360D01*
X136285095Y-94604361D01*
X136278431Y-94606630D01*
X136272436Y-94610318D01*
X136272432Y-94610320D01*
X136141021Y-94691165D01*
X136141019Y-94691167D01*
X136135022Y-94694856D01*
X136049583Y-94778525D01*
X135986918Y-94811894D01*
X135961426Y-94814500D01*
X133667372Y-94814500D01*
X133656276Y-94813261D01*
X133656228Y-94813859D01*
X133647282Y-94813139D01*
X133638526Y-94811158D01*
X133588559Y-94814258D01*
X133580757Y-94814500D01*
X133565855Y-94814500D01*
X133556486Y-94815842D01*
X133546434Y-94816871D01*
X133527823Y-94818026D01*
X133511540Y-94819036D01*
X133511538Y-94819036D01*
X133502583Y-94819592D01*
X133494143Y-94822639D01*
X133487918Y-94823928D01*
X133480152Y-94825864D01*
X133474056Y-94827646D01*
X133465171Y-94828919D01*
X133457000Y-94832634D01*
X133456997Y-94832635D01*
X133425159Y-94847111D01*
X133415796Y-94850923D01*
X133374470Y-94865842D01*
X133367220Y-94871138D01*
X133361593Y-94874130D01*
X133354686Y-94878166D01*
X133349348Y-94881580D01*
X133341180Y-94885294D01*
X133334382Y-94891152D01*
X133307891Y-94913978D01*
X133299976Y-94920264D01*
X133289965Y-94927577D01*
X133279924Y-94937618D01*
X133273077Y-94943976D01*
X133237996Y-94974204D01*
X133233112Y-94981739D01*
X133227213Y-94988501D01*
X133227133Y-94988431D01*
X133218748Y-94998794D01*
X130459979Y-97757563D01*
X130459965Y-97757576D01*
X129551412Y-98666130D01*
X129542687Y-98673100D01*
X129543077Y-98673558D01*
X129536243Y-98679374D01*
X129528650Y-98684165D01*
X129522708Y-98690894D01*
X129522707Y-98690894D01*
X129495494Y-98721707D01*
X129490148Y-98727394D01*
X129479627Y-98737915D01*
X129473952Y-98745487D01*
X129467576Y-98753318D01*
X129438487Y-98786255D01*
X129434671Y-98794382D01*
X129431166Y-98799719D01*
X129427070Y-98806537D01*
X129424013Y-98812120D01*
X129418628Y-98819305D01*
X129415477Y-98827710D01*
X129415476Y-98827712D01*
X129403202Y-98860454D01*
X129399275Y-98869774D01*
X129380601Y-98909548D01*
X129379220Y-98918418D01*
X129377361Y-98924498D01*
X129375335Y-98932219D01*
X129373969Y-98938432D01*
X129370816Y-98946843D01*
X129370151Y-98955798D01*
X129367559Y-98990676D01*
X129366405Y-99000723D01*
X129365866Y-99004187D01*
X129364500Y-99012956D01*
X129364500Y-99027162D01*
X129364154Y-99036499D01*
X129360723Y-99082674D01*
X129362596Y-99091450D01*
X129363207Y-99100407D01*
X129363101Y-99100414D01*
X129364500Y-99113667D01*
X129364500Y-100412195D01*
X129344498Y-100480316D01*
X129326663Y-100502213D01*
X129254724Y-100572661D01*
X129163515Y-100714190D01*
X129161105Y-100720810D01*
X129161104Y-100720813D01*
X129152297Y-100745010D01*
X129105927Y-100872409D01*
X129084825Y-101039455D01*
X116011519Y-101039455D01*
X116059019Y-100914409D01*
X116061521Y-100907823D01*
X116084955Y-100741088D01*
X116085249Y-100720000D01*
X116071006Y-100593014D01*
X116067266Y-100559672D01*
X116067265Y-100559669D01*
X116066481Y-100552676D01*
X116011108Y-100393668D01*
X115921884Y-100250879D01*
X115875481Y-100204151D01*
X115808205Y-100136403D01*
X115808201Y-100136400D01*
X115803242Y-100131406D01*
X115661079Y-100041187D01*
X115502462Y-99984706D01*
X115495472Y-99983872D01*
X115495470Y-99983872D01*
X115418995Y-99974753D01*
X115369461Y-99968846D01*
X115304188Y-99940918D01*
X115295285Y-99932827D01*
X114801913Y-99439455D01*
X121224825Y-99439455D01*
X121225512Y-99446462D01*
X121225512Y-99446465D01*
X121230389Y-99496205D01*
X121241255Y-99607025D01*
X121294402Y-99766791D01*
X121298049Y-99772813D01*
X121298050Y-99772815D01*
X121339398Y-99841088D01*
X121381624Y-99910812D01*
X121386513Y-99915875D01*
X121386514Y-99915876D01*
X121452021Y-99983710D01*
X121498586Y-100031929D01*
X121504483Y-100035788D01*
X121633577Y-100120266D01*
X121633581Y-100120268D01*
X121639475Y-100124125D01*
X121797289Y-100182815D01*
X121804270Y-100183746D01*
X121804272Y-100183747D01*
X121849812Y-100189823D01*
X121964183Y-100205083D01*
X121971194Y-100204445D01*
X121971198Y-100204445D01*
X122124843Y-100190462D01*
X122131864Y-100189823D01*
X122138566Y-100187645D01*
X122138568Y-100187645D01*
X122285298Y-100139970D01*
X122285301Y-100139969D01*
X122291997Y-100137793D01*
X122436623Y-100051578D01*
X122441717Y-100046727D01*
X122441721Y-100046724D01*
X122553454Y-99940322D01*
X122553455Y-99940320D01*
X122558554Y-99935465D01*
X122574934Y-99910812D01*
X122637618Y-99816465D01*
X122651731Y-99795223D01*
X122711521Y-99637823D01*
X122733605Y-99480695D01*
X122734404Y-99475010D01*
X122734404Y-99475006D01*
X122734955Y-99471088D01*
X122735249Y-99450000D01*
X122726893Y-99375502D01*
X122717266Y-99289672D01*
X122717265Y-99289669D01*
X122716481Y-99282676D01*
X122661108Y-99123668D01*
X122571884Y-98980879D01*
X122563723Y-98972661D01*
X122492094Y-98900530D01*
X122458287Y-98838099D01*
X122455500Y-98811746D01*
X122455500Y-96133218D01*
X122899500Y-96133218D01*
X122900170Y-96137768D01*
X122900170Y-96137771D01*
X122908216Y-96192426D01*
X122909642Y-96202112D01*
X122919039Y-96221252D01*
X122956209Y-96296958D01*
X122961068Y-96306855D01*
X123043650Y-96389293D01*
X123148482Y-96440536D01*
X123178973Y-96444984D01*
X123212256Y-96449840D01*
X123212260Y-96449840D01*
X123216782Y-96450500D01*
X124898500Y-96450500D01*
X124966621Y-96470502D01*
X125013114Y-96524158D01*
X125024500Y-96576500D01*
X125024500Y-97292627D01*
X125023261Y-97303723D01*
X125023859Y-97303771D01*
X125023139Y-97312717D01*
X125021158Y-97321473D01*
X125023456Y-97358517D01*
X125024258Y-97371440D01*
X125024500Y-97379242D01*
X125024500Y-97394145D01*
X125025841Y-97403508D01*
X125026871Y-97413566D01*
X125029592Y-97457417D01*
X125032641Y-97465862D01*
X125033932Y-97472098D01*
X125035865Y-97479849D01*
X125037646Y-97485938D01*
X125038919Y-97494829D01*
X125042636Y-97503004D01*
X125057108Y-97534836D01*
X125060920Y-97544201D01*
X125072791Y-97577083D01*
X125072793Y-97577086D01*
X125075841Y-97585530D01*
X125081136Y-97592777D01*
X125084129Y-97598407D01*
X125088132Y-97605257D01*
X125091577Y-97610644D01*
X125095294Y-97618820D01*
X125101154Y-97625620D01*
X125101154Y-97625621D01*
X125123981Y-97652113D01*
X125130266Y-97660029D01*
X125134702Y-97666101D01*
X125134708Y-97666108D01*
X125137577Y-97670035D01*
X125147618Y-97680076D01*
X125153976Y-97686923D01*
X125172029Y-97707874D01*
X125184204Y-97722004D01*
X125191733Y-97726884D01*
X125198502Y-97732789D01*
X125198432Y-97732869D01*
X125208791Y-97741250D01*
X125499272Y-98031731D01*
X125533298Y-98094043D01*
X125534685Y-98125407D01*
X125535806Y-98125423D01*
X125535708Y-98132468D01*
X125534825Y-98139455D01*
X125535512Y-98146462D01*
X125535512Y-98146465D01*
X125538311Y-98175010D01*
X125551255Y-98307025D01*
X125604402Y-98466791D01*
X125608049Y-98472813D01*
X125608050Y-98472815D01*
X125643340Y-98531085D01*
X125691624Y-98610812D01*
X125696513Y-98615875D01*
X125696514Y-98615876D01*
X125720595Y-98640812D01*
X125808586Y-98731929D01*
X125814483Y-98735788D01*
X125943577Y-98820266D01*
X125943581Y-98820268D01*
X125949475Y-98824125D01*
X126107289Y-98882815D01*
X126114270Y-98883746D01*
X126114272Y-98883747D01*
X126159812Y-98889823D01*
X126274183Y-98905083D01*
X126281194Y-98904445D01*
X126281198Y-98904445D01*
X126434843Y-98890462D01*
X126441864Y-98889823D01*
X126448566Y-98887645D01*
X126448568Y-98887645D01*
X126595298Y-98839970D01*
X126595301Y-98839969D01*
X126601997Y-98837793D01*
X126746623Y-98751578D01*
X126751717Y-98746727D01*
X126751721Y-98746724D01*
X126863454Y-98640322D01*
X126863455Y-98640320D01*
X126868554Y-98635465D01*
X126884934Y-98610812D01*
X126948984Y-98514409D01*
X126961731Y-98495223D01*
X127021521Y-98337823D01*
X127040739Y-98201088D01*
X127044404Y-98175010D01*
X127044404Y-98175006D01*
X127044955Y-98171088D01*
X127045249Y-98150000D01*
X127044398Y-98142409D01*
X127027266Y-97989672D01*
X127027265Y-97989669D01*
X127026481Y-97982676D01*
X126971108Y-97823668D01*
X126881884Y-97680879D01*
X126876014Y-97674968D01*
X126768205Y-97566403D01*
X126768201Y-97566400D01*
X126763242Y-97561406D01*
X126747126Y-97551178D01*
X126707953Y-97526319D01*
X126621079Y-97471187D01*
X126462462Y-97414706D01*
X126455474Y-97413873D01*
X126455471Y-97413872D01*
X126362300Y-97402762D01*
X126295273Y-97394769D01*
X126288270Y-97395505D01*
X126288269Y-97395505D01*
X126279511Y-97396426D01*
X126275370Y-97396861D01*
X126205532Y-97384089D01*
X126173104Y-97360646D01*
X126012405Y-97199947D01*
X125978379Y-97137635D01*
X125975500Y-97110852D01*
X125975500Y-96576500D01*
X125995502Y-96508379D01*
X126049158Y-96461886D01*
X126101500Y-96450500D01*
X127783218Y-96450500D01*
X127787768Y-96449830D01*
X127787771Y-96449830D01*
X127842426Y-96441784D01*
X127842427Y-96441784D01*
X127852112Y-96440358D01*
X127946804Y-96393867D01*
X127947507Y-96393522D01*
X127947509Y-96393521D01*
X127956855Y-96388932D01*
X128039293Y-96306350D01*
X128090536Y-96201518D01*
X128098621Y-96146101D01*
X128099840Y-96137744D01*
X128099840Y-96137740D01*
X128100500Y-96133218D01*
X128100500Y-93866782D01*
X128091871Y-93808162D01*
X128091784Y-93807574D01*
X128091784Y-93807573D01*
X128090358Y-93797888D01*
X128052294Y-93720360D01*
X128043522Y-93702493D01*
X128043521Y-93702491D01*
X128038932Y-93693145D01*
X127956350Y-93610707D01*
X127851518Y-93559464D01*
X127821027Y-93555016D01*
X127787744Y-93550160D01*
X127787740Y-93550160D01*
X127783218Y-93549500D01*
X123216782Y-93549500D01*
X123212232Y-93550170D01*
X123212229Y-93550170D01*
X123157574Y-93558216D01*
X123157573Y-93558216D01*
X123147888Y-93559642D01*
X123113387Y-93576581D01*
X123052493Y-93606478D01*
X123052491Y-93606479D01*
X123043145Y-93611068D01*
X123035787Y-93618438D01*
X123035788Y-93618438D01*
X122978705Y-93675621D01*
X122960707Y-93693650D01*
X122956134Y-93703006D01*
X122956133Y-93703007D01*
X122952701Y-93710029D01*
X122909464Y-93798482D01*
X122899500Y-93866782D01*
X122899500Y-96133218D01*
X122455500Y-96133218D01*
X122455500Y-92849148D01*
X122475502Y-92781027D01*
X122492405Y-92760053D01*
X123765053Y-91487405D01*
X123827365Y-91453379D01*
X123854148Y-91450500D01*
X127783218Y-91450500D01*
X127787768Y-91449830D01*
X127787771Y-91449830D01*
X127842426Y-91441784D01*
X127842427Y-91441784D01*
X127852112Y-91440358D01*
X127909724Y-91412072D01*
X127947507Y-91393522D01*
X127947509Y-91393521D01*
X127956855Y-91388932D01*
X128039293Y-91306350D01*
X128044453Y-91295795D01*
X128070860Y-91241771D01*
X128090536Y-91201518D01*
X128100500Y-91133218D01*
X128100500Y-88866782D01*
X128096122Y-88837039D01*
X128091784Y-88807574D01*
X128091784Y-88807573D01*
X128090358Y-88797888D01*
X128056797Y-88729532D01*
X128043522Y-88702493D01*
X128043521Y-88702491D01*
X128038932Y-88693145D01*
X127956350Y-88610707D01*
X127936971Y-88601234D01*
X127880445Y-88573604D01*
X127851518Y-88559464D01*
X127821027Y-88555016D01*
X127787744Y-88550160D01*
X127787740Y-88550160D01*
X127783218Y-88549500D01*
X123216782Y-88549500D01*
X123212232Y-88550170D01*
X123212229Y-88550170D01*
X123157574Y-88558216D01*
X123157573Y-88558216D01*
X123147888Y-88559642D01*
X123106499Y-88579963D01*
X123052493Y-88606478D01*
X123052491Y-88606479D01*
X123043145Y-88611068D01*
X122960707Y-88693650D01*
X122956134Y-88703006D01*
X122956133Y-88703007D01*
X122947553Y-88720560D01*
X122909464Y-88798482D01*
X122899500Y-88866782D01*
X122899500Y-90955852D01*
X122879498Y-91023973D01*
X122862595Y-91044947D01*
X121691414Y-92216128D01*
X121682688Y-92223100D01*
X121683077Y-92223558D01*
X121676243Y-92229374D01*
X121668650Y-92234165D01*
X121662708Y-92240894D01*
X121662707Y-92240894D01*
X121635494Y-92271707D01*
X121630148Y-92277394D01*
X121619627Y-92287915D01*
X121613952Y-92295487D01*
X121607576Y-92303318D01*
X121578487Y-92336255D01*
X121574671Y-92344382D01*
X121571166Y-92349719D01*
X121567070Y-92356537D01*
X121564013Y-92362120D01*
X121558628Y-92369305D01*
X121555477Y-92377710D01*
X121555476Y-92377712D01*
X121543202Y-92410454D01*
X121539275Y-92419774D01*
X121520601Y-92459548D01*
X121519220Y-92468418D01*
X121517361Y-92474498D01*
X121515335Y-92482219D01*
X121513969Y-92488432D01*
X121510816Y-92496843D01*
X121509520Y-92514293D01*
X121507559Y-92540676D01*
X121506405Y-92550722D01*
X121504500Y-92562956D01*
X121504500Y-92577162D01*
X121504154Y-92586499D01*
X121500723Y-92632674D01*
X121502596Y-92641450D01*
X121503207Y-92650407D01*
X121503101Y-92650414D01*
X121504500Y-92663667D01*
X121504500Y-98812195D01*
X121484498Y-98880316D01*
X121466663Y-98902213D01*
X121394724Y-98972661D01*
X121303515Y-99114190D01*
X121301105Y-99120810D01*
X121301104Y-99120813D01*
X121295347Y-99136630D01*
X121245927Y-99272409D01*
X121224825Y-99439455D01*
X114801913Y-99439455D01*
X112132405Y-96769947D01*
X112098379Y-96707635D01*
X112095500Y-96680852D01*
X112095500Y-92701500D01*
X112115502Y-92633379D01*
X112169158Y-92586886D01*
X112221500Y-92575500D01*
X112453218Y-92575500D01*
X112457768Y-92574830D01*
X112457771Y-92574830D01*
X112512426Y-92566784D01*
X112512427Y-92566784D01*
X112522112Y-92565358D01*
X112596114Y-92529025D01*
X112617507Y-92518522D01*
X112617509Y-92518521D01*
X112626855Y-92513932D01*
X112634212Y-92506562D01*
X112634215Y-92506560D01*
X112706671Y-92433977D01*
X112768953Y-92399897D01*
X112839773Y-92404900D01*
X112896646Y-92447397D01*
X112906364Y-92462485D01*
X112915212Y-92478646D01*
X112991715Y-92580724D01*
X113004276Y-92593285D01*
X113106351Y-92669786D01*
X113121946Y-92678324D01*
X113242394Y-92723478D01*
X113257649Y-92727105D01*
X113308514Y-92732631D01*
X113315328Y-92733000D01*
X113887885Y-92733000D01*
X113903124Y-92728525D01*
X113904329Y-92727135D01*
X113906000Y-92719452D01*
X113906000Y-92714884D01*
X114414000Y-92714884D01*
X114418475Y-92730123D01*
X114419865Y-92731328D01*
X114427548Y-92732999D01*
X115004669Y-92732999D01*
X115011490Y-92732629D01*
X115062352Y-92727105D01*
X115077604Y-92723479D01*
X115198054Y-92678324D01*
X115213649Y-92669786D01*
X115315724Y-92593285D01*
X115328285Y-92580724D01*
X115404790Y-92478644D01*
X115413589Y-92462572D01*
X115463847Y-92412426D01*
X115533238Y-92397413D01*
X115599731Y-92422299D01*
X115613123Y-92433906D01*
X115656928Y-92477635D01*
X115676170Y-92496843D01*
X115693650Y-92514293D01*
X115798482Y-92565536D01*
X115828973Y-92569984D01*
X115862256Y-92574840D01*
X115862260Y-92574840D01*
X115866782Y-92575500D01*
X117533218Y-92575500D01*
X117537768Y-92574830D01*
X117537771Y-92574830D01*
X117592426Y-92566784D01*
X117592427Y-92566784D01*
X117602112Y-92565358D01*
X117676114Y-92529025D01*
X117697507Y-92518522D01*
X117697509Y-92518521D01*
X117706855Y-92513932D01*
X117789293Y-92431350D01*
X117794561Y-92420574D01*
X117836240Y-92335306D01*
X117840536Y-92326518D01*
X117846666Y-92284500D01*
X117849840Y-92262744D01*
X117849840Y-92262740D01*
X117850500Y-92258218D01*
X117850500Y-88691782D01*
X117844555Y-88651394D01*
X117841784Y-88632574D01*
X117841784Y-88632573D01*
X117840358Y-88622888D01*
X117815824Y-88572917D01*
X117793522Y-88527493D01*
X117793521Y-88527491D01*
X117788932Y-88518145D01*
X117724188Y-88453514D01*
X117713721Y-88443065D01*
X117713720Y-88443065D01*
X117706350Y-88435707D01*
X117678035Y-88421866D01*
X117624099Y-88395502D01*
X117601518Y-88384464D01*
X117569527Y-88379797D01*
X117537744Y-88375160D01*
X117537740Y-88375160D01*
X117533218Y-88374500D01*
X115866782Y-88374500D01*
X115862232Y-88375170D01*
X115862229Y-88375170D01*
X115807574Y-88383216D01*
X115807573Y-88383216D01*
X115797888Y-88384642D01*
X115788399Y-88389301D01*
X115702493Y-88431478D01*
X115702491Y-88431479D01*
X115693145Y-88436068D01*
X115685788Y-88443438D01*
X115685785Y-88443440D01*
X115613329Y-88516023D01*
X115551047Y-88550103D01*
X115480227Y-88545100D01*
X115423354Y-88502603D01*
X115413636Y-88487515D01*
X115404788Y-88471354D01*
X115328285Y-88369276D01*
X115315724Y-88356715D01*
X115213649Y-88280214D01*
X115198054Y-88271676D01*
X115077606Y-88226522D01*
X115062351Y-88222895D01*
X115011486Y-88217369D01*
X115004672Y-88217000D01*
X114432115Y-88217000D01*
X114416876Y-88221475D01*
X114415671Y-88222865D01*
X114414000Y-88230548D01*
X114414000Y-92714884D01*
X113906000Y-92714884D01*
X113906000Y-88235116D01*
X113901525Y-88219877D01*
X113900135Y-88218672D01*
X113892452Y-88217001D01*
X113315331Y-88217001D01*
X113308510Y-88217371D01*
X113257648Y-88222895D01*
X113242396Y-88226521D01*
X113121946Y-88271676D01*
X113106351Y-88280214D01*
X113004276Y-88356715D01*
X112991715Y-88369276D01*
X112915210Y-88471356D01*
X112906411Y-88487428D01*
X112856153Y-88537574D01*
X112786762Y-88552587D01*
X112720269Y-88527701D01*
X112706874Y-88516091D01*
X112633721Y-88443065D01*
X112633720Y-88443065D01*
X112626350Y-88435707D01*
X112598035Y-88421866D01*
X112544099Y-88395502D01*
X112521518Y-88384464D01*
X112489527Y-88379797D01*
X112457744Y-88375160D01*
X112457740Y-88375160D01*
X112453218Y-88374500D01*
X110786782Y-88374500D01*
X110782232Y-88375170D01*
X110782229Y-88375170D01*
X110727574Y-88383216D01*
X110727573Y-88383216D01*
X110717888Y-88384642D01*
X110708399Y-88389301D01*
X110622493Y-88431478D01*
X110622491Y-88431479D01*
X110613145Y-88436068D01*
X110530707Y-88518650D01*
X110526134Y-88528006D01*
X110526133Y-88528007D01*
X110517778Y-88545100D01*
X110479464Y-88623482D01*
X110475619Y-88649842D01*
X110474657Y-88656433D01*
X110445031Y-88720953D01*
X110385226Y-88759213D01*
X110314230Y-88759067D01*
X110254583Y-88720560D01*
X110225320Y-88656595D01*
X110221784Y-88632574D01*
X110221784Y-88632573D01*
X110220358Y-88622888D01*
X110195824Y-88572917D01*
X110173522Y-88527493D01*
X110173521Y-88527491D01*
X110168932Y-88518145D01*
X110104188Y-88453514D01*
X110093721Y-88443065D01*
X110093720Y-88443065D01*
X110086350Y-88435707D01*
X110058035Y-88421866D01*
X110004099Y-88395502D01*
X109981518Y-88384464D01*
X109949527Y-88379797D01*
X109917744Y-88375160D01*
X109917740Y-88375160D01*
X109913218Y-88374500D01*
X108246782Y-88374500D01*
X108242232Y-88375170D01*
X108242229Y-88375170D01*
X108187574Y-88383216D01*
X108187573Y-88383216D01*
X108177888Y-88384642D01*
X108168399Y-88389301D01*
X108082493Y-88431478D01*
X108082491Y-88431479D01*
X108073145Y-88436068D01*
X107990707Y-88518650D01*
X107986134Y-88528006D01*
X107986133Y-88528007D01*
X107977778Y-88545100D01*
X107939464Y-88623482D01*
X107935619Y-88649842D01*
X107934657Y-88656433D01*
X107905031Y-88720953D01*
X107845226Y-88759213D01*
X107774230Y-88759067D01*
X107714583Y-88720560D01*
X107685320Y-88656595D01*
X107681784Y-88632574D01*
X107681784Y-88632573D01*
X107680358Y-88622888D01*
X107655824Y-88572917D01*
X107633522Y-88527493D01*
X107633521Y-88527491D01*
X107628932Y-88518145D01*
X107564188Y-88453514D01*
X107553721Y-88443065D01*
X107553720Y-88443065D01*
X107546350Y-88435707D01*
X107518035Y-88421866D01*
X107464099Y-88395502D01*
X107441518Y-88384464D01*
X107409527Y-88379797D01*
X107377744Y-88375160D01*
X107377740Y-88375160D01*
X107373218Y-88374500D01*
X105706782Y-88374500D01*
X105702232Y-88375170D01*
X105702229Y-88375170D01*
X105647574Y-88383216D01*
X105647573Y-88383216D01*
X105637888Y-88384642D01*
X105628399Y-88389301D01*
X105542493Y-88431478D01*
X105542491Y-88431479D01*
X105533145Y-88436068D01*
X105450707Y-88518650D01*
X105446134Y-88528006D01*
X105446133Y-88528007D01*
X105437778Y-88545100D01*
X105399464Y-88623482D01*
X105395619Y-88649842D01*
X105394657Y-88656433D01*
X105365031Y-88720953D01*
X105305226Y-88759213D01*
X105234230Y-88759067D01*
X105174583Y-88720560D01*
X105145320Y-88656595D01*
X105141784Y-88632574D01*
X105141784Y-88632573D01*
X105140358Y-88622888D01*
X105115824Y-88572917D01*
X105093522Y-88527493D01*
X105093521Y-88527491D01*
X105088932Y-88518145D01*
X105024188Y-88453514D01*
X105013721Y-88443065D01*
X105013720Y-88443065D01*
X105006350Y-88435707D01*
X104978035Y-88421866D01*
X104924099Y-88395502D01*
X104901518Y-88384464D01*
X104869527Y-88379797D01*
X104837744Y-88375160D01*
X104837740Y-88375160D01*
X104833218Y-88374500D01*
X103166782Y-88374500D01*
X103162232Y-88375170D01*
X103162229Y-88375170D01*
X103107574Y-88383216D01*
X103107573Y-88383216D01*
X103097888Y-88384642D01*
X103088399Y-88389301D01*
X103002493Y-88431478D01*
X103002491Y-88431479D01*
X102993145Y-88436068D01*
X102910707Y-88518650D01*
X102906134Y-88528006D01*
X102906133Y-88528007D01*
X102897778Y-88545100D01*
X102859464Y-88623482D01*
X102855619Y-88649842D01*
X102854657Y-88656433D01*
X102825031Y-88720953D01*
X102765226Y-88759213D01*
X102694230Y-88759067D01*
X102634583Y-88720560D01*
X102605320Y-88656595D01*
X102601784Y-88632574D01*
X102601784Y-88632573D01*
X102600358Y-88622888D01*
X102575824Y-88572917D01*
X102553522Y-88527493D01*
X102553521Y-88527491D01*
X102548932Y-88518145D01*
X102484188Y-88453514D01*
X102473721Y-88443065D01*
X102473720Y-88443065D01*
X102466350Y-88435707D01*
X102438035Y-88421866D01*
X102384099Y-88395502D01*
X102361518Y-88384464D01*
X102329527Y-88379797D01*
X102297744Y-88375160D01*
X102297740Y-88375160D01*
X102293218Y-88374500D01*
X100626782Y-88374500D01*
X100622232Y-88375170D01*
X100622229Y-88375170D01*
X100567574Y-88383216D01*
X100567573Y-88383216D01*
X100557888Y-88384642D01*
X100548399Y-88389301D01*
X100462493Y-88431478D01*
X100462491Y-88431479D01*
X100453145Y-88436068D01*
X100370707Y-88518650D01*
X100366134Y-88528006D01*
X100366133Y-88528007D01*
X100357778Y-88545100D01*
X100319464Y-88623482D01*
X100315619Y-88649842D01*
X100314657Y-88656433D01*
X100285031Y-88720953D01*
X100225226Y-88759213D01*
X100154230Y-88759067D01*
X100094583Y-88720560D01*
X100065320Y-88656595D01*
X100061784Y-88632574D01*
X100061784Y-88632573D01*
X100060358Y-88622888D01*
X100035824Y-88572917D01*
X100013522Y-88527493D01*
X100013521Y-88527491D01*
X100008932Y-88518145D01*
X99944188Y-88453514D01*
X99933721Y-88443065D01*
X99933720Y-88443065D01*
X99926350Y-88435707D01*
X99898035Y-88421866D01*
X99844099Y-88395502D01*
X99821518Y-88384464D01*
X99789527Y-88379797D01*
X99757744Y-88375160D01*
X99757740Y-88375160D01*
X99753218Y-88374500D01*
X98086782Y-88374500D01*
X98082232Y-88375170D01*
X98082229Y-88375170D01*
X98027574Y-88383216D01*
X98027573Y-88383216D01*
X98017888Y-88384642D01*
X98008399Y-88389301D01*
X97922493Y-88431478D01*
X97922491Y-88431479D01*
X97913145Y-88436068D01*
X97830707Y-88518650D01*
X97826134Y-88528006D01*
X97826133Y-88528007D01*
X97817778Y-88545100D01*
X97779464Y-88623482D01*
X97775619Y-88649842D01*
X97774657Y-88656433D01*
X97745031Y-88720953D01*
X97685226Y-88759213D01*
X97614230Y-88759067D01*
X97554583Y-88720560D01*
X97525320Y-88656595D01*
X97521784Y-88632574D01*
X97521784Y-88632573D01*
X97520358Y-88622888D01*
X97495824Y-88572917D01*
X97473522Y-88527493D01*
X97473521Y-88527491D01*
X97468932Y-88518145D01*
X97404188Y-88453514D01*
X97393721Y-88443065D01*
X97393720Y-88443065D01*
X97386350Y-88435707D01*
X97358035Y-88421866D01*
X97304099Y-88395502D01*
X97281518Y-88384464D01*
X97249527Y-88379797D01*
X97217744Y-88375160D01*
X97217740Y-88375160D01*
X97213218Y-88374500D01*
X95546782Y-88374500D01*
X95542232Y-88375170D01*
X95542229Y-88375170D01*
X95487574Y-88383216D01*
X95487573Y-88383216D01*
X95477888Y-88384642D01*
X95468399Y-88389301D01*
X95382493Y-88431478D01*
X95382491Y-88431479D01*
X95373145Y-88436068D01*
X95290707Y-88518650D01*
X95286134Y-88528006D01*
X95286133Y-88528007D01*
X95277778Y-88545100D01*
X95239464Y-88623482D01*
X95235619Y-88649842D01*
X95234657Y-88656433D01*
X95205031Y-88720953D01*
X95145226Y-88759213D01*
X95074230Y-88759067D01*
X95014583Y-88720560D01*
X94985320Y-88656595D01*
X94981784Y-88632574D01*
X94981784Y-88632573D01*
X94980358Y-88622888D01*
X94955824Y-88572917D01*
X94933522Y-88527493D01*
X94933521Y-88527491D01*
X94928932Y-88518145D01*
X94864188Y-88453514D01*
X94853721Y-88443065D01*
X94853720Y-88443065D01*
X94846350Y-88435707D01*
X94818035Y-88421866D01*
X94764099Y-88395502D01*
X94741518Y-88384464D01*
X94709527Y-88379797D01*
X94677744Y-88375160D01*
X94677740Y-88375160D01*
X94673218Y-88374500D01*
X93006782Y-88374500D01*
X93002232Y-88375170D01*
X93002229Y-88375170D01*
X92947574Y-88383216D01*
X92947573Y-88383216D01*
X92937888Y-88384642D01*
X92928399Y-88389301D01*
X92842493Y-88431478D01*
X92842491Y-88431479D01*
X92833145Y-88436068D01*
X92750707Y-88518650D01*
X92746134Y-88528006D01*
X92746133Y-88528007D01*
X92737778Y-88545100D01*
X92699464Y-88623482D01*
X92695619Y-88649842D01*
X92694657Y-88656433D01*
X92665031Y-88720953D01*
X92605226Y-88759213D01*
X92534230Y-88759067D01*
X92474583Y-88720560D01*
X92445320Y-88656595D01*
X92441784Y-88632574D01*
X92441784Y-88632573D01*
X92440358Y-88622888D01*
X92415824Y-88572917D01*
X92393522Y-88527493D01*
X92393521Y-88527491D01*
X92388932Y-88518145D01*
X92324188Y-88453514D01*
X92313721Y-88443065D01*
X92313720Y-88443065D01*
X92306350Y-88435707D01*
X92278035Y-88421866D01*
X92224099Y-88395502D01*
X92201518Y-88384464D01*
X92169527Y-88379797D01*
X92137744Y-88375160D01*
X92137740Y-88375160D01*
X92133218Y-88374500D01*
X90466782Y-88374500D01*
X90462232Y-88375170D01*
X90462229Y-88375170D01*
X90407574Y-88383216D01*
X90407573Y-88383216D01*
X90397888Y-88384642D01*
X90388399Y-88389301D01*
X90302493Y-88431478D01*
X90302491Y-88431479D01*
X90293145Y-88436068D01*
X90210707Y-88518650D01*
X90206134Y-88528006D01*
X90206133Y-88528007D01*
X90197778Y-88545100D01*
X90159464Y-88623482D01*
X90155619Y-88649842D01*
X90154657Y-88656433D01*
X90125031Y-88720953D01*
X90065226Y-88759213D01*
X89994230Y-88759067D01*
X89934583Y-88720560D01*
X89905320Y-88656595D01*
X89901784Y-88632574D01*
X89901784Y-88632573D01*
X89900358Y-88622888D01*
X89875824Y-88572917D01*
X89853522Y-88527493D01*
X89853521Y-88527491D01*
X89848932Y-88518145D01*
X89784188Y-88453514D01*
X89773721Y-88443065D01*
X89773720Y-88443065D01*
X89766350Y-88435707D01*
X89738035Y-88421866D01*
X89684099Y-88395502D01*
X89661518Y-88384464D01*
X89629527Y-88379797D01*
X89597744Y-88375160D01*
X89597740Y-88375160D01*
X89593218Y-88374500D01*
X88101500Y-88374500D01*
X88033379Y-88354498D01*
X87986886Y-88300842D01*
X87975500Y-88248500D01*
X87975500Y-86745220D01*
X87995502Y-86677099D01*
X88014608Y-86653974D01*
X88123454Y-86550322D01*
X88123455Y-86550320D01*
X88128554Y-86545465D01*
X88139795Y-86528547D01*
X88205080Y-86430285D01*
X88221731Y-86405223D01*
X88281521Y-86247823D01*
X88304955Y-86081088D01*
X88305249Y-86060000D01*
X88292103Y-85942796D01*
X88287266Y-85899672D01*
X88287265Y-85899669D01*
X88286481Y-85892676D01*
X88231108Y-85733668D01*
X88141884Y-85590879D01*
X88133723Y-85582661D01*
X88028205Y-85476403D01*
X88028201Y-85476400D01*
X88023242Y-85471406D01*
X87881079Y-85381187D01*
X87722462Y-85324706D01*
X87715474Y-85323873D01*
X87715471Y-85323872D01*
X87622300Y-85312762D01*
X87555273Y-85304769D01*
X87548270Y-85305505D01*
X87548269Y-85305505D01*
X87502712Y-85310293D01*
X87387821Y-85322369D01*
X87381155Y-85324638D01*
X87381152Y-85324639D01*
X87235098Y-85374360D01*
X87235095Y-85374361D01*
X87228431Y-85376630D01*
X87222436Y-85380318D01*
X87222432Y-85380320D01*
X87091021Y-85461165D01*
X87091019Y-85461167D01*
X87085022Y-85464856D01*
X87073231Y-85476403D01*
X86974404Y-85573182D01*
X86964724Y-85582661D01*
X86873515Y-85724190D01*
X86871105Y-85730810D01*
X86871104Y-85730813D01*
X86865518Y-85746161D01*
X86815927Y-85882409D01*
X86794825Y-86049455D01*
X86795512Y-86056462D01*
X86795512Y-86056465D01*
X86798311Y-86085010D01*
X86811255Y-86217025D01*
X86864402Y-86376791D01*
X86868049Y-86382813D01*
X86868050Y-86382815D01*
X86923663Y-86474642D01*
X86951624Y-86520812D01*
X86975431Y-86545465D01*
X86989137Y-86559658D01*
X87022069Y-86622555D01*
X87024500Y-86647185D01*
X87024500Y-88248500D01*
X87004498Y-88316621D01*
X86950842Y-88363114D01*
X86898500Y-88374500D01*
X86818879Y-88374500D01*
X86750758Y-88354498D01*
X86704265Y-88300842D01*
X86693121Y-88256301D01*
X86690965Y-88221542D01*
X86690965Y-88221540D01*
X86690409Y-88212584D01*
X86687362Y-88204144D01*
X86686068Y-88197897D01*
X86684147Y-88190191D01*
X86682353Y-88184056D01*
X86681081Y-88175171D01*
X86674553Y-88160812D01*
X86662893Y-88135168D01*
X86659080Y-88125802D01*
X86647206Y-88092911D01*
X86644159Y-88084471D01*
X86638865Y-88077225D01*
X86635868Y-88071588D01*
X86631863Y-88064735D01*
X86628423Y-88059356D01*
X86624706Y-88051180D01*
X86596022Y-88017890D01*
X86589745Y-88009987D01*
X86582424Y-87999965D01*
X86572376Y-87989917D01*
X86566018Y-87983070D01*
X86541657Y-87954798D01*
X86535796Y-87947996D01*
X86528261Y-87943112D01*
X86521499Y-87937213D01*
X86521569Y-87937133D01*
X86511209Y-87928750D01*
X86193872Y-87611413D01*
X86186899Y-87602686D01*
X86186442Y-87603075D01*
X86180624Y-87596239D01*
X86175835Y-87588650D01*
X86138293Y-87555494D01*
X86132606Y-87550148D01*
X86122085Y-87539627D01*
X86114513Y-87533952D01*
X86106682Y-87527576D01*
X86091592Y-87514249D01*
X86073745Y-87498487D01*
X86065618Y-87494671D01*
X86060281Y-87491166D01*
X86053463Y-87487070D01*
X86047880Y-87484013D01*
X86040695Y-87478628D01*
X86032290Y-87475477D01*
X86032288Y-87475476D01*
X85999546Y-87463202D01*
X85990226Y-87459275D01*
X85977955Y-87453514D01*
X85950452Y-87440601D01*
X85941582Y-87439220D01*
X85935502Y-87437361D01*
X85927781Y-87435335D01*
X85921568Y-87433969D01*
X85913157Y-87430816D01*
X85886120Y-87428807D01*
X85869324Y-87427559D01*
X85859277Y-87426405D01*
X85851855Y-87425249D01*
X85851853Y-87425249D01*
X85847044Y-87424500D01*
X85832838Y-87424500D01*
X85823501Y-87424154D01*
X85809329Y-87423101D01*
X85777326Y-87420723D01*
X85768550Y-87422596D01*
X85759593Y-87423207D01*
X85759586Y-87423101D01*
X85746333Y-87424500D01*
X83382895Y-87424500D01*
X83314774Y-87404498D01*
X83296189Y-87388249D01*
X83295835Y-87388650D01*
X83258293Y-87355494D01*
X83252606Y-87350148D01*
X83242085Y-87339627D01*
X83234513Y-87333952D01*
X83226682Y-87327576D01*
X83200474Y-87304430D01*
X83200475Y-87304430D01*
X83193745Y-87298487D01*
X83185618Y-87294671D01*
X83180281Y-87291166D01*
X83173463Y-87287070D01*
X83167880Y-87284013D01*
X83160695Y-87278628D01*
X83152290Y-87275477D01*
X83152288Y-87275476D01*
X83119546Y-87263202D01*
X83110226Y-87259275D01*
X83100935Y-87254913D01*
X83070452Y-87240601D01*
X83061584Y-87239220D01*
X83052998Y-87236595D01*
X83053690Y-87234333D01*
X83001064Y-87209555D01*
X82995273Y-87204082D01*
X82908204Y-87116403D01*
X82903242Y-87111406D01*
X82761079Y-87021187D01*
X82602462Y-86964706D01*
X82595474Y-86963873D01*
X82595471Y-86963872D01*
X82502300Y-86952762D01*
X82435273Y-86944769D01*
X82428270Y-86945505D01*
X82428269Y-86945505D01*
X82382712Y-86950293D01*
X82267821Y-86962369D01*
X82261155Y-86964638D01*
X82261152Y-86964639D01*
X82115098Y-87014360D01*
X82115095Y-87014361D01*
X82108431Y-87016630D01*
X82102436Y-87020318D01*
X82102432Y-87020320D01*
X81971021Y-87101165D01*
X81971019Y-87101167D01*
X81965022Y-87104856D01*
X81929848Y-87139301D01*
X81859324Y-87208364D01*
X81844724Y-87222661D01*
X81753515Y-87364190D01*
X81751105Y-87370810D01*
X81751104Y-87370813D01*
X81731291Y-87425249D01*
X81695927Y-87522409D01*
X81674825Y-87689455D01*
X81675512Y-87696462D01*
X81675512Y-87696465D01*
X81680708Y-87749454D01*
X81691255Y-87857025D01*
X81744402Y-88016791D01*
X81748049Y-88022813D01*
X81748050Y-88022815D01*
X81824854Y-88149633D01*
X81831624Y-88160812D01*
X81836514Y-88165876D01*
X81840816Y-88171462D01*
X81838316Y-88173387D01*
X81864749Y-88224059D01*
X81858340Y-88294766D01*
X81814723Y-88350783D01*
X81741142Y-88374500D01*
X80306782Y-88374500D01*
X80302233Y-88375170D01*
X80302215Y-88375171D01*
X80251706Y-88382607D01*
X80181399Y-88372740D01*
X80127587Y-88326428D01*
X80107356Y-88258375D01*
X80115842Y-88212489D01*
X80129706Y-88176652D01*
X80169036Y-88074991D01*
X80170466Y-88068824D01*
X80220900Y-87851234D01*
X80231407Y-87805905D01*
X80255241Y-87530715D01*
X80254997Y-87526276D01*
X80240307Y-87259356D01*
X80240306Y-87259349D01*
X80240062Y-87254913D01*
X80186175Y-86984001D01*
X80094653Y-86723384D01*
X79967322Y-86478263D01*
X79964739Y-86474648D01*
X79964735Y-86474642D01*
X79809313Y-86257150D01*
X79809310Y-86257146D01*
X79806725Y-86253529D01*
X79625873Y-86063947D01*
X79619136Y-86056885D01*
X79619134Y-86056883D01*
X79616064Y-86053665D01*
X79601861Y-86042468D01*
X79402639Y-85885414D01*
X79402637Y-85885413D01*
X79399144Y-85882659D01*
X79286609Y-85817294D01*
X79164147Y-85746161D01*
X79164141Y-85746158D01*
X79160293Y-85743923D01*
X78945221Y-85656810D01*
X78908403Y-85641897D01*
X78908401Y-85641896D01*
X78904277Y-85640226D01*
X78899964Y-85639155D01*
X78899959Y-85639153D01*
X78640525Y-85574709D01*
X78640520Y-85574708D01*
X78636204Y-85573636D01*
X78631776Y-85573182D01*
X78631774Y-85573182D01*
X78551573Y-85564965D01*
X78400630Y-85549500D01*
X78229638Y-85549500D01*
X78024470Y-85564027D01*
X78020115Y-85564965D01*
X78020112Y-85564965D01*
X77758785Y-85621227D01*
X77758783Y-85621227D01*
X77754438Y-85622163D01*
X77495291Y-85717767D01*
X77491373Y-85719881D01*
X77442668Y-85746161D01*
X77252200Y-85848932D01*
X77030016Y-86013040D01*
X77026837Y-86016169D01*
X77026834Y-86016172D01*
X76933388Y-86108162D01*
X76833171Y-86206817D01*
X76665594Y-86426396D01*
X76663416Y-86430285D01*
X76538144Y-86653974D01*
X76530627Y-86667396D01*
X76529023Y-86671541D01*
X76529022Y-86671544D01*
X76499560Y-86747700D01*
X76430964Y-86925009D01*
X76429961Y-86929334D01*
X76429960Y-86929339D01*
X76421215Y-86967069D01*
X76368593Y-87194095D01*
X76344759Y-87469285D01*
X75152802Y-87469285D01*
X75171556Y-87183160D01*
X75173066Y-87170295D01*
X75225995Y-86858783D01*
X75228819Y-86846141D01*
X75277356Y-86671544D01*
X75313448Y-86541718D01*
X75317548Y-86529452D01*
X75432989Y-86235312D01*
X75438333Y-86223517D01*
X75445308Y-86210016D01*
X75583361Y-85942792D01*
X75589887Y-85931609D01*
X75590676Y-85930405D01*
X75762961Y-85667267D01*
X75770603Y-85656810D01*
X75797516Y-85623703D01*
X75969917Y-85411617D01*
X75978594Y-85402001D01*
X76202001Y-85178594D01*
X76211618Y-85169917D01*
X76456810Y-84970603D01*
X76467269Y-84962960D01*
X76731609Y-84789887D01*
X76742792Y-84783361D01*
X77023521Y-84638331D01*
X77035312Y-84632989D01*
X77329452Y-84517548D01*
X77341718Y-84513448D01*
X77512958Y-84465843D01*
X77646141Y-84428819D01*
X77658783Y-84425995D01*
X77970295Y-84373066D01*
X77983160Y-84371556D01*
X78270958Y-84352692D01*
X78291171Y-84353476D01*
X78295162Y-84353420D01*
X78304978Y-84354834D01*
X78319413Y-84352340D01*
X78340865Y-84350500D01*
X148259475Y-84350500D01*
X148280752Y-84352310D01*
G37*
%TD.AperFunction*%
%TD*%
M02*
