%TF.GenerationSoftware,KiCad,Pcbnew,6.0.11-2627ca5db0~126~ubuntu22.04.1*%
%TF.CreationDate,2024-02-02T16:35:15+01:00*%
%TF.ProjectId,GrooveBox,47726f6f-7665-4426-9f78-2e6b69636164,rev?*%
%TF.SameCoordinates,Original*%
%TF.FileFunction,Legend,Bot*%
%TF.FilePolarity,Positive*%
%FSLAX46Y46*%
G04 Gerber Fmt 4.6, Leading zero omitted, Abs format (unit mm)*
G04 Created by KiCad (PCBNEW 6.0.11-2627ca5db0~126~ubuntu22.04.1) date 2024-02-02 16:35:15*
%MOMM*%
%LPD*%
G01*
G04 APERTURE LIST*
%ADD10C,0.150000*%
%ADD11C,0.010000*%
%ADD12C,0.120000*%
G04 APERTURE END LIST*
D10*
X103611904Y-96152380D02*
X103611904Y-95152380D01*
X103278571Y-95866666D01*
X102945238Y-95152380D01*
X102945238Y-96152380D01*
X102326190Y-96152380D02*
X102421428Y-96104761D01*
X102469047Y-96057142D01*
X102516666Y-95961904D01*
X102516666Y-95676190D01*
X102469047Y-95580952D01*
X102421428Y-95533333D01*
X102326190Y-95485714D01*
X102183333Y-95485714D01*
X102088095Y-95533333D01*
X102040476Y-95580952D01*
X101992857Y-95676190D01*
X101992857Y-95961904D01*
X102040476Y-96057142D01*
X102088095Y-96104761D01*
X102183333Y-96152380D01*
X102326190Y-96152380D01*
X101659523Y-95485714D02*
X101135714Y-95485714D01*
X101659523Y-96152380D01*
X101135714Y-96152380D01*
X100850000Y-95485714D02*
X100326190Y-95485714D01*
X100850000Y-96152380D01*
X100326190Y-96152380D01*
X99945238Y-96152380D02*
X99945238Y-95485714D01*
X99945238Y-95152380D02*
X99992857Y-95200000D01*
X99945238Y-95247619D01*
X99897619Y-95200000D01*
X99945238Y-95152380D01*
X99945238Y-95247619D01*
X98230952Y-96152380D02*
X98707142Y-96152380D01*
X98707142Y-95152380D01*
X97897619Y-96152380D02*
X97897619Y-95485714D01*
X97897619Y-95152380D02*
X97945238Y-95200000D01*
X97897619Y-95247619D01*
X97850000Y-95200000D01*
X97897619Y-95152380D01*
X97897619Y-95247619D01*
X97421428Y-96152380D02*
X97421428Y-95152380D01*
X97421428Y-95533333D02*
X97326190Y-95485714D01*
X97135714Y-95485714D01*
X97040476Y-95533333D01*
X96992857Y-95580952D01*
X96945238Y-95676190D01*
X96945238Y-95961904D01*
X96992857Y-96057142D01*
X97040476Y-96104761D01*
X97135714Y-96152380D01*
X97326190Y-96152380D01*
X97421428Y-96104761D01*
X96516666Y-96152380D02*
X96516666Y-95485714D01*
X96516666Y-95676190D02*
X96469047Y-95580952D01*
X96421428Y-95533333D01*
X96326190Y-95485714D01*
X96230952Y-95485714D01*
X95469047Y-96152380D02*
X95469047Y-95628571D01*
X95516666Y-95533333D01*
X95611904Y-95485714D01*
X95802380Y-95485714D01*
X95897619Y-95533333D01*
X95469047Y-96104761D02*
X95564285Y-96152380D01*
X95802380Y-96152380D01*
X95897619Y-96104761D01*
X95945238Y-96009523D01*
X95945238Y-95914285D01*
X95897619Y-95819047D01*
X95802380Y-95771428D01*
X95564285Y-95771428D01*
X95469047Y-95723809D01*
X94992857Y-96152380D02*
X94992857Y-95485714D01*
X94992857Y-95676190D02*
X94945238Y-95580952D01*
X94897619Y-95533333D01*
X94802380Y-95485714D01*
X94707142Y-95485714D01*
X94469047Y-95485714D02*
X94230952Y-96152380D01*
X93992857Y-95485714D02*
X94230952Y-96152380D01*
X94326190Y-96390476D01*
X94373809Y-96438095D01*
X94469047Y-96485714D01*
X103945238Y-105016666D02*
X103469047Y-105016666D01*
X104040476Y-105302380D02*
X103707142Y-104302380D01*
X103373809Y-105302380D01*
X103040476Y-105302380D02*
X103040476Y-104635714D01*
X103040476Y-104826190D02*
X102992857Y-104730952D01*
X102945238Y-104683333D01*
X102850000Y-104635714D01*
X102754761Y-104635714D01*
X101992857Y-105302380D02*
X101992857Y-104302380D01*
X101992857Y-105254761D02*
X102088095Y-105302380D01*
X102278571Y-105302380D01*
X102373809Y-105254761D01*
X102421428Y-105207142D01*
X102469047Y-105111904D01*
X102469047Y-104826190D01*
X102421428Y-104730952D01*
X102373809Y-104683333D01*
X102278571Y-104635714D01*
X102088095Y-104635714D01*
X101992857Y-104683333D01*
X101088095Y-104635714D02*
X101088095Y-105302380D01*
X101516666Y-104635714D02*
X101516666Y-105159523D01*
X101469047Y-105254761D01*
X101373809Y-105302380D01*
X101230952Y-105302380D01*
X101135714Y-105254761D01*
X101088095Y-105207142D01*
X100611904Y-105302380D02*
X100611904Y-104635714D01*
X100611904Y-104302380D02*
X100659523Y-104350000D01*
X100611904Y-104397619D01*
X100564285Y-104350000D01*
X100611904Y-104302380D01*
X100611904Y-104397619D01*
X100135714Y-104635714D02*
X100135714Y-105302380D01*
X100135714Y-104730952D02*
X100088095Y-104683333D01*
X99992857Y-104635714D01*
X99850000Y-104635714D01*
X99754761Y-104683333D01*
X99707142Y-104778571D01*
X99707142Y-105302380D01*
X99088095Y-105302380D02*
X99183333Y-105254761D01*
X99230952Y-105207142D01*
X99278571Y-105111904D01*
X99278571Y-104826190D01*
X99230952Y-104730952D01*
X99183333Y-104683333D01*
X99088095Y-104635714D01*
X98945238Y-104635714D01*
X98850000Y-104683333D01*
X98802380Y-104730952D01*
X98754761Y-104826190D01*
X98754761Y-105111904D01*
X98802380Y-105207142D01*
X98850000Y-105254761D01*
X98945238Y-105302380D01*
X99088095Y-105302380D01*
X98326190Y-104921428D02*
X97564285Y-104921428D01*
X97088095Y-105302380D02*
X97088095Y-104302380D01*
X96516666Y-105302380D01*
X96516666Y-104302380D01*
X95611904Y-105302380D02*
X95611904Y-104778571D01*
X95659523Y-104683333D01*
X95754761Y-104635714D01*
X95945238Y-104635714D01*
X96040476Y-104683333D01*
X95611904Y-105254761D02*
X95707142Y-105302380D01*
X95945238Y-105302380D01*
X96040476Y-105254761D01*
X96088095Y-105159523D01*
X96088095Y-105064285D01*
X96040476Y-104969047D01*
X95945238Y-104921428D01*
X95707142Y-104921428D01*
X95611904Y-104873809D01*
X95135714Y-104635714D02*
X95135714Y-105302380D01*
X95135714Y-104730952D02*
X95088095Y-104683333D01*
X94992857Y-104635714D01*
X94850000Y-104635714D01*
X94754761Y-104683333D01*
X94707142Y-104778571D01*
X94707142Y-105302380D01*
X94088095Y-105302380D02*
X94183333Y-105254761D01*
X94230952Y-105207142D01*
X94278571Y-105111904D01*
X94278571Y-104826190D01*
X94230952Y-104730952D01*
X94183333Y-104683333D01*
X94088095Y-104635714D01*
X93945238Y-104635714D01*
X93850000Y-104683333D01*
X93802380Y-104730952D01*
X93754761Y-104826190D01*
X93754761Y-105111904D01*
X93802380Y-105207142D01*
X93850000Y-105254761D01*
X93945238Y-105302380D01*
X94088095Y-105302380D01*
X133080000Y-104140000D02*
X141100000Y-104140000D01*
X141100000Y-104140000D02*
X141100000Y-112100000D01*
X141100000Y-112100000D02*
X133080000Y-112100000D01*
X133080000Y-112100000D02*
X133080000Y-104140000D01*
%TO.C,A1*%
X119944285Y-89856666D02*
X119468095Y-89856666D01*
X120039523Y-90142380D02*
X119706190Y-89142380D01*
X119372857Y-90142380D01*
X118515714Y-90142380D02*
X119087142Y-90142380D01*
X118801428Y-90142380D02*
X118801428Y-89142380D01*
X118896666Y-89285238D01*
X118991904Y-89380476D01*
X119087142Y-89428095D01*
X81567619Y-102580952D02*
X80758095Y-102580952D01*
X80662857Y-102533333D01*
X80615238Y-102485714D01*
X80567619Y-102390476D01*
X80567619Y-102200000D01*
X80615238Y-102104761D01*
X80662857Y-102057142D01*
X80758095Y-102009523D01*
X81567619Y-102009523D01*
X80615238Y-101580952D02*
X80567619Y-101438095D01*
X80567619Y-101200000D01*
X80615238Y-101104761D01*
X80662857Y-101057142D01*
X80758095Y-101009523D01*
X80853333Y-101009523D01*
X80948571Y-101057142D01*
X80996190Y-101104761D01*
X81043809Y-101200000D01*
X81091428Y-101390476D01*
X81139047Y-101485714D01*
X81186666Y-101533333D01*
X81281904Y-101580952D01*
X81377142Y-101580952D01*
X81472380Y-101533333D01*
X81520000Y-101485714D01*
X81567619Y-101390476D01*
X81567619Y-101152380D01*
X81520000Y-101009523D01*
X81091428Y-100247619D02*
X81043809Y-100104761D01*
X80996190Y-100057142D01*
X80900952Y-100009523D01*
X80758095Y-100009523D01*
X80662857Y-100057142D01*
X80615238Y-100104761D01*
X80567619Y-100200000D01*
X80567619Y-100580952D01*
X81567619Y-100580952D01*
X81567619Y-100247619D01*
X81520000Y-100152380D01*
X81472380Y-100104761D01*
X81377142Y-100057142D01*
X81281904Y-100057142D01*
X81186666Y-100104761D01*
X81139047Y-100152380D01*
X81091428Y-100247619D01*
X81091428Y-100580952D01*
X80948571Y-99580952D02*
X80948571Y-98819047D01*
X80662857Y-97771428D02*
X80615238Y-97819047D01*
X80567619Y-97961904D01*
X80567619Y-98057142D01*
X80615238Y-98200000D01*
X80710476Y-98295238D01*
X80805714Y-98342857D01*
X80996190Y-98390476D01*
X81139047Y-98390476D01*
X81329523Y-98342857D01*
X81424761Y-98295238D01*
X81520000Y-98200000D01*
X81567619Y-98057142D01*
X81567619Y-97961904D01*
X81520000Y-97819047D01*
X81472380Y-97771428D01*
%TO.C,G\u002A\u002A\u002A*%
G36*
X137965626Y-105346952D02*
G01*
X137967833Y-105386791D01*
X137957882Y-105415087D01*
X137930867Y-105446133D01*
X137887962Y-105476187D01*
X137837678Y-105487202D01*
X137789529Y-105477970D01*
X137748609Y-105451874D01*
X137720012Y-105412297D01*
X137708832Y-105362620D01*
X137712178Y-105345967D01*
X137768180Y-105345967D01*
X137776756Y-105388236D01*
X137779239Y-105393617D01*
X137803915Y-105414288D01*
X137839673Y-105420831D01*
X137875538Y-105413030D01*
X137900533Y-105390668D01*
X137908903Y-105371260D01*
X137909204Y-105336903D01*
X137885353Y-105315287D01*
X137838375Y-105307778D01*
X137817449Y-105308712D01*
X137781252Y-105320101D01*
X137768180Y-105345967D01*
X137712178Y-105345967D01*
X137720162Y-105306226D01*
X137734278Y-105280171D01*
X137772250Y-105244728D01*
X137818693Y-105229136D01*
X137867420Y-105232406D01*
X137912243Y-105253547D01*
X137946976Y-105291569D01*
X137962494Y-105336903D01*
X137965430Y-105345481D01*
X137965626Y-105346952D01*
G37*
D11*
X137965626Y-105346952D02*
X137967833Y-105386791D01*
X137957882Y-105415087D01*
X137930867Y-105446133D01*
X137887962Y-105476187D01*
X137837678Y-105487202D01*
X137789529Y-105477970D01*
X137748609Y-105451874D01*
X137720012Y-105412297D01*
X137708832Y-105362620D01*
X137712178Y-105345967D01*
X137768180Y-105345967D01*
X137776756Y-105388236D01*
X137779239Y-105393617D01*
X137803915Y-105414288D01*
X137839673Y-105420831D01*
X137875538Y-105413030D01*
X137900533Y-105390668D01*
X137908903Y-105371260D01*
X137909204Y-105336903D01*
X137885353Y-105315287D01*
X137838375Y-105307778D01*
X137817449Y-105308712D01*
X137781252Y-105320101D01*
X137768180Y-105345967D01*
X137712178Y-105345967D01*
X137720162Y-105306226D01*
X137734278Y-105280171D01*
X137772250Y-105244728D01*
X137818693Y-105229136D01*
X137867420Y-105232406D01*
X137912243Y-105253547D01*
X137946976Y-105291569D01*
X137962494Y-105336903D01*
X137965430Y-105345481D01*
X137965626Y-105346952D01*
G36*
X136813902Y-105631444D02*
G01*
X136766601Y-105708472D01*
X136697684Y-105768074D01*
X136607403Y-105809958D01*
X136574973Y-105816214D01*
X136512808Y-105815453D01*
X136446331Y-105803483D01*
X136387571Y-105781843D01*
X136322070Y-105738010D01*
X136267833Y-105675987D01*
X136234138Y-105604862D01*
X136220158Y-105528771D01*
X136220481Y-105523714D01*
X136329261Y-105523714D01*
X136329521Y-105525519D01*
X136336303Y-105546174D01*
X136349406Y-105579325D01*
X136369550Y-105627537D01*
X136529319Y-105627537D01*
X136598958Y-105627183D01*
X136647824Y-105624846D01*
X136679073Y-105618621D01*
X136697860Y-105606603D01*
X136709338Y-105586888D01*
X136718663Y-105557572D01*
X136730495Y-105516317D01*
X136529878Y-105516317D01*
X136499433Y-105516402D01*
X136432332Y-105517256D01*
X136378337Y-105518880D01*
X136342347Y-105521093D01*
X136329261Y-105523714D01*
X136220481Y-105523714D01*
X136225067Y-105451845D01*
X136238896Y-105407519D01*
X136357067Y-105407519D01*
X136357293Y-105408104D01*
X136373505Y-105412356D01*
X136411609Y-105415818D01*
X136466369Y-105418146D01*
X136532544Y-105418999D01*
X136708022Y-105418999D01*
X136688017Y-105388868D01*
X136649655Y-105349289D01*
X136591066Y-105320202D01*
X136524652Y-105310503D01*
X136458765Y-105322607D01*
X136430227Y-105336829D01*
X136395206Y-105361433D01*
X136368008Y-105387344D01*
X136357067Y-105407519D01*
X136238896Y-105407519D01*
X136248038Y-105378218D01*
X136288246Y-105312024D01*
X136344863Y-105257397D01*
X136417064Y-105218469D01*
X136504022Y-105199374D01*
X136521652Y-105198306D01*
X136610965Y-105207183D01*
X136689254Y-105241444D01*
X136758140Y-105301739D01*
X136762636Y-105306945D01*
X136811729Y-105382700D01*
X136823221Y-105418999D01*
X136837524Y-105464178D01*
X136837891Y-105516317D01*
X136838095Y-105545513D01*
X136813902Y-105631444D01*
G37*
X136813902Y-105631444D02*
X136766601Y-105708472D01*
X136697684Y-105768074D01*
X136607403Y-105809958D01*
X136574973Y-105816214D01*
X136512808Y-105815453D01*
X136446331Y-105803483D01*
X136387571Y-105781843D01*
X136322070Y-105738010D01*
X136267833Y-105675987D01*
X136234138Y-105604862D01*
X136220158Y-105528771D01*
X136220481Y-105523714D01*
X136329261Y-105523714D01*
X136329521Y-105525519D01*
X136336303Y-105546174D01*
X136349406Y-105579325D01*
X136369550Y-105627537D01*
X136529319Y-105627537D01*
X136598958Y-105627183D01*
X136647824Y-105624846D01*
X136679073Y-105618621D01*
X136697860Y-105606603D01*
X136709338Y-105586888D01*
X136718663Y-105557572D01*
X136730495Y-105516317D01*
X136529878Y-105516317D01*
X136499433Y-105516402D01*
X136432332Y-105517256D01*
X136378337Y-105518880D01*
X136342347Y-105521093D01*
X136329261Y-105523714D01*
X136220481Y-105523714D01*
X136225067Y-105451845D01*
X136238896Y-105407519D01*
X136357067Y-105407519D01*
X136357293Y-105408104D01*
X136373505Y-105412356D01*
X136411609Y-105415818D01*
X136466369Y-105418146D01*
X136532544Y-105418999D01*
X136708022Y-105418999D01*
X136688017Y-105388868D01*
X136649655Y-105349289D01*
X136591066Y-105320202D01*
X136524652Y-105310503D01*
X136458765Y-105322607D01*
X136430227Y-105336829D01*
X136395206Y-105361433D01*
X136368008Y-105387344D01*
X136357067Y-105407519D01*
X136238896Y-105407519D01*
X136248038Y-105378218D01*
X136288246Y-105312024D01*
X136344863Y-105257397D01*
X136417064Y-105218469D01*
X136504022Y-105199374D01*
X136521652Y-105198306D01*
X136610965Y-105207183D01*
X136689254Y-105241444D01*
X136758140Y-105301739D01*
X136762636Y-105306945D01*
X136811729Y-105382700D01*
X136823221Y-105418999D01*
X136837524Y-105464178D01*
X136837891Y-105516317D01*
X136838095Y-105545513D01*
X136813902Y-105631444D01*
G36*
X137627215Y-106041089D02*
G01*
X137584235Y-106086307D01*
X137524469Y-106119918D01*
X137492321Y-106131446D01*
X137413307Y-106139869D01*
X137333785Y-106120548D01*
X137280815Y-106093330D01*
X137237133Y-106053450D01*
X137203465Y-105995955D01*
X137193359Y-105968768D01*
X137293021Y-105968768D01*
X137308276Y-105987128D01*
X137343801Y-106013334D01*
X137362126Y-106024303D01*
X137423022Y-106042583D01*
X137483175Y-106034796D01*
X137503513Y-106023667D01*
X137532350Y-106001042D01*
X137556479Y-105976583D01*
X137566590Y-105958776D01*
X137560297Y-105955381D01*
X137531611Y-105951210D01*
X137485028Y-105948355D01*
X137426406Y-105947296D01*
X137385336Y-105947605D01*
X137329906Y-105950322D01*
X137299683Y-105956938D01*
X137293021Y-105968768D01*
X137193359Y-105968768D01*
X137188445Y-105955548D01*
X137178282Y-105877024D01*
X137185133Y-105839303D01*
X137283595Y-105839303D01*
X137292889Y-105845228D01*
X137316955Y-105848425D01*
X137360136Y-105849729D01*
X137426777Y-105849978D01*
X137579897Y-105849978D01*
X137563586Y-105814179D01*
X137531596Y-105772448D01*
X137484689Y-105747582D01*
X137430113Y-105740452D01*
X137374628Y-105750835D01*
X137324991Y-105778509D01*
X137287962Y-105823251D01*
X137284727Y-105829813D01*
X137283595Y-105839303D01*
X137185133Y-105839303D01*
X137191656Y-105803383D01*
X137225919Y-105738816D01*
X137278424Y-105687511D01*
X137346521Y-105653656D01*
X137427565Y-105641440D01*
X137491206Y-105647353D01*
X137553727Y-105672147D01*
X137610889Y-105720138D01*
X137648139Y-105771353D01*
X137674255Y-105845473D01*
X137674337Y-105849978D01*
X137675673Y-105923775D01*
X137664564Y-105958776D01*
X137651485Y-105999985D01*
X137627215Y-106041089D01*
G37*
X137627215Y-106041089D02*
X137584235Y-106086307D01*
X137524469Y-106119918D01*
X137492321Y-106131446D01*
X137413307Y-106139869D01*
X137333785Y-106120548D01*
X137280815Y-106093330D01*
X137237133Y-106053450D01*
X137203465Y-105995955D01*
X137193359Y-105968768D01*
X137293021Y-105968768D01*
X137308276Y-105987128D01*
X137343801Y-106013334D01*
X137362126Y-106024303D01*
X137423022Y-106042583D01*
X137483175Y-106034796D01*
X137503513Y-106023667D01*
X137532350Y-106001042D01*
X137556479Y-105976583D01*
X137566590Y-105958776D01*
X137560297Y-105955381D01*
X137531611Y-105951210D01*
X137485028Y-105948355D01*
X137426406Y-105947296D01*
X137385336Y-105947605D01*
X137329906Y-105950322D01*
X137299683Y-105956938D01*
X137293021Y-105968768D01*
X137193359Y-105968768D01*
X137188445Y-105955548D01*
X137178282Y-105877024D01*
X137185133Y-105839303D01*
X137283595Y-105839303D01*
X137292889Y-105845228D01*
X137316955Y-105848425D01*
X137360136Y-105849729D01*
X137426777Y-105849978D01*
X137579897Y-105849978D01*
X137563586Y-105814179D01*
X137531596Y-105772448D01*
X137484689Y-105747582D01*
X137430113Y-105740452D01*
X137374628Y-105750835D01*
X137324991Y-105778509D01*
X137287962Y-105823251D01*
X137284727Y-105829813D01*
X137283595Y-105839303D01*
X137185133Y-105839303D01*
X137191656Y-105803383D01*
X137225919Y-105738816D01*
X137278424Y-105687511D01*
X137346521Y-105653656D01*
X137427565Y-105641440D01*
X137491206Y-105647353D01*
X137553727Y-105672147D01*
X137610889Y-105720138D01*
X137648139Y-105771353D01*
X137674255Y-105845473D01*
X137674337Y-105849978D01*
X137675673Y-105923775D01*
X137664564Y-105958776D01*
X137651485Y-105999985D01*
X137627215Y-106041089D01*
G36*
X138001896Y-108095244D02*
G01*
X138073085Y-108220367D01*
X138195686Y-108435857D01*
X138308400Y-108633969D01*
X138435889Y-108858051D01*
X138559533Y-109075375D01*
X138561452Y-109078749D01*
X138678821Y-109285040D01*
X138804736Y-109506355D01*
X138931292Y-109728796D01*
X139046251Y-109930855D01*
X139121008Y-110062253D01*
X139109779Y-110149349D01*
X139108896Y-110156198D01*
X139102902Y-110205047D01*
X139098269Y-110247570D01*
X139097885Y-110252383D01*
X139096328Y-110271961D01*
X139088921Y-110292394D01*
X139068694Y-110327653D01*
X139040211Y-110369279D01*
X139008258Y-110409586D01*
X138977421Y-110437953D01*
X138939165Y-110459808D01*
X138883807Y-110482139D01*
X138874155Y-110485696D01*
X138825590Y-110502918D01*
X138788111Y-110515123D01*
X138769163Y-110519860D01*
X138767453Y-110519890D01*
X138724665Y-110515619D01*
X138669733Y-110504044D01*
X138612581Y-110487941D01*
X138563128Y-110470089D01*
X138531298Y-110453265D01*
X138510480Y-110435573D01*
X138469829Y-110398909D01*
X138413025Y-110346474D01*
X138342077Y-110280195D01*
X138311473Y-110251390D01*
X138650991Y-110251390D01*
X138659842Y-110264474D01*
X138682272Y-110285684D01*
X138707621Y-110303358D01*
X138727455Y-110310784D01*
X138758037Y-110304706D01*
X138799500Y-110291219D01*
X138838102Y-110274954D01*
X138861732Y-110260452D01*
X138865400Y-110252383D01*
X138853448Y-110246830D01*
X138821229Y-110243989D01*
X138764992Y-110243191D01*
X138746854Y-110243296D01*
X138697929Y-110244770D01*
X138663809Y-110247624D01*
X138650991Y-110251390D01*
X138311473Y-110251390D01*
X138258995Y-110201998D01*
X138165786Y-110113808D01*
X138097971Y-110049385D01*
X138421599Y-110049385D01*
X138484160Y-110104166D01*
X138546722Y-110158946D01*
X138737882Y-110159361D01*
X138760166Y-110159338D01*
X138826516Y-110158357D01*
X138880115Y-110156190D01*
X138915945Y-110153099D01*
X138928991Y-110149349D01*
X138928614Y-110147046D01*
X138919292Y-110125593D01*
X138901390Y-110093739D01*
X138873841Y-110048555D01*
X138421599Y-110049385D01*
X138097971Y-110049385D01*
X138064460Y-110017550D01*
X137957025Y-109915151D01*
X137863879Y-109826114D01*
X138186563Y-109826114D01*
X138240865Y-109881724D01*
X138295167Y-109937335D01*
X138549543Y-109937335D01*
X138627895Y-109937018D01*
X138698379Y-109936102D01*
X138754112Y-109934695D01*
X138790742Y-109932909D01*
X138803919Y-109930855D01*
X138803482Y-109928691D01*
X138795447Y-109908111D01*
X138780491Y-109875245D01*
X138757062Y-109826114D01*
X138186563Y-109826114D01*
X137863879Y-109826114D01*
X137845489Y-109808535D01*
X137731863Y-109699628D01*
X137647202Y-109618271D01*
X137962814Y-109618271D01*
X138021361Y-109673533D01*
X138079909Y-109728796D01*
X138693264Y-109728796D01*
X138664894Y-109673186D01*
X138636523Y-109617576D01*
X138299669Y-109617923D01*
X137962814Y-109618271D01*
X137647202Y-109618271D01*
X137618154Y-109590357D01*
X137506371Y-109482646D01*
X137415817Y-109395134D01*
X137715943Y-109395134D01*
X137776817Y-109450174D01*
X137837691Y-109505215D01*
X138568141Y-109506355D01*
X138539770Y-109450745D01*
X138511400Y-109395134D01*
X137715943Y-109395134D01*
X137415817Y-109395134D01*
X137398523Y-109378421D01*
X137296618Y-109279608D01*
X137202666Y-109188132D01*
X137202307Y-109187781D01*
X137490126Y-109187781D01*
X137552688Y-109242761D01*
X137615249Y-109297741D01*
X138028851Y-109297779D01*
X138038641Y-109297777D01*
X138150843Y-109297304D01*
X138248664Y-109296062D01*
X138329420Y-109294131D01*
X138390426Y-109291596D01*
X138428998Y-109288538D01*
X138442452Y-109285040D01*
X138442331Y-109283553D01*
X138434477Y-109261590D01*
X138418123Y-109229518D01*
X138393793Y-109186772D01*
X137941960Y-109187276D01*
X137490126Y-109187781D01*
X137202307Y-109187781D01*
X137118675Y-109105919D01*
X137046653Y-109034894D01*
X136988610Y-108976984D01*
X136976025Y-108964155D01*
X137255091Y-108964155D01*
X137363695Y-109075375D01*
X138332062Y-109075375D01*
X138268670Y-108964369D01*
X137761881Y-108964262D01*
X137255091Y-108964155D01*
X136976025Y-108964155D01*
X136946554Y-108934113D01*
X136925570Y-108910568D01*
X136888204Y-108866376D01*
X136836670Y-108804139D01*
X136796948Y-108755616D01*
X137032650Y-108755616D01*
X137086952Y-108811226D01*
X137141254Y-108866837D01*
X137673681Y-108866837D01*
X137696824Y-108866828D01*
X137813895Y-108866525D01*
X137921206Y-108865823D01*
X138015751Y-108864770D01*
X138094521Y-108863417D01*
X138154509Y-108861813D01*
X138192707Y-108860008D01*
X138206109Y-108858051D01*
X138205549Y-108855425D01*
X138195607Y-108834300D01*
X138177170Y-108802440D01*
X138148231Y-108755616D01*
X137032650Y-108755616D01*
X136796948Y-108755616D01*
X136772533Y-108725791D01*
X136697362Y-108633266D01*
X136622716Y-108540869D01*
X136871462Y-108540869D01*
X136872908Y-108544774D01*
X136886475Y-108565787D01*
X136909694Y-108596479D01*
X136947926Y-108644395D01*
X137514456Y-108644395D01*
X137566455Y-108644351D01*
X137685467Y-108643907D01*
X137794167Y-108643027D01*
X137889638Y-108641764D01*
X137968965Y-108640174D01*
X138029234Y-108638309D01*
X138067529Y-108636222D01*
X138080934Y-108633969D01*
X138080557Y-108631665D01*
X138071235Y-108610213D01*
X138053333Y-108578358D01*
X138025784Y-108533175D01*
X137448623Y-108533175D01*
X137387545Y-108533218D01*
X137267957Y-108533563D01*
X137158842Y-108534222D01*
X137063089Y-108535156D01*
X136983585Y-108536326D01*
X136923220Y-108537693D01*
X136884883Y-108539221D01*
X136871462Y-108540869D01*
X136622716Y-108540869D01*
X136612724Y-108528501D01*
X136520185Y-108413430D01*
X136466455Y-108346347D01*
X136722589Y-108346347D01*
X136724299Y-108356517D01*
X136733451Y-108369400D01*
X136747895Y-108385314D01*
X136765480Y-108404576D01*
X136792893Y-108435857D01*
X137970330Y-108435857D01*
X137941960Y-108380247D01*
X137913590Y-108324636D01*
X137307408Y-108324636D01*
X137234866Y-108324610D01*
X137099627Y-108324491D01*
X136989033Y-108324548D01*
X136900933Y-108325098D01*
X136833178Y-108326458D01*
X136783616Y-108328946D01*
X136750097Y-108332879D01*
X136730472Y-108338573D01*
X136722589Y-108346347D01*
X136466455Y-108346347D01*
X136421314Y-108289988D01*
X136317676Y-108160110D01*
X136275010Y-108106445D01*
X136537800Y-108106445D01*
X136539008Y-108109183D01*
X136551484Y-108128351D01*
X136573119Y-108158580D01*
X136608438Y-108206464D01*
X137231583Y-108213416D01*
X137854729Y-108220367D01*
X137757877Y-108102195D01*
X137147838Y-108102195D01*
X137058396Y-108102241D01*
X136937138Y-108102458D01*
X136826826Y-108102835D01*
X136730269Y-108103354D01*
X136650279Y-108103994D01*
X136589664Y-108104735D01*
X136551234Y-108105559D01*
X136537800Y-108106445D01*
X136275010Y-108106445D01*
X136210839Y-108025731D01*
X136203495Y-108016477D01*
X136106021Y-107893657D01*
X136368633Y-107893657D01*
X136456721Y-108004877D01*
X137067266Y-108004877D01*
X137157150Y-108004793D01*
X137278432Y-108004400D01*
X137388762Y-108003716D01*
X137485330Y-108002778D01*
X137565327Y-108001620D01*
X137625946Y-108000278D01*
X137664377Y-107998787D01*
X137677811Y-107997183D01*
X137676365Y-107993278D01*
X137662798Y-107972265D01*
X137639579Y-107941573D01*
X137601347Y-107893657D01*
X136368633Y-107893657D01*
X136106021Y-107893657D01*
X136099159Y-107885011D01*
X135999889Y-107759943D01*
X135907041Y-107642984D01*
X135821972Y-107535842D01*
X135746042Y-107440227D01*
X135680606Y-107357847D01*
X135627022Y-107290412D01*
X135586649Y-107239632D01*
X135560842Y-107207215D01*
X135550961Y-107194870D01*
X135548845Y-107194403D01*
X135526913Y-107200049D01*
X135484798Y-107215346D01*
X135426347Y-107238769D01*
X135355406Y-107268794D01*
X135275822Y-107303898D01*
X135009633Y-107423534D01*
X134912632Y-107343735D01*
X134896847Y-107330650D01*
X134854327Y-107293153D01*
X134828220Y-107264106D01*
X134813774Y-107237393D01*
X134806236Y-107206902D01*
X134796477Y-107170736D01*
X134775792Y-107117961D01*
X134749753Y-107065123D01*
X134702667Y-106980377D01*
X134715417Y-106857858D01*
X134876479Y-106857858D01*
X134880267Y-106886162D01*
X134905629Y-106904674D01*
X134914124Y-106908323D01*
X134964411Y-106919708D01*
X135002827Y-106909837D01*
X135005324Y-106905977D01*
X135012121Y-106878856D01*
X135019364Y-106830266D01*
X135026453Y-106764690D01*
X135032785Y-106686614D01*
X135035715Y-106645718D01*
X135041086Y-106576909D01*
X135046014Y-106521162D01*
X135050050Y-106483373D01*
X135052747Y-106468437D01*
X135053106Y-106468240D01*
X135070628Y-106467948D01*
X135109793Y-106470327D01*
X135165169Y-106474981D01*
X135231328Y-106481511D01*
X135237805Y-106482186D01*
X135303706Y-106488266D01*
X135358784Y-106491984D01*
X135397442Y-106493043D01*
X135414082Y-106491149D01*
X135418220Y-106484050D01*
X135431779Y-106454586D01*
X135452297Y-106406719D01*
X135477835Y-106345006D01*
X135506453Y-106274007D01*
X135589482Y-106065468D01*
X135582073Y-105882958D01*
X135574665Y-105700447D01*
X135402006Y-105660839D01*
X135394395Y-105659088D01*
X135328851Y-105643601D01*
X135273617Y-105629849D01*
X135234303Y-105619270D01*
X135216518Y-105613302D01*
X135216309Y-105600040D01*
X135223804Y-105564400D01*
X135238163Y-105510816D01*
X135258222Y-105443602D01*
X135282822Y-105367073D01*
X135287878Y-105351843D01*
X135314537Y-105270944D01*
X135333279Y-105211746D01*
X135344915Y-105170233D01*
X135350255Y-105142392D01*
X135350110Y-105124210D01*
X135345290Y-105111671D01*
X135336606Y-105100763D01*
X135334642Y-105098640D01*
X135306220Y-105080265D01*
X135267632Y-105081042D01*
X135265571Y-105081435D01*
X135235224Y-105087688D01*
X135221025Y-105091474D01*
X135219581Y-105095748D01*
X135212009Y-105122635D01*
X135198783Y-105171453D01*
X135180759Y-105238986D01*
X135158794Y-105322019D01*
X135133743Y-105417336D01*
X135106463Y-105521721D01*
X135076500Y-105637284D01*
X135050184Y-105741202D01*
X135028836Y-105829956D01*
X135011281Y-105909599D01*
X134996344Y-105986185D01*
X134982850Y-106065766D01*
X134969623Y-106154396D01*
X134955489Y-106258128D01*
X134939273Y-106383016D01*
X134932906Y-106432530D01*
X134919292Y-106537819D01*
X134906771Y-106633890D01*
X134895827Y-106717070D01*
X134886945Y-106783687D01*
X134880609Y-106830067D01*
X134877305Y-106852539D01*
X134876479Y-106857858D01*
X134715417Y-106857858D01*
X134757863Y-106449970D01*
X134813060Y-105919563D01*
X134968091Y-105386006D01*
X135123123Y-104852448D01*
X135222224Y-104838737D01*
X135242809Y-104835952D01*
X135289433Y-104831346D01*
X135323430Y-104833386D01*
X135355861Y-104843642D01*
X135397789Y-104863687D01*
X135401685Y-104865709D01*
X135450835Y-104896922D01*
X135505937Y-104939707D01*
X135555785Y-104985427D01*
X135637316Y-105068506D01*
X135627191Y-105196435D01*
X135617066Y-105324363D01*
X135557884Y-105315488D01*
X135498701Y-105306613D01*
X135483002Y-105368962D01*
X135478506Y-105387387D01*
X135470481Y-105424099D01*
X135467302Y-105444892D01*
X135470328Y-105451518D01*
X135493382Y-105466222D01*
X135532652Y-105480372D01*
X135580374Y-105491901D01*
X135628785Y-105498745D01*
X135670122Y-105498840D01*
X135682539Y-105497534D01*
X135717460Y-105497467D01*
X135741022Y-105509226D01*
X135765887Y-105537987D01*
X135771603Y-105545564D01*
X135782354Y-105561753D01*
X135790096Y-105579656D01*
X135795324Y-105603620D01*
X135798532Y-105637996D01*
X135800212Y-105687131D01*
X135800858Y-105755374D01*
X135800964Y-105847074D01*
X135800964Y-106110173D01*
X135698218Y-106399957D01*
X135671696Y-106474519D01*
X135643708Y-106551731D01*
X135621715Y-106609216D01*
X135603936Y-106650679D01*
X135588591Y-106679824D01*
X135573898Y-106700356D01*
X135558076Y-106715980D01*
X135539345Y-106730401D01*
X135483217Y-106771060D01*
X135437027Y-106743059D01*
X135410468Y-106731925D01*
X135367724Y-106720424D01*
X135317091Y-106710394D01*
X135265553Y-106702847D01*
X135220095Y-106698791D01*
X135187699Y-106699238D01*
X135175348Y-106705197D01*
X135175306Y-106705966D01*
X135172591Y-106725869D01*
X135166260Y-106766943D01*
X135157177Y-106823685D01*
X135146206Y-106890593D01*
X135135321Y-106953001D01*
X135121662Y-107016656D01*
X135107599Y-107059424D01*
X135091243Y-107085207D01*
X135070704Y-107097906D01*
X135044092Y-107101423D01*
X135004279Y-107107968D01*
X134988576Y-107127628D01*
X134996135Y-107161556D01*
X135002024Y-107174091D01*
X135016093Y-107194151D01*
X135033886Y-107193694D01*
X135064510Y-107174436D01*
X135095008Y-107159135D01*
X135124526Y-107154679D01*
X135145444Y-107150826D01*
X135182447Y-107134441D01*
X135225320Y-107109116D01*
X135267607Y-107078288D01*
X135292931Y-107051111D01*
X135300315Y-107026846D01*
X135723858Y-107026846D01*
X135727326Y-107048706D01*
X135747795Y-107075087D01*
X135796840Y-107138560D01*
X135852893Y-107211380D01*
X135913560Y-107290408D01*
X135976443Y-107372506D01*
X136039148Y-107454535D01*
X136099279Y-107533355D01*
X136154439Y-107605828D01*
X136202234Y-107668814D01*
X136240266Y-107719176D01*
X136266140Y-107753773D01*
X136277461Y-107769468D01*
X136277617Y-107769716D01*
X136282646Y-107776118D01*
X136290578Y-107781403D01*
X136303901Y-107785678D01*
X136325106Y-107789050D01*
X136356683Y-107791625D01*
X136401124Y-107793511D01*
X136460917Y-107794814D01*
X136538555Y-107795641D01*
X136636526Y-107796100D01*
X136757321Y-107796297D01*
X136903432Y-107796339D01*
X137028351Y-107796242D01*
X137158212Y-107795825D01*
X137263899Y-107795027D01*
X137347412Y-107793788D01*
X137410753Y-107792051D01*
X137455921Y-107789758D01*
X137484918Y-107786851D01*
X137499744Y-107783271D01*
X137502401Y-107778960D01*
X137499450Y-107774804D01*
X137481868Y-107751220D01*
X137450155Y-107709138D01*
X137406119Y-107650933D01*
X137351568Y-107578981D01*
X137288311Y-107495656D01*
X137218156Y-107403333D01*
X137142913Y-107304388D01*
X137064389Y-107201195D01*
X136984393Y-107096130D01*
X136904735Y-106991568D01*
X136827222Y-106889884D01*
X136753663Y-106793452D01*
X136685867Y-106704648D01*
X136625643Y-106625848D01*
X136574798Y-106559425D01*
X136535142Y-106507755D01*
X136508483Y-106473214D01*
X136496629Y-106458175D01*
X136481637Y-106457257D01*
X136448061Y-106465219D01*
X136403808Y-106480573D01*
X136386685Y-106487254D01*
X136347104Y-106501399D01*
X136321064Y-106505906D01*
X136299280Y-106501311D01*
X136272470Y-106488147D01*
X136249799Y-106476765D01*
X136211281Y-106464747D01*
X136179786Y-106470977D01*
X136145208Y-106496086D01*
X136141853Y-106499068D01*
X136119770Y-106523384D01*
X136112290Y-106549557D01*
X136115433Y-106590158D01*
X136118156Y-106611645D01*
X136117996Y-106636757D01*
X136108509Y-106656772D01*
X136085403Y-106678967D01*
X136044386Y-106710622D01*
X135965040Y-106770529D01*
X135911088Y-106746200D01*
X135890845Y-106737283D01*
X135863314Y-106729306D01*
X135840350Y-106734861D01*
X135808291Y-106755137D01*
X135790128Y-106768050D01*
X135766011Y-106792375D01*
X135761574Y-106819019D01*
X135773313Y-106858321D01*
X135774749Y-106862274D01*
X135779226Y-106889086D01*
X135771820Y-106919522D01*
X135750450Y-106963126D01*
X135737262Y-106988923D01*
X135723858Y-107026846D01*
X135300315Y-107026846D01*
X135300471Y-107026334D01*
X135305334Y-107013204D01*
X135330085Y-106981407D01*
X135373586Y-106936965D01*
X135433361Y-106881796D01*
X135506935Y-106817820D01*
X135591832Y-106746955D01*
X135685579Y-106671120D01*
X135785699Y-106592234D01*
X135889718Y-106512215D01*
X135995160Y-106432984D01*
X136099551Y-106356458D01*
X136200415Y-106284556D01*
X136295277Y-106219198D01*
X136381663Y-106162301D01*
X136457096Y-106115786D01*
X136519103Y-106081570D01*
X136590772Y-106045483D01*
X136638258Y-106104134D01*
X136669725Y-106143730D01*
X136690243Y-106174932D01*
X136696362Y-106199019D01*
X136689786Y-106223637D01*
X136672222Y-106256434D01*
X136638413Y-106315715D01*
X137320155Y-107205479D01*
X137759559Y-107778960D01*
X137926762Y-107997183D01*
X138001896Y-108095244D01*
G37*
X138001896Y-108095244D02*
X138073085Y-108220367D01*
X138195686Y-108435857D01*
X138308400Y-108633969D01*
X138435889Y-108858051D01*
X138559533Y-109075375D01*
X138561452Y-109078749D01*
X138678821Y-109285040D01*
X138804736Y-109506355D01*
X138931292Y-109728796D01*
X139046251Y-109930855D01*
X139121008Y-110062253D01*
X139109779Y-110149349D01*
X139108896Y-110156198D01*
X139102902Y-110205047D01*
X139098269Y-110247570D01*
X139097885Y-110252383D01*
X139096328Y-110271961D01*
X139088921Y-110292394D01*
X139068694Y-110327653D01*
X139040211Y-110369279D01*
X139008258Y-110409586D01*
X138977421Y-110437953D01*
X138939165Y-110459808D01*
X138883807Y-110482139D01*
X138874155Y-110485696D01*
X138825590Y-110502918D01*
X138788111Y-110515123D01*
X138769163Y-110519860D01*
X138767453Y-110519890D01*
X138724665Y-110515619D01*
X138669733Y-110504044D01*
X138612581Y-110487941D01*
X138563128Y-110470089D01*
X138531298Y-110453265D01*
X138510480Y-110435573D01*
X138469829Y-110398909D01*
X138413025Y-110346474D01*
X138342077Y-110280195D01*
X138311473Y-110251390D01*
X138650991Y-110251390D01*
X138659842Y-110264474D01*
X138682272Y-110285684D01*
X138707621Y-110303358D01*
X138727455Y-110310784D01*
X138758037Y-110304706D01*
X138799500Y-110291219D01*
X138838102Y-110274954D01*
X138861732Y-110260452D01*
X138865400Y-110252383D01*
X138853448Y-110246830D01*
X138821229Y-110243989D01*
X138764992Y-110243191D01*
X138746854Y-110243296D01*
X138697929Y-110244770D01*
X138663809Y-110247624D01*
X138650991Y-110251390D01*
X138311473Y-110251390D01*
X138258995Y-110201998D01*
X138165786Y-110113808D01*
X138097971Y-110049385D01*
X138421599Y-110049385D01*
X138484160Y-110104166D01*
X138546722Y-110158946D01*
X138737882Y-110159361D01*
X138760166Y-110159338D01*
X138826516Y-110158357D01*
X138880115Y-110156190D01*
X138915945Y-110153099D01*
X138928991Y-110149349D01*
X138928614Y-110147046D01*
X138919292Y-110125593D01*
X138901390Y-110093739D01*
X138873841Y-110048555D01*
X138421599Y-110049385D01*
X138097971Y-110049385D01*
X138064460Y-110017550D01*
X137957025Y-109915151D01*
X137863879Y-109826114D01*
X138186563Y-109826114D01*
X138240865Y-109881724D01*
X138295167Y-109937335D01*
X138549543Y-109937335D01*
X138627895Y-109937018D01*
X138698379Y-109936102D01*
X138754112Y-109934695D01*
X138790742Y-109932909D01*
X138803919Y-109930855D01*
X138803482Y-109928691D01*
X138795447Y-109908111D01*
X138780491Y-109875245D01*
X138757062Y-109826114D01*
X138186563Y-109826114D01*
X137863879Y-109826114D01*
X137845489Y-109808535D01*
X137731863Y-109699628D01*
X137647202Y-109618271D01*
X137962814Y-109618271D01*
X138021361Y-109673533D01*
X138079909Y-109728796D01*
X138693264Y-109728796D01*
X138664894Y-109673186D01*
X138636523Y-109617576D01*
X138299669Y-109617923D01*
X137962814Y-109618271D01*
X137647202Y-109618271D01*
X137618154Y-109590357D01*
X137506371Y-109482646D01*
X137415817Y-109395134D01*
X137715943Y-109395134D01*
X137776817Y-109450174D01*
X137837691Y-109505215D01*
X138568141Y-109506355D01*
X138539770Y-109450745D01*
X138511400Y-109395134D01*
X137715943Y-109395134D01*
X137415817Y-109395134D01*
X137398523Y-109378421D01*
X137296618Y-109279608D01*
X137202666Y-109188132D01*
X137202307Y-109187781D01*
X137490126Y-109187781D01*
X137552688Y-109242761D01*
X137615249Y-109297741D01*
X138028851Y-109297779D01*
X138038641Y-109297777D01*
X138150843Y-109297304D01*
X138248664Y-109296062D01*
X138329420Y-109294131D01*
X138390426Y-109291596D01*
X138428998Y-109288538D01*
X138442452Y-109285040D01*
X138442331Y-109283553D01*
X138434477Y-109261590D01*
X138418123Y-109229518D01*
X138393793Y-109186772D01*
X137941960Y-109187276D01*
X137490126Y-109187781D01*
X137202307Y-109187781D01*
X137118675Y-109105919D01*
X137046653Y-109034894D01*
X136988610Y-108976984D01*
X136976025Y-108964155D01*
X137255091Y-108964155D01*
X137363695Y-109075375D01*
X138332062Y-109075375D01*
X138268670Y-108964369D01*
X137761881Y-108964262D01*
X137255091Y-108964155D01*
X136976025Y-108964155D01*
X136946554Y-108934113D01*
X136925570Y-108910568D01*
X136888204Y-108866376D01*
X136836670Y-108804139D01*
X136796948Y-108755616D01*
X137032650Y-108755616D01*
X137086952Y-108811226D01*
X137141254Y-108866837D01*
X137673681Y-108866837D01*
X137696824Y-108866828D01*
X137813895Y-108866525D01*
X137921206Y-108865823D01*
X138015751Y-108864770D01*
X138094521Y-108863417D01*
X138154509Y-108861813D01*
X138192707Y-108860008D01*
X138206109Y-108858051D01*
X138205549Y-108855425D01*
X138195607Y-108834300D01*
X138177170Y-108802440D01*
X138148231Y-108755616D01*
X137032650Y-108755616D01*
X136796948Y-108755616D01*
X136772533Y-108725791D01*
X136697362Y-108633266D01*
X136622716Y-108540869D01*
X136871462Y-108540869D01*
X136872908Y-108544774D01*
X136886475Y-108565787D01*
X136909694Y-108596479D01*
X136947926Y-108644395D01*
X137514456Y-108644395D01*
X137566455Y-108644351D01*
X137685467Y-108643907D01*
X137794167Y-108643027D01*
X137889638Y-108641764D01*
X137968965Y-108640174D01*
X138029234Y-108638309D01*
X138067529Y-108636222D01*
X138080934Y-108633969D01*
X138080557Y-108631665D01*
X138071235Y-108610213D01*
X138053333Y-108578358D01*
X138025784Y-108533175D01*
X137448623Y-108533175D01*
X137387545Y-108533218D01*
X137267957Y-108533563D01*
X137158842Y-108534222D01*
X137063089Y-108535156D01*
X136983585Y-108536326D01*
X136923220Y-108537693D01*
X136884883Y-108539221D01*
X136871462Y-108540869D01*
X136622716Y-108540869D01*
X136612724Y-108528501D01*
X136520185Y-108413430D01*
X136466455Y-108346347D01*
X136722589Y-108346347D01*
X136724299Y-108356517D01*
X136733451Y-108369400D01*
X136747895Y-108385314D01*
X136765480Y-108404576D01*
X136792893Y-108435857D01*
X137970330Y-108435857D01*
X137941960Y-108380247D01*
X137913590Y-108324636D01*
X137307408Y-108324636D01*
X137234866Y-108324610D01*
X137099627Y-108324491D01*
X136989033Y-108324548D01*
X136900933Y-108325098D01*
X136833178Y-108326458D01*
X136783616Y-108328946D01*
X136750097Y-108332879D01*
X136730472Y-108338573D01*
X136722589Y-108346347D01*
X136466455Y-108346347D01*
X136421314Y-108289988D01*
X136317676Y-108160110D01*
X136275010Y-108106445D01*
X136537800Y-108106445D01*
X136539008Y-108109183D01*
X136551484Y-108128351D01*
X136573119Y-108158580D01*
X136608438Y-108206464D01*
X137231583Y-108213416D01*
X137854729Y-108220367D01*
X137757877Y-108102195D01*
X137147838Y-108102195D01*
X137058396Y-108102241D01*
X136937138Y-108102458D01*
X136826826Y-108102835D01*
X136730269Y-108103354D01*
X136650279Y-108103994D01*
X136589664Y-108104735D01*
X136551234Y-108105559D01*
X136537800Y-108106445D01*
X136275010Y-108106445D01*
X136210839Y-108025731D01*
X136203495Y-108016477D01*
X136106021Y-107893657D01*
X136368633Y-107893657D01*
X136456721Y-108004877D01*
X137067266Y-108004877D01*
X137157150Y-108004793D01*
X137278432Y-108004400D01*
X137388762Y-108003716D01*
X137485330Y-108002778D01*
X137565327Y-108001620D01*
X137625946Y-108000278D01*
X137664377Y-107998787D01*
X137677811Y-107997183D01*
X137676365Y-107993278D01*
X137662798Y-107972265D01*
X137639579Y-107941573D01*
X137601347Y-107893657D01*
X136368633Y-107893657D01*
X136106021Y-107893657D01*
X136099159Y-107885011D01*
X135999889Y-107759943D01*
X135907041Y-107642984D01*
X135821972Y-107535842D01*
X135746042Y-107440227D01*
X135680606Y-107357847D01*
X135627022Y-107290412D01*
X135586649Y-107239632D01*
X135560842Y-107207215D01*
X135550961Y-107194870D01*
X135548845Y-107194403D01*
X135526913Y-107200049D01*
X135484798Y-107215346D01*
X135426347Y-107238769D01*
X135355406Y-107268794D01*
X135275822Y-107303898D01*
X135009633Y-107423534D01*
X134912632Y-107343735D01*
X134896847Y-107330650D01*
X134854327Y-107293153D01*
X134828220Y-107264106D01*
X134813774Y-107237393D01*
X134806236Y-107206902D01*
X134796477Y-107170736D01*
X134775792Y-107117961D01*
X134749753Y-107065123D01*
X134702667Y-106980377D01*
X134715417Y-106857858D01*
X134876479Y-106857858D01*
X134880267Y-106886162D01*
X134905629Y-106904674D01*
X134914124Y-106908323D01*
X134964411Y-106919708D01*
X135002827Y-106909837D01*
X135005324Y-106905977D01*
X135012121Y-106878856D01*
X135019364Y-106830266D01*
X135026453Y-106764690D01*
X135032785Y-106686614D01*
X135035715Y-106645718D01*
X135041086Y-106576909D01*
X135046014Y-106521162D01*
X135050050Y-106483373D01*
X135052747Y-106468437D01*
X135053106Y-106468240D01*
X135070628Y-106467948D01*
X135109793Y-106470327D01*
X135165169Y-106474981D01*
X135231328Y-106481511D01*
X135237805Y-106482186D01*
X135303706Y-106488266D01*
X135358784Y-106491984D01*
X135397442Y-106493043D01*
X135414082Y-106491149D01*
X135418220Y-106484050D01*
X135431779Y-106454586D01*
X135452297Y-106406719D01*
X135477835Y-106345006D01*
X135506453Y-106274007D01*
X135589482Y-106065468D01*
X135582073Y-105882958D01*
X135574665Y-105700447D01*
X135402006Y-105660839D01*
X135394395Y-105659088D01*
X135328851Y-105643601D01*
X135273617Y-105629849D01*
X135234303Y-105619270D01*
X135216518Y-105613302D01*
X135216309Y-105600040D01*
X135223804Y-105564400D01*
X135238163Y-105510816D01*
X135258222Y-105443602D01*
X135282822Y-105367073D01*
X135287878Y-105351843D01*
X135314537Y-105270944D01*
X135333279Y-105211746D01*
X135344915Y-105170233D01*
X135350255Y-105142392D01*
X135350110Y-105124210D01*
X135345290Y-105111671D01*
X135336606Y-105100763D01*
X135334642Y-105098640D01*
X135306220Y-105080265D01*
X135267632Y-105081042D01*
X135265571Y-105081435D01*
X135235224Y-105087688D01*
X135221025Y-105091474D01*
X135219581Y-105095748D01*
X135212009Y-105122635D01*
X135198783Y-105171453D01*
X135180759Y-105238986D01*
X135158794Y-105322019D01*
X135133743Y-105417336D01*
X135106463Y-105521721D01*
X135076500Y-105637284D01*
X135050184Y-105741202D01*
X135028836Y-105829956D01*
X135011281Y-105909599D01*
X134996344Y-105986185D01*
X134982850Y-106065766D01*
X134969623Y-106154396D01*
X134955489Y-106258128D01*
X134939273Y-106383016D01*
X134932906Y-106432530D01*
X134919292Y-106537819D01*
X134906771Y-106633890D01*
X134895827Y-106717070D01*
X134886945Y-106783687D01*
X134880609Y-106830067D01*
X134877305Y-106852539D01*
X134876479Y-106857858D01*
X134715417Y-106857858D01*
X134757863Y-106449970D01*
X134813060Y-105919563D01*
X134968091Y-105386006D01*
X135123123Y-104852448D01*
X135222224Y-104838737D01*
X135242809Y-104835952D01*
X135289433Y-104831346D01*
X135323430Y-104833386D01*
X135355861Y-104843642D01*
X135397789Y-104863687D01*
X135401685Y-104865709D01*
X135450835Y-104896922D01*
X135505937Y-104939707D01*
X135555785Y-104985427D01*
X135637316Y-105068506D01*
X135627191Y-105196435D01*
X135617066Y-105324363D01*
X135557884Y-105315488D01*
X135498701Y-105306613D01*
X135483002Y-105368962D01*
X135478506Y-105387387D01*
X135470481Y-105424099D01*
X135467302Y-105444892D01*
X135470328Y-105451518D01*
X135493382Y-105466222D01*
X135532652Y-105480372D01*
X135580374Y-105491901D01*
X135628785Y-105498745D01*
X135670122Y-105498840D01*
X135682539Y-105497534D01*
X135717460Y-105497467D01*
X135741022Y-105509226D01*
X135765887Y-105537987D01*
X135771603Y-105545564D01*
X135782354Y-105561753D01*
X135790096Y-105579656D01*
X135795324Y-105603620D01*
X135798532Y-105637996D01*
X135800212Y-105687131D01*
X135800858Y-105755374D01*
X135800964Y-105847074D01*
X135800964Y-106110173D01*
X135698218Y-106399957D01*
X135671696Y-106474519D01*
X135643708Y-106551731D01*
X135621715Y-106609216D01*
X135603936Y-106650679D01*
X135588591Y-106679824D01*
X135573898Y-106700356D01*
X135558076Y-106715980D01*
X135539345Y-106730401D01*
X135483217Y-106771060D01*
X135437027Y-106743059D01*
X135410468Y-106731925D01*
X135367724Y-106720424D01*
X135317091Y-106710394D01*
X135265553Y-106702847D01*
X135220095Y-106698791D01*
X135187699Y-106699238D01*
X135175348Y-106705197D01*
X135175306Y-106705966D01*
X135172591Y-106725869D01*
X135166260Y-106766943D01*
X135157177Y-106823685D01*
X135146206Y-106890593D01*
X135135321Y-106953001D01*
X135121662Y-107016656D01*
X135107599Y-107059424D01*
X135091243Y-107085207D01*
X135070704Y-107097906D01*
X135044092Y-107101423D01*
X135004279Y-107107968D01*
X134988576Y-107127628D01*
X134996135Y-107161556D01*
X135002024Y-107174091D01*
X135016093Y-107194151D01*
X135033886Y-107193694D01*
X135064510Y-107174436D01*
X135095008Y-107159135D01*
X135124526Y-107154679D01*
X135145444Y-107150826D01*
X135182447Y-107134441D01*
X135225320Y-107109116D01*
X135267607Y-107078288D01*
X135292931Y-107051111D01*
X135300315Y-107026846D01*
X135723858Y-107026846D01*
X135727326Y-107048706D01*
X135747795Y-107075087D01*
X135796840Y-107138560D01*
X135852893Y-107211380D01*
X135913560Y-107290408D01*
X135976443Y-107372506D01*
X136039148Y-107454535D01*
X136099279Y-107533355D01*
X136154439Y-107605828D01*
X136202234Y-107668814D01*
X136240266Y-107719176D01*
X136266140Y-107753773D01*
X136277461Y-107769468D01*
X136277617Y-107769716D01*
X136282646Y-107776118D01*
X136290578Y-107781403D01*
X136303901Y-107785678D01*
X136325106Y-107789050D01*
X136356683Y-107791625D01*
X136401124Y-107793511D01*
X136460917Y-107794814D01*
X136538555Y-107795641D01*
X136636526Y-107796100D01*
X136757321Y-107796297D01*
X136903432Y-107796339D01*
X137028351Y-107796242D01*
X137158212Y-107795825D01*
X137263899Y-107795027D01*
X137347412Y-107793788D01*
X137410753Y-107792051D01*
X137455921Y-107789758D01*
X137484918Y-107786851D01*
X137499744Y-107783271D01*
X137502401Y-107778960D01*
X137499450Y-107774804D01*
X137481868Y-107751220D01*
X137450155Y-107709138D01*
X137406119Y-107650933D01*
X137351568Y-107578981D01*
X137288311Y-107495656D01*
X137218156Y-107403333D01*
X137142913Y-107304388D01*
X137064389Y-107201195D01*
X136984393Y-107096130D01*
X136904735Y-106991568D01*
X136827222Y-106889884D01*
X136753663Y-106793452D01*
X136685867Y-106704648D01*
X136625643Y-106625848D01*
X136574798Y-106559425D01*
X136535142Y-106507755D01*
X136508483Y-106473214D01*
X136496629Y-106458175D01*
X136481637Y-106457257D01*
X136448061Y-106465219D01*
X136403808Y-106480573D01*
X136386685Y-106487254D01*
X136347104Y-106501399D01*
X136321064Y-106505906D01*
X136299280Y-106501311D01*
X136272470Y-106488147D01*
X136249799Y-106476765D01*
X136211281Y-106464747D01*
X136179786Y-106470977D01*
X136145208Y-106496086D01*
X136141853Y-106499068D01*
X136119770Y-106523384D01*
X136112290Y-106549557D01*
X136115433Y-106590158D01*
X136118156Y-106611645D01*
X136117996Y-106636757D01*
X136108509Y-106656772D01*
X136085403Y-106678967D01*
X136044386Y-106710622D01*
X135965040Y-106770529D01*
X135911088Y-106746200D01*
X135890845Y-106737283D01*
X135863314Y-106729306D01*
X135840350Y-106734861D01*
X135808291Y-106755137D01*
X135790128Y-106768050D01*
X135766011Y-106792375D01*
X135761574Y-106819019D01*
X135773313Y-106858321D01*
X135774749Y-106862274D01*
X135779226Y-106889086D01*
X135771820Y-106919522D01*
X135750450Y-106963126D01*
X135737262Y-106988923D01*
X135723858Y-107026846D01*
X135300315Y-107026846D01*
X135300471Y-107026334D01*
X135305334Y-107013204D01*
X135330085Y-106981407D01*
X135373586Y-106936965D01*
X135433361Y-106881796D01*
X135506935Y-106817820D01*
X135591832Y-106746955D01*
X135685579Y-106671120D01*
X135785699Y-106592234D01*
X135889718Y-106512215D01*
X135995160Y-106432984D01*
X136099551Y-106356458D01*
X136200415Y-106284556D01*
X136295277Y-106219198D01*
X136381663Y-106162301D01*
X136457096Y-106115786D01*
X136519103Y-106081570D01*
X136590772Y-106045483D01*
X136638258Y-106104134D01*
X136669725Y-106143730D01*
X136690243Y-106174932D01*
X136696362Y-106199019D01*
X136689786Y-106223637D01*
X136672222Y-106256434D01*
X136638413Y-106315715D01*
X137320155Y-107205479D01*
X137759559Y-107778960D01*
X137926762Y-107997183D01*
X138001896Y-108095244D01*
G36*
X136935240Y-110807556D02*
G01*
X136964155Y-110829309D01*
X136980310Y-110863321D01*
X136980038Y-110902737D01*
X136959674Y-110940701D01*
X136944297Y-110954374D01*
X136906844Y-110965012D01*
X136866154Y-110948192D01*
X136861887Y-110944730D01*
X136847448Y-110918916D01*
X136846119Y-110875457D01*
X136850042Y-110846666D01*
X136862462Y-110821664D01*
X136888419Y-110807439D01*
X136897230Y-110804917D01*
X136935240Y-110807556D01*
G37*
X136935240Y-110807556D02*
X136964155Y-110829309D01*
X136980310Y-110863321D01*
X136980038Y-110902737D01*
X136959674Y-110940701D01*
X136944297Y-110954374D01*
X136906844Y-110965012D01*
X136866154Y-110948192D01*
X136861887Y-110944730D01*
X136847448Y-110918916D01*
X136846119Y-110875457D01*
X136850042Y-110846666D01*
X136862462Y-110821664D01*
X136888419Y-110807439D01*
X136897230Y-110804917D01*
X136935240Y-110807556D01*
G36*
X135120893Y-111575534D02*
G01*
X134885705Y-111570887D01*
X134825463Y-111528993D01*
X134817396Y-111523151D01*
X134759754Y-111463697D01*
X134721561Y-111390519D01*
X134703469Y-111309572D01*
X134704965Y-111263038D01*
X134929932Y-111263038D01*
X134932637Y-111306896D01*
X134959226Y-111349078D01*
X134981338Y-111367323D01*
X135014569Y-111379864D01*
X135063495Y-111383202D01*
X135133640Y-111383202D01*
X135133640Y-111287372D01*
X135133341Y-111258183D01*
X135129307Y-111213370D01*
X135117488Y-111188190D01*
X135094041Y-111177126D01*
X135055125Y-111174664D01*
X135035172Y-111175868D01*
X134984194Y-111192078D01*
X134948115Y-111222950D01*
X134929932Y-111263038D01*
X134704965Y-111263038D01*
X134706130Y-111226810D01*
X134730194Y-111148187D01*
X134776312Y-111079658D01*
X134796266Y-111060930D01*
X134863136Y-111020220D01*
X134942471Y-110994954D01*
X135025227Y-110987352D01*
X135102359Y-110999633D01*
X135108340Y-111001487D01*
X135122604Y-111003059D01*
X135130156Y-110993423D01*
X135133124Y-110967049D01*
X135133640Y-110918403D01*
X135133640Y-110827099D01*
X135356081Y-110827099D01*
X135356081Y-111580182D01*
X135120893Y-111575534D01*
G37*
X135120893Y-111575534D02*
X134885705Y-111570887D01*
X134825463Y-111528993D01*
X134817396Y-111523151D01*
X134759754Y-111463697D01*
X134721561Y-111390519D01*
X134703469Y-111309572D01*
X134704965Y-111263038D01*
X134929932Y-111263038D01*
X134932637Y-111306896D01*
X134959226Y-111349078D01*
X134981338Y-111367323D01*
X135014569Y-111379864D01*
X135063495Y-111383202D01*
X135133640Y-111383202D01*
X135133640Y-111287372D01*
X135133341Y-111258183D01*
X135129307Y-111213370D01*
X135117488Y-111188190D01*
X135094041Y-111177126D01*
X135055125Y-111174664D01*
X135035172Y-111175868D01*
X134984194Y-111192078D01*
X134948115Y-111222950D01*
X134929932Y-111263038D01*
X134704965Y-111263038D01*
X134706130Y-111226810D01*
X134730194Y-111148187D01*
X134776312Y-111079658D01*
X134796266Y-111060930D01*
X134863136Y-111020220D01*
X134942471Y-110994954D01*
X135025227Y-110987352D01*
X135102359Y-110999633D01*
X135108340Y-111001487D01*
X135122604Y-111003059D01*
X135130156Y-110993423D01*
X135133124Y-110967049D01*
X135133640Y-110918403D01*
X135133640Y-110827099D01*
X135356081Y-110827099D01*
X135356081Y-111580182D01*
X135120893Y-111575534D01*
G36*
X136649021Y-111577838D02*
G01*
X136106820Y-111577838D01*
X136106820Y-111383202D01*
X136398774Y-111383202D01*
X136398774Y-110827099D01*
X136649021Y-110827099D01*
X136649021Y-111577838D01*
G37*
X136649021Y-111577838D02*
X136106820Y-111577838D01*
X136106820Y-111383202D01*
X136398774Y-111383202D01*
X136398774Y-110827099D01*
X136649021Y-110827099D01*
X136649021Y-111577838D01*
G36*
X137024390Y-111577838D02*
G01*
X136801949Y-111577838D01*
X136801949Y-110993930D01*
X137024390Y-110993930D01*
X137024390Y-111577838D01*
G37*
X137024390Y-111577838D02*
X136801949Y-111577838D01*
X136801949Y-110993930D01*
X137024390Y-110993930D01*
X137024390Y-111577838D01*
G36*
X137781228Y-111429382D02*
G01*
X137730816Y-111497028D01*
X137712090Y-111514086D01*
X137670166Y-111544322D01*
X137633164Y-111562145D01*
X137623424Y-111564220D01*
X137583542Y-111568755D01*
X137524758Y-111572560D01*
X137453308Y-111575286D01*
X137375430Y-111576584D01*
X137163416Y-111577838D01*
X137163416Y-111191885D01*
X137384662Y-111191885D01*
X137392808Y-111376251D01*
X137448418Y-111379127D01*
X137505597Y-111375504D01*
X137551666Y-111354041D01*
X137578431Y-111313628D01*
X137583957Y-111276939D01*
X137570459Y-111233852D01*
X137537760Y-111200840D01*
X137490698Y-111182295D01*
X137434111Y-111182608D01*
X137384662Y-111191885D01*
X137163416Y-111191885D01*
X137163416Y-110827099D01*
X137385857Y-110827099D01*
X137385857Y-110917731D01*
X137385845Y-110923830D01*
X137385779Y-110968664D01*
X137389895Y-110993381D01*
X137404036Y-111002078D01*
X137434046Y-110998854D01*
X137485766Y-110987808D01*
X137503282Y-110986064D01*
X137547520Y-110988063D01*
X137596987Y-110995698D01*
X137660615Y-111018002D01*
X137724737Y-111063441D01*
X137772944Y-111124471D01*
X137803966Y-111196335D01*
X137816534Y-111274279D01*
X137816293Y-111276939D01*
X137809378Y-111353547D01*
X137781228Y-111429382D01*
G37*
X137781228Y-111429382D02*
X137730816Y-111497028D01*
X137712090Y-111514086D01*
X137670166Y-111544322D01*
X137633164Y-111562145D01*
X137623424Y-111564220D01*
X137583542Y-111568755D01*
X137524758Y-111572560D01*
X137453308Y-111575286D01*
X137375430Y-111576584D01*
X137163416Y-111577838D01*
X137163416Y-111191885D01*
X137384662Y-111191885D01*
X137392808Y-111376251D01*
X137448418Y-111379127D01*
X137505597Y-111375504D01*
X137551666Y-111354041D01*
X137578431Y-111313628D01*
X137583957Y-111276939D01*
X137570459Y-111233852D01*
X137537760Y-111200840D01*
X137490698Y-111182295D01*
X137434111Y-111182608D01*
X137384662Y-111191885D01*
X137163416Y-111191885D01*
X137163416Y-110827099D01*
X137385857Y-110827099D01*
X137385857Y-110917731D01*
X137385845Y-110923830D01*
X137385779Y-110968664D01*
X137389895Y-110993381D01*
X137404036Y-111002078D01*
X137434046Y-110998854D01*
X137485766Y-110987808D01*
X137503282Y-110986064D01*
X137547520Y-110988063D01*
X137596987Y-110995698D01*
X137660615Y-111018002D01*
X137724737Y-111063441D01*
X137772944Y-111124471D01*
X137803966Y-111196335D01*
X137816534Y-111274279D01*
X137816293Y-111276939D01*
X137809378Y-111353547D01*
X137781228Y-111429382D01*
G36*
X134405060Y-110990761D02*
G01*
X134488907Y-111003068D01*
X134552223Y-111032762D01*
X134594242Y-111079341D01*
X134614202Y-111142304D01*
X134612396Y-111194463D01*
X134590267Y-111242286D01*
X134545097Y-111285990D01*
X134474545Y-111328697D01*
X134446841Y-111343384D01*
X134408484Y-111367091D01*
X134389628Y-111386105D01*
X134386008Y-111404056D01*
X134391153Y-111419637D01*
X134415708Y-111435363D01*
X134459925Y-111432755D01*
X134524173Y-111411760D01*
X134608818Y-111372326D01*
X134613634Y-111379349D01*
X134617687Y-111407476D01*
X134619245Y-111450407D01*
X134619245Y-111533831D01*
X134560159Y-111555345D01*
X134546425Y-111560180D01*
X134501375Y-111574190D01*
X134466317Y-111582625D01*
X134408990Y-111586289D01*
X134344207Y-111581706D01*
X134283716Y-111570338D01*
X134239141Y-111553666D01*
X134232121Y-111549182D01*
X134196884Y-111516154D01*
X134169093Y-111475300D01*
X134155738Y-111444494D01*
X134150340Y-111410222D01*
X134158433Y-111370585D01*
X134165683Y-111350018D01*
X134193612Y-111304111D01*
X134238802Y-111265051D01*
X134306437Y-111227841D01*
X134332789Y-111214406D01*
X134365680Y-111190435D01*
X134375950Y-111167506D01*
X134373968Y-111153819D01*
X134359912Y-111143135D01*
X134325940Y-111141305D01*
X134325581Y-111141315D01*
X134276891Y-111149085D01*
X134229962Y-111165634D01*
X134222840Y-111169154D01*
X134193300Y-111182969D01*
X134178484Y-111188566D01*
X134176506Y-111180559D01*
X134175773Y-111151544D01*
X134177145Y-111108628D01*
X134177558Y-111100752D01*
X134180916Y-111058787D01*
X134188594Y-111035161D01*
X134205596Y-111021609D01*
X134236924Y-111009866D01*
X134269037Y-111001840D01*
X134325054Y-110993795D01*
X134383114Y-110990441D01*
X134405060Y-110990761D01*
G37*
X134405060Y-110990761D02*
X134488907Y-111003068D01*
X134552223Y-111032762D01*
X134594242Y-111079341D01*
X134614202Y-111142304D01*
X134612396Y-111194463D01*
X134590267Y-111242286D01*
X134545097Y-111285990D01*
X134474545Y-111328697D01*
X134446841Y-111343384D01*
X134408484Y-111367091D01*
X134389628Y-111386105D01*
X134386008Y-111404056D01*
X134391153Y-111419637D01*
X134415708Y-111435363D01*
X134459925Y-111432755D01*
X134524173Y-111411760D01*
X134608818Y-111372326D01*
X134613634Y-111379349D01*
X134617687Y-111407476D01*
X134619245Y-111450407D01*
X134619245Y-111533831D01*
X134560159Y-111555345D01*
X134546425Y-111560180D01*
X134501375Y-111574190D01*
X134466317Y-111582625D01*
X134408990Y-111586289D01*
X134344207Y-111581706D01*
X134283716Y-111570338D01*
X134239141Y-111553666D01*
X134232121Y-111549182D01*
X134196884Y-111516154D01*
X134169093Y-111475300D01*
X134155738Y-111444494D01*
X134150340Y-111410222D01*
X134158433Y-111370585D01*
X134165683Y-111350018D01*
X134193612Y-111304111D01*
X134238802Y-111265051D01*
X134306437Y-111227841D01*
X134332789Y-111214406D01*
X134365680Y-111190435D01*
X134375950Y-111167506D01*
X134373968Y-111153819D01*
X134359912Y-111143135D01*
X134325940Y-111141305D01*
X134325581Y-111141315D01*
X134276891Y-111149085D01*
X134229962Y-111165634D01*
X134222840Y-111169154D01*
X134193300Y-111182969D01*
X134178484Y-111188566D01*
X134176506Y-111180559D01*
X134175773Y-111151544D01*
X134177145Y-111108628D01*
X134177558Y-111100752D01*
X134180916Y-111058787D01*
X134188594Y-111035161D01*
X134205596Y-111021609D01*
X134236924Y-111009866D01*
X134269037Y-111001840D01*
X134325054Y-110993795D01*
X134383114Y-110990441D01*
X134405060Y-110990761D01*
G36*
X136039311Y-111503673D02*
G01*
X136003747Y-111548222D01*
X135945282Y-111578031D01*
X135903700Y-111584765D01*
X135842268Y-111583413D01*
X135779752Y-111573334D01*
X135729308Y-111555876D01*
X135707785Y-111545899D01*
X135683550Y-111543454D01*
X135656776Y-111557090D01*
X135643486Y-111564026D01*
X135601816Y-111577827D01*
X135553500Y-111587051D01*
X135483254Y-111595371D01*
X135467499Y-111534470D01*
X135463349Y-111518501D01*
X135452790Y-111478465D01*
X135445717Y-111452495D01*
X135448422Y-111436173D01*
X135470874Y-111417738D01*
X135472983Y-111416790D01*
X135486414Y-111408121D01*
X135491188Y-111400317D01*
X135717548Y-111400317D01*
X135720008Y-111440898D01*
X135730340Y-111463673D01*
X135752959Y-111478289D01*
X135805585Y-111493894D01*
X135846797Y-111487876D01*
X135872819Y-111460078D01*
X135879354Y-111424240D01*
X135862267Y-111394254D01*
X135820164Y-111368944D01*
X135751691Y-111347050D01*
X135739984Y-111344424D01*
X135724765Y-111346009D01*
X135718664Y-111362491D01*
X135717548Y-111400317D01*
X135491188Y-111400317D01*
X135495459Y-111393334D01*
X135501421Y-111367010D01*
X135505607Y-111323732D01*
X135509321Y-111258079D01*
X135510160Y-111242562D01*
X135516524Y-111167828D01*
X135525453Y-111112944D01*
X135536340Y-111081870D01*
X135574202Y-111042504D01*
X135635234Y-111010372D01*
X135709565Y-110992414D01*
X135791129Y-110989373D01*
X135873862Y-111001991D01*
X135951699Y-111031010D01*
X136030356Y-111071180D01*
X136034463Y-111164448D01*
X136038570Y-111257715D01*
X135971254Y-111215869D01*
X135945830Y-111201485D01*
X135884158Y-111176407D01*
X135824787Y-111164054D01*
X135774580Y-111165447D01*
X135740401Y-111181602D01*
X135726190Y-111200315D01*
X135721195Y-111220361D01*
X135728983Y-111226799D01*
X135758742Y-111241108D01*
X135805182Y-111259292D01*
X135862464Y-111278932D01*
X135879306Y-111284433D01*
X135951281Y-111311073D01*
X136000519Y-111337149D01*
X136030928Y-111366143D01*
X136046419Y-111401537D01*
X136048667Y-111424240D01*
X136050901Y-111446816D01*
X136039311Y-111503673D01*
G37*
X136039311Y-111503673D02*
X136003747Y-111548222D01*
X135945282Y-111578031D01*
X135903700Y-111584765D01*
X135842268Y-111583413D01*
X135779752Y-111573334D01*
X135729308Y-111555876D01*
X135707785Y-111545899D01*
X135683550Y-111543454D01*
X135656776Y-111557090D01*
X135643486Y-111564026D01*
X135601816Y-111577827D01*
X135553500Y-111587051D01*
X135483254Y-111595371D01*
X135467499Y-111534470D01*
X135463349Y-111518501D01*
X135452790Y-111478465D01*
X135445717Y-111452495D01*
X135448422Y-111436173D01*
X135470874Y-111417738D01*
X135472983Y-111416790D01*
X135486414Y-111408121D01*
X135491188Y-111400317D01*
X135717548Y-111400317D01*
X135720008Y-111440898D01*
X135730340Y-111463673D01*
X135752959Y-111478289D01*
X135805585Y-111493894D01*
X135846797Y-111487876D01*
X135872819Y-111460078D01*
X135879354Y-111424240D01*
X135862267Y-111394254D01*
X135820164Y-111368944D01*
X135751691Y-111347050D01*
X135739984Y-111344424D01*
X135724765Y-111346009D01*
X135718664Y-111362491D01*
X135717548Y-111400317D01*
X135491188Y-111400317D01*
X135495459Y-111393334D01*
X135501421Y-111367010D01*
X135505607Y-111323732D01*
X135509321Y-111258079D01*
X135510160Y-111242562D01*
X135516524Y-111167828D01*
X135525453Y-111112944D01*
X135536340Y-111081870D01*
X135574202Y-111042504D01*
X135635234Y-111010372D01*
X135709565Y-110992414D01*
X135791129Y-110989373D01*
X135873862Y-111001991D01*
X135951699Y-111031010D01*
X136030356Y-111071180D01*
X136034463Y-111164448D01*
X136038570Y-111257715D01*
X135971254Y-111215869D01*
X135945830Y-111201485D01*
X135884158Y-111176407D01*
X135824787Y-111164054D01*
X135774580Y-111165447D01*
X135740401Y-111181602D01*
X135726190Y-111200315D01*
X135721195Y-111220361D01*
X135728983Y-111226799D01*
X135758742Y-111241108D01*
X135805182Y-111259292D01*
X135862464Y-111278932D01*
X135879306Y-111284433D01*
X135951281Y-111311073D01*
X136000519Y-111337149D01*
X136030928Y-111366143D01*
X136046419Y-111401537D01*
X136048667Y-111424240D01*
X136050901Y-111446816D01*
X136039311Y-111503673D01*
G36*
X138192206Y-111173875D02*
G01*
X138192397Y-111239185D01*
X138193543Y-111293270D01*
X138196416Y-111328914D01*
X138201787Y-111351142D01*
X138210426Y-111364983D01*
X138223105Y-111375463D01*
X138255414Y-111392511D01*
X138292726Y-111392673D01*
X138323492Y-111366206D01*
X138327003Y-111360542D01*
X138335709Y-111336391D01*
X138341289Y-111298889D01*
X138344259Y-111243233D01*
X138345134Y-111164619D01*
X138345134Y-110993930D01*
X138567576Y-110993930D01*
X138567576Y-111215900D01*
X138566820Y-111306220D01*
X138563432Y-111385608D01*
X138556185Y-111444951D01*
X138543865Y-111488338D01*
X138525257Y-111519863D01*
X138499146Y-111543617D01*
X138464319Y-111563691D01*
X138450205Y-111570196D01*
X138407005Y-111585464D01*
X138372940Y-111591425D01*
X138345646Y-111586819D01*
X138298467Y-111570446D01*
X138247479Y-111546530D01*
X138203437Y-111519628D01*
X138190877Y-111512460D01*
X138173389Y-111515429D01*
X138151133Y-111539117D01*
X138117303Y-111568754D01*
X138058891Y-111587727D01*
X137984980Y-111585011D01*
X137958635Y-111579352D01*
X137936915Y-111567530D01*
X137920850Y-111543632D01*
X137903469Y-111500425D01*
X137890564Y-111464187D01*
X137883826Y-111438320D01*
X137886780Y-111427251D01*
X137899074Y-111424910D01*
X137902849Y-111424851D01*
X137922905Y-111420926D01*
X137937239Y-111408144D01*
X137946775Y-111382719D01*
X137952441Y-111340867D01*
X137955161Y-111278801D01*
X137955862Y-111192737D01*
X137955862Y-110993930D01*
X138192206Y-110993930D01*
X138192206Y-111173875D01*
G37*
X138192206Y-111173875D02*
X138192397Y-111239185D01*
X138193543Y-111293270D01*
X138196416Y-111328914D01*
X138201787Y-111351142D01*
X138210426Y-111364983D01*
X138223105Y-111375463D01*
X138255414Y-111392511D01*
X138292726Y-111392673D01*
X138323492Y-111366206D01*
X138327003Y-111360542D01*
X138335709Y-111336391D01*
X138341289Y-111298889D01*
X138344259Y-111243233D01*
X138345134Y-111164619D01*
X138345134Y-110993930D01*
X138567576Y-110993930D01*
X138567576Y-111215900D01*
X138566820Y-111306220D01*
X138563432Y-111385608D01*
X138556185Y-111444951D01*
X138543865Y-111488338D01*
X138525257Y-111519863D01*
X138499146Y-111543617D01*
X138464319Y-111563691D01*
X138450205Y-111570196D01*
X138407005Y-111585464D01*
X138372940Y-111591425D01*
X138345646Y-111586819D01*
X138298467Y-111570446D01*
X138247479Y-111546530D01*
X138203437Y-111519628D01*
X138190877Y-111512460D01*
X138173389Y-111515429D01*
X138151133Y-111539117D01*
X138117303Y-111568754D01*
X138058891Y-111587727D01*
X137984980Y-111585011D01*
X137958635Y-111579352D01*
X137936915Y-111567530D01*
X137920850Y-111543632D01*
X137903469Y-111500425D01*
X137890564Y-111464187D01*
X137883826Y-111438320D01*
X137886780Y-111427251D01*
X137899074Y-111424910D01*
X137902849Y-111424851D01*
X137922905Y-111420926D01*
X137937239Y-111408144D01*
X137946775Y-111382719D01*
X137952441Y-111340867D01*
X137955161Y-111278801D01*
X137955862Y-111192737D01*
X137955862Y-110993930D01*
X138192206Y-110993930D01*
X138192206Y-111173875D01*
G36*
X139223000Y-111503673D02*
G01*
X139187436Y-111548222D01*
X139128971Y-111578031D01*
X139087389Y-111584765D01*
X139025957Y-111583413D01*
X138963441Y-111573334D01*
X138912997Y-111555876D01*
X138891474Y-111545899D01*
X138867239Y-111543454D01*
X138840465Y-111557090D01*
X138827175Y-111564026D01*
X138785505Y-111577827D01*
X138737190Y-111587051D01*
X138666943Y-111595371D01*
X138651188Y-111534470D01*
X138647039Y-111518501D01*
X138636479Y-111478465D01*
X138629406Y-111452495D01*
X138632111Y-111436173D01*
X138654563Y-111417738D01*
X138656672Y-111416790D01*
X138670103Y-111408121D01*
X138674877Y-111400317D01*
X138901237Y-111400317D01*
X138903697Y-111440898D01*
X138914029Y-111463673D01*
X138936648Y-111478289D01*
X138989274Y-111493894D01*
X139030486Y-111487876D01*
X139056508Y-111460078D01*
X139063043Y-111424240D01*
X139045956Y-111394254D01*
X139003853Y-111368944D01*
X138935381Y-111347050D01*
X138923673Y-111344424D01*
X138908454Y-111346009D01*
X138902353Y-111362491D01*
X138901237Y-111400317D01*
X138674877Y-111400317D01*
X138679148Y-111393334D01*
X138685110Y-111367010D01*
X138689296Y-111323732D01*
X138693010Y-111258079D01*
X138693849Y-111242562D01*
X138700213Y-111167828D01*
X138709142Y-111112944D01*
X138720029Y-111081870D01*
X138757891Y-111042504D01*
X138818924Y-111010372D01*
X138893254Y-110992414D01*
X138974819Y-110989373D01*
X139057551Y-111001991D01*
X139135388Y-111031010D01*
X139214045Y-111071180D01*
X139218152Y-111164448D01*
X139222259Y-111257715D01*
X139154943Y-111215869D01*
X139129519Y-111201485D01*
X139067847Y-111176407D01*
X139008476Y-111164054D01*
X138958269Y-111165447D01*
X138924090Y-111181602D01*
X138909879Y-111200315D01*
X138904884Y-111220361D01*
X138912672Y-111226799D01*
X138942431Y-111241108D01*
X138988871Y-111259292D01*
X139046153Y-111278932D01*
X139062995Y-111284433D01*
X139134970Y-111311073D01*
X139184208Y-111337149D01*
X139214617Y-111366143D01*
X139230108Y-111401537D01*
X139232356Y-111424240D01*
X139234590Y-111446816D01*
X139223000Y-111503673D01*
G37*
X139223000Y-111503673D02*
X139187436Y-111548222D01*
X139128971Y-111578031D01*
X139087389Y-111584765D01*
X139025957Y-111583413D01*
X138963441Y-111573334D01*
X138912997Y-111555876D01*
X138891474Y-111545899D01*
X138867239Y-111543454D01*
X138840465Y-111557090D01*
X138827175Y-111564026D01*
X138785505Y-111577827D01*
X138737190Y-111587051D01*
X138666943Y-111595371D01*
X138651188Y-111534470D01*
X138647039Y-111518501D01*
X138636479Y-111478465D01*
X138629406Y-111452495D01*
X138632111Y-111436173D01*
X138654563Y-111417738D01*
X138656672Y-111416790D01*
X138670103Y-111408121D01*
X138674877Y-111400317D01*
X138901237Y-111400317D01*
X138903697Y-111440898D01*
X138914029Y-111463673D01*
X138936648Y-111478289D01*
X138989274Y-111493894D01*
X139030486Y-111487876D01*
X139056508Y-111460078D01*
X139063043Y-111424240D01*
X139045956Y-111394254D01*
X139003853Y-111368944D01*
X138935381Y-111347050D01*
X138923673Y-111344424D01*
X138908454Y-111346009D01*
X138902353Y-111362491D01*
X138901237Y-111400317D01*
X138674877Y-111400317D01*
X138679148Y-111393334D01*
X138685110Y-111367010D01*
X138689296Y-111323732D01*
X138693010Y-111258079D01*
X138693849Y-111242562D01*
X138700213Y-111167828D01*
X138709142Y-111112944D01*
X138720029Y-111081870D01*
X138757891Y-111042504D01*
X138818924Y-111010372D01*
X138893254Y-110992414D01*
X138974819Y-110989373D01*
X139057551Y-111001991D01*
X139135388Y-111031010D01*
X139214045Y-111071180D01*
X139218152Y-111164448D01*
X139222259Y-111257715D01*
X139154943Y-111215869D01*
X139129519Y-111201485D01*
X139067847Y-111176407D01*
X139008476Y-111164054D01*
X138958269Y-111165447D01*
X138924090Y-111181602D01*
X138909879Y-111200315D01*
X138904884Y-111220361D01*
X138912672Y-111226799D01*
X138942431Y-111241108D01*
X138988871Y-111259292D01*
X139046153Y-111278932D01*
X139062995Y-111284433D01*
X139134970Y-111311073D01*
X139184208Y-111337149D01*
X139214617Y-111366143D01*
X139230108Y-111401537D01*
X139232356Y-111424240D01*
X139234590Y-111446816D01*
X139223000Y-111503673D01*
G36*
X139673756Y-110824084D02*
G01*
X139788391Y-110839762D01*
X139885092Y-110875938D01*
X139965285Y-110933313D01*
X140030396Y-111012587D01*
X140048583Y-111042006D01*
X140063647Y-111072921D01*
X140071876Y-111105202D01*
X140075313Y-111147659D01*
X140076005Y-111209102D01*
X140075723Y-111252004D01*
X140073331Y-111300643D01*
X140066891Y-111335832D01*
X140054511Y-111366268D01*
X140034297Y-111400644D01*
X140016272Y-111426925D01*
X139946039Y-111498921D01*
X139857353Y-111550732D01*
X139749294Y-111582946D01*
X139742502Y-111583931D01*
X139703234Y-111585689D01*
X139646878Y-111584994D01*
X139581688Y-111582265D01*
X139515915Y-111577918D01*
X139457812Y-111572373D01*
X139415633Y-111566047D01*
X139366974Y-111555876D01*
X139363126Y-111351367D01*
X139359279Y-111146858D01*
X139651976Y-111146858D01*
X139651976Y-111230274D01*
X139651968Y-111243783D01*
X139650928Y-111284198D01*
X139645816Y-111304951D01*
X139633355Y-111312597D01*
X139610269Y-111313689D01*
X139588255Y-111314967D01*
X139572006Y-111325856D01*
X139568561Y-111355397D01*
X139571210Y-111383263D01*
X139584779Y-111394834D01*
X139617666Y-111397105D01*
X139647878Y-111395543D01*
X139718840Y-111376560D01*
X139772680Y-111337899D01*
X139806838Y-111281930D01*
X139818755Y-111211021D01*
X139816332Y-111174840D01*
X139794964Y-111105943D01*
X139753815Y-111053340D01*
X139695662Y-111018363D01*
X139623277Y-111002344D01*
X139539436Y-111006616D01*
X139446913Y-111032510D01*
X139373925Y-111060772D01*
X139373925Y-110869584D01*
X139453865Y-110845936D01*
X139484193Y-110838389D01*
X139561701Y-110826993D01*
X139645025Y-110823306D01*
X139673756Y-110824084D01*
G37*
X139673756Y-110824084D02*
X139788391Y-110839762D01*
X139885092Y-110875938D01*
X139965285Y-110933313D01*
X140030396Y-111012587D01*
X140048583Y-111042006D01*
X140063647Y-111072921D01*
X140071876Y-111105202D01*
X140075313Y-111147659D01*
X140076005Y-111209102D01*
X140075723Y-111252004D01*
X140073331Y-111300643D01*
X140066891Y-111335832D01*
X140054511Y-111366268D01*
X140034297Y-111400644D01*
X140016272Y-111426925D01*
X139946039Y-111498921D01*
X139857353Y-111550732D01*
X139749294Y-111582946D01*
X139742502Y-111583931D01*
X139703234Y-111585689D01*
X139646878Y-111584994D01*
X139581688Y-111582265D01*
X139515915Y-111577918D01*
X139457812Y-111572373D01*
X139415633Y-111566047D01*
X139366974Y-111555876D01*
X139363126Y-111351367D01*
X139359279Y-111146858D01*
X139651976Y-111146858D01*
X139651976Y-111230274D01*
X139651968Y-111243783D01*
X139650928Y-111284198D01*
X139645816Y-111304951D01*
X139633355Y-111312597D01*
X139610269Y-111313689D01*
X139588255Y-111314967D01*
X139572006Y-111325856D01*
X139568561Y-111355397D01*
X139571210Y-111383263D01*
X139584779Y-111394834D01*
X139617666Y-111397105D01*
X139647878Y-111395543D01*
X139718840Y-111376560D01*
X139772680Y-111337899D01*
X139806838Y-111281930D01*
X139818755Y-111211021D01*
X139816332Y-111174840D01*
X139794964Y-111105943D01*
X139753815Y-111053340D01*
X139695662Y-111018363D01*
X139623277Y-111002344D01*
X139539436Y-111006616D01*
X139446913Y-111032510D01*
X139373925Y-111060772D01*
X139373925Y-110869584D01*
X139453865Y-110845936D01*
X139484193Y-110838389D01*
X139561701Y-110826993D01*
X139645025Y-110823306D01*
X139673756Y-110824084D01*
G36*
X133159475Y-112050526D02*
G01*
X133159475Y-104348501D01*
X133312403Y-104348501D01*
X133312403Y-111897597D01*
X140861500Y-111897597D01*
X140861500Y-104348501D01*
X133312403Y-104348501D01*
X133159475Y-104348501D01*
X133159475Y-104209475D01*
X141014428Y-104209475D01*
X141014428Y-112050526D01*
X133159475Y-112050526D01*
G37*
X133159475Y-112050526D02*
X133159475Y-104348501D01*
X133312403Y-104348501D01*
X133312403Y-111897597D01*
X140861500Y-111897597D01*
X140861500Y-104348501D01*
X133312403Y-104348501D01*
X133159475Y-104348501D01*
X133159475Y-104209475D01*
X141014428Y-104209475D01*
X141014428Y-112050526D01*
X133159475Y-112050526D01*
G36*
X126071898Y-104147141D02*
G01*
X126064458Y-104263909D01*
X125906753Y-104420688D01*
X125603638Y-104609540D01*
X125408527Y-104720648D01*
X124732579Y-105216083D01*
X124195156Y-105807515D01*
X123798245Y-106492384D01*
X123543830Y-107268125D01*
X123488282Y-107571641D01*
X123453772Y-108360024D01*
X123572199Y-109119697D01*
X123832786Y-109831362D01*
X124224755Y-110475718D01*
X124737330Y-111033468D01*
X125359734Y-111485312D01*
X126081190Y-111811952D01*
X126306199Y-111880548D01*
X127094826Y-112015183D01*
X127868298Y-111990961D01*
X128607997Y-111815858D01*
X129295307Y-111497851D01*
X129911609Y-111044914D01*
X130438285Y-110465024D01*
X130856717Y-109766156D01*
X130950857Y-109565060D01*
X131055510Y-109317527D01*
X131120313Y-109100128D01*
X131154863Y-108862997D01*
X131168758Y-108556269D01*
X131171593Y-108130080D01*
X131171096Y-107832944D01*
X131162855Y-107491849D01*
X131137233Y-107238004D01*
X131084805Y-107021982D01*
X130996145Y-106794351D01*
X130861826Y-106505683D01*
X130503925Y-105878113D01*
X130003075Y-105279491D01*
X129381799Y-104780976D01*
X129158954Y-104619454D01*
X128989417Y-104443205D01*
X128979486Y-104320289D01*
X129128784Y-104249916D01*
X129158214Y-104248446D01*
X129342035Y-104307016D01*
X129602573Y-104450196D01*
X129902255Y-104653076D01*
X130203510Y-104890748D01*
X130468768Y-105138303D01*
X130563797Y-105240877D01*
X131034300Y-105889964D01*
X131375117Y-106625535D01*
X131578799Y-107420317D01*
X131637897Y-108247034D01*
X131544959Y-109078412D01*
X131538322Y-109109576D01*
X131300101Y-109824566D01*
X130917727Y-110501407D01*
X130414911Y-111115395D01*
X129815362Y-111641829D01*
X129142790Y-112056007D01*
X128420904Y-112333227D01*
X128306339Y-112360507D01*
X127829164Y-112423180D01*
X127282277Y-112436733D01*
X126737191Y-112401655D01*
X126265422Y-112318439D01*
X125658668Y-112108150D01*
X124926579Y-111702081D01*
X124272316Y-111157807D01*
X124036194Y-110901459D01*
X123565293Y-110226414D01*
X123239420Y-109493535D01*
X123058411Y-108723502D01*
X123022104Y-107936991D01*
X123130334Y-107154681D01*
X123382939Y-106397252D01*
X123779755Y-105685381D01*
X124320619Y-105039746D01*
X124355460Y-105005719D01*
X124703258Y-104702022D01*
X125068566Y-104437101D01*
X125417239Y-104231362D01*
X125715132Y-104105213D01*
X125928101Y-104079058D01*
X126071898Y-104147141D01*
G37*
G36*
X127590170Y-110574049D02*
G01*
X127979290Y-110589369D01*
X128309078Y-110617749D01*
X128543044Y-110659139D01*
X128644700Y-110713491D01*
X128654702Y-110801301D01*
X128589342Y-110967491D01*
X128552005Y-110993871D01*
X128360486Y-111045554D01*
X128056745Y-111081290D01*
X127680507Y-111101135D01*
X127271496Y-111105145D01*
X126869437Y-111093376D01*
X126514054Y-111065885D01*
X126245072Y-111022729D01*
X126102216Y-110963963D01*
X126035362Y-110864034D01*
X126020560Y-110709963D01*
X126031709Y-110695066D01*
X126170152Y-110644351D01*
X126431709Y-110606940D01*
X126779890Y-110582786D01*
X127178207Y-110571839D01*
X127590170Y-110574049D01*
G37*
G36*
X128156417Y-109572652D02*
G01*
X128610470Y-109578325D01*
X128986514Y-109588131D01*
X129255317Y-109602236D01*
X129387646Y-109620805D01*
X129405858Y-109629034D01*
X129503818Y-109750858D01*
X129509104Y-109910345D01*
X129415737Y-110022094D01*
X129351812Y-110030539D01*
X129134354Y-110040331D01*
X128789623Y-110047522D01*
X128342109Y-110051794D01*
X127816302Y-110052832D01*
X127236689Y-110050316D01*
X127189757Y-110049969D01*
X126554080Y-110044523D01*
X126066480Y-110037725D01*
X125706999Y-110027921D01*
X125455680Y-110013455D01*
X125292564Y-109992675D01*
X125197694Y-109963923D01*
X125151111Y-109925547D01*
X125132858Y-109875892D01*
X125134538Y-109778336D01*
X125216407Y-109644355D01*
X125249380Y-109634818D01*
X125430971Y-109616177D01*
X125739183Y-109600515D01*
X126144783Y-109587996D01*
X126618540Y-109578785D01*
X127131220Y-109573047D01*
X127653590Y-109570948D01*
X128156417Y-109572652D01*
G37*
G36*
X128115834Y-101507737D02*
G01*
X128175879Y-101301790D01*
X128249320Y-100933413D01*
X128316320Y-100552413D01*
X128326279Y-101002479D01*
X128324031Y-101168726D01*
X128295533Y-101442239D01*
X128244418Y-101624110D01*
X128213463Y-101690653D01*
X128152984Y-101883527D01*
X128119063Y-102077274D01*
X128119034Y-102165313D01*
X128119017Y-102217524D01*
X128160168Y-102249909D01*
X128190268Y-102211877D01*
X128264127Y-102045481D01*
X128342090Y-101802685D01*
X128375905Y-101682885D01*
X128428985Y-101527235D01*
X128461122Y-101514296D01*
X128484830Y-101628829D01*
X128485910Y-101719723D01*
X128438769Y-101975012D01*
X128341563Y-102253425D01*
X128285009Y-102390417D01*
X128200258Y-102642809D01*
X128166904Y-102817209D01*
X128167996Y-102867436D01*
X128168821Y-102869292D01*
X128199463Y-102938205D01*
X128306065Y-102870653D01*
X128341186Y-102836250D01*
X128473698Y-102654038D01*
X128604167Y-102415786D01*
X128763108Y-102076413D01*
X128717166Y-102371361D01*
X128709558Y-102412173D01*
X128616975Y-102692881D01*
X128476824Y-102964027D01*
X128371021Y-103178558D01*
X128344621Y-103232089D01*
X128337358Y-103456323D01*
X128336804Y-103473413D01*
X128391186Y-103685080D01*
X128577133Y-103388746D01*
X128607255Y-103339335D01*
X128735365Y-103097770D01*
X128812838Y-102901913D01*
X128859329Y-102782431D01*
X128931258Y-102711413D01*
X128960429Y-102763584D01*
X128938548Y-102924196D01*
X128871886Y-103145231D01*
X128775712Y-103377335D01*
X128665295Y-103571150D01*
X128602398Y-103680653D01*
X128579908Y-103744346D01*
X128533284Y-103876387D01*
X128526481Y-103919898D01*
X128506740Y-104046167D01*
X128504671Y-104059398D01*
X128522322Y-104180870D01*
X128592001Y-104191990D01*
X128655934Y-104124400D01*
X128785235Y-103943571D01*
X128937889Y-103700159D01*
X129027277Y-103551869D01*
X129123689Y-103410226D01*
X129158336Y-103401614D01*
X129142638Y-103515746D01*
X129125770Y-103578366D01*
X129021351Y-103833272D01*
X128875242Y-104094761D01*
X128815883Y-104192564D01*
X128721753Y-104396238D01*
X128703144Y-104525550D01*
X128703247Y-104525819D01*
X128698539Y-104627740D01*
X128695672Y-104689813D01*
X128609577Y-104901549D01*
X128482795Y-105089886D01*
X128353157Y-105183682D01*
X128255048Y-105278769D01*
X128133572Y-105541347D01*
X127991451Y-105971449D01*
X127941008Y-106140168D01*
X127837485Y-106478670D01*
X127751950Y-106748378D01*
X127699122Y-106902413D01*
X127677841Y-106987144D01*
X127733200Y-106969487D01*
X127886622Y-106835738D01*
X127993346Y-106745060D01*
X128339964Y-106548290D01*
X128685263Y-106482306D01*
X128990809Y-106556817D01*
X129225237Y-106683966D01*
X128861199Y-106687356D01*
X128439700Y-106749079D01*
X128068367Y-106947751D01*
X127741901Y-107299154D01*
X127711039Y-107342408D01*
X127571527Y-107579341D01*
X127505941Y-107818594D01*
X127489570Y-108142783D01*
X127498266Y-108362073D01*
X127528596Y-108561275D01*
X127573175Y-108638080D01*
X127603799Y-108625863D01*
X127718525Y-108512951D01*
X127857506Y-108320108D01*
X127983268Y-108143568D01*
X128302703Y-107790686D01*
X128671827Y-107467726D01*
X129026185Y-107234556D01*
X129154589Y-107180793D01*
X129419381Y-107105604D01*
X129719422Y-107047174D01*
X130005127Y-107012703D01*
X130226913Y-107009394D01*
X130335195Y-107044446D01*
X130337995Y-107056677D01*
X130259302Y-107097573D01*
X130072255Y-107114080D01*
X130000278Y-107117690D01*
X129704107Y-107173964D01*
X129409147Y-107276772D01*
X129298766Y-107338443D01*
X129065094Y-107508186D01*
X128799615Y-107733319D01*
X128535459Y-107982019D01*
X128305756Y-108222464D01*
X128143639Y-108422829D01*
X128082237Y-108551293D01*
X128130958Y-108589005D01*
X128320406Y-108619689D01*
X128661065Y-108635723D01*
X129161737Y-108637811D01*
X129206514Y-108637459D01*
X129619552Y-108634644D01*
X129971341Y-108632985D01*
X130225856Y-108632611D01*
X130347070Y-108633646D01*
X130360135Y-108635464D01*
X130435104Y-108721375D01*
X130450576Y-108873470D01*
X130395419Y-109006009D01*
X130306525Y-109018199D01*
X130066577Y-109028724D01*
X129695303Y-109036871D01*
X129212052Y-109042420D01*
X128636173Y-109045152D01*
X127987012Y-109044847D01*
X127283919Y-109041286D01*
X124229904Y-109019080D01*
X124202849Y-108828580D01*
X124199986Y-108807780D01*
X124199165Y-108736684D01*
X124236131Y-108688871D01*
X124337194Y-108659722D01*
X124528663Y-108644619D01*
X124836846Y-108638945D01*
X125288054Y-108638080D01*
X125691506Y-108638543D01*
X126039401Y-108631023D01*
X126250457Y-108598857D01*
X126342408Y-108525280D01*
X126332985Y-108393527D01*
X126239923Y-108186833D01*
X126080952Y-107888431D01*
X125976258Y-107699613D01*
X125585639Y-107123747D01*
X125171781Y-106702950D01*
X124740127Y-106441930D01*
X124296123Y-106345395D01*
X124060570Y-106338711D01*
X124297948Y-106252158D01*
X124299506Y-106251592D01*
X124668673Y-106203812D01*
X125057798Y-106304596D01*
X125427887Y-106543877D01*
X125638505Y-106748865D01*
X126008365Y-107191191D01*
X126347371Y-107690313D01*
X126607128Y-108179119D01*
X126741732Y-108446921D01*
X126876919Y-108618115D01*
X126979057Y-108625716D01*
X127043592Y-108470001D01*
X127065969Y-108151246D01*
X127087733Y-107845545D01*
X127152745Y-107441518D01*
X127245926Y-107056339D01*
X127321787Y-106776586D01*
X127374033Y-106427305D01*
X127333849Y-106148659D01*
X127190525Y-105890891D01*
X126933351Y-105604246D01*
X126756533Y-105423971D01*
X126613217Y-105270134D01*
X126558237Y-105200035D01*
X126558237Y-105199998D01*
X126626730Y-105205347D01*
X126791070Y-105258895D01*
X126813113Y-105267666D01*
X127037472Y-105395349D01*
X127256820Y-105572981D01*
X127423428Y-105756602D01*
X127489570Y-105902253D01*
X127492029Y-105941103D01*
X127541407Y-106013260D01*
X127622147Y-105962929D01*
X127691698Y-105809612D01*
X127732641Y-105660742D01*
X127794601Y-105470945D01*
X127794867Y-105369292D01*
X127661449Y-105336080D01*
X127623755Y-105333020D01*
X127447932Y-105254431D01*
X127221527Y-105058814D01*
X126982252Y-104793110D01*
X127334657Y-104793110D01*
X127453285Y-104949032D01*
X127603602Y-105061035D01*
X127709706Y-105062631D01*
X127728612Y-104943468D01*
X127680113Y-104859085D01*
X128094197Y-104859085D01*
X128105676Y-104906084D01*
X128142316Y-104943468D01*
X128158876Y-104960365D01*
X128281944Y-104890226D01*
X128371512Y-104789126D01*
X128408944Y-104627740D01*
X128397465Y-104580742D01*
X128344265Y-104526461D01*
X128221197Y-104596599D01*
X128131629Y-104697700D01*
X128094197Y-104859085D01*
X127680113Y-104859085D01*
X127670656Y-104842630D01*
X127510737Y-104734530D01*
X127492385Y-104728026D01*
X127349463Y-104712821D01*
X127334657Y-104793110D01*
X126982252Y-104793110D01*
X126926938Y-104731686D01*
X126902838Y-104704446D01*
X126756319Y-104555313D01*
X126565363Y-104374759D01*
X126517377Y-104329453D01*
X126329807Y-104125812D01*
X126206036Y-103951425D01*
X126165332Y-103862112D01*
X126195580Y-103866379D01*
X126323145Y-103994390D01*
X126548125Y-104191651D01*
X126796779Y-104354419D01*
X127058587Y-104489805D01*
X126914480Y-104238713D01*
X126912934Y-104236032D01*
X126853130Y-104155964D01*
X127144033Y-104155964D01*
X127252504Y-104303146D01*
X127334775Y-104357439D01*
X127527670Y-104401929D01*
X127635174Y-104393156D01*
X127631629Y-104348318D01*
X127507882Y-104238392D01*
X127912904Y-104238392D01*
X127925239Y-104333820D01*
X127971584Y-104393156D01*
X127980637Y-104404746D01*
X128074231Y-104370871D01*
X128197771Y-104229471D01*
X128251570Y-104046167D01*
X128250491Y-104008812D01*
X128211144Y-103934955D01*
X128082237Y-103981413D01*
X127981182Y-104068588D01*
X127912904Y-104238392D01*
X127507882Y-104238392D01*
X127501357Y-104232596D01*
X127452905Y-104194352D01*
X127274442Y-104093003D01*
X127161415Y-104083062D01*
X127144033Y-104155964D01*
X126853130Y-104155964D01*
X126761601Y-104033420D01*
X126600167Y-103896530D01*
X126467062Y-103798058D01*
X126270420Y-103563880D01*
X126123576Y-103291485D01*
X126083962Y-103113373D01*
X126134904Y-103113373D01*
X126166689Y-103203638D01*
X126263426Y-103365226D01*
X126272963Y-103378395D01*
X126439770Y-103557836D01*
X126652586Y-103734307D01*
X126913225Y-103919898D01*
X126786317Y-103675489D01*
X126762657Y-103634672D01*
X126668658Y-103513839D01*
X127019779Y-103513839D01*
X127066237Y-103642746D01*
X127146661Y-103731383D01*
X127293714Y-103802830D01*
X127429744Y-103812365D01*
X127489570Y-103744346D01*
X127455696Y-103650753D01*
X127401488Y-103603392D01*
X127743570Y-103603392D01*
X127772409Y-103680671D01*
X127890876Y-103727807D01*
X128025793Y-103670968D01*
X128055099Y-103618511D01*
X128082237Y-103456323D01*
X128081097Y-103417008D01*
X128041713Y-103342382D01*
X127912904Y-103388746D01*
X127810795Y-103468646D01*
X127743570Y-103603392D01*
X127401488Y-103603392D01*
X127314295Y-103527212D01*
X127130992Y-103473413D01*
X127093637Y-103474492D01*
X127019779Y-103513839D01*
X126668658Y-103513839D01*
X126637158Y-103473347D01*
X126473949Y-103308035D01*
X126310714Y-103171257D01*
X126185137Y-103095529D01*
X126134904Y-103113373D01*
X126083962Y-103113373D01*
X126069885Y-103050080D01*
X126060477Y-102891496D01*
X126006319Y-102669080D01*
X125994894Y-102626520D01*
X126044148Y-102643384D01*
X126171132Y-102776821D01*
X126220407Y-102832598D01*
X126413664Y-103022561D01*
X126575381Y-103143921D01*
X126651003Y-103181261D01*
X126712113Y-103173513D01*
X126683220Y-103036180D01*
X126677923Y-103020317D01*
X126623697Y-102921601D01*
X126935589Y-102921601D01*
X126981570Y-103050080D01*
X127069249Y-103151065D01*
X127241528Y-103219413D01*
X127288452Y-103218055D01*
X127366219Y-103178558D01*
X127326949Y-103068833D01*
X127625640Y-103068833D01*
X127695053Y-103134746D01*
X127701138Y-103134695D01*
X127860423Y-103067112D01*
X127912904Y-102869292D01*
X127897860Y-102795430D01*
X127817293Y-102756907D01*
X127711797Y-102821767D01*
X127632840Y-102971270D01*
X127625640Y-103068833D01*
X127326949Y-103068833D01*
X127320237Y-103050080D01*
X127232559Y-102949094D01*
X127060279Y-102880746D01*
X127013356Y-102882104D01*
X126935589Y-102921601D01*
X126623697Y-102921601D01*
X126567821Y-102819881D01*
X126400042Y-102614306D01*
X126279813Y-102481479D01*
X126120673Y-102272225D01*
X125994982Y-102072766D01*
X125927386Y-101923481D01*
X125942529Y-101864746D01*
X125950820Y-101866140D01*
X126044578Y-101948263D01*
X126163409Y-102118136D01*
X126168264Y-102126262D01*
X126319065Y-102325636D01*
X126472024Y-102456585D01*
X126559008Y-102496601D01*
X126598038Y-102466552D01*
X126559478Y-102309029D01*
X126541880Y-102256473D01*
X126532817Y-102234313D01*
X126814371Y-102234313D01*
X126837840Y-102347717D01*
X126945285Y-102493699D01*
X127065436Y-102590860D01*
X127188989Y-102614276D01*
X127235570Y-102502725D01*
X127216427Y-102466793D01*
X127489570Y-102466793D01*
X127490396Y-102478510D01*
X127515883Y-102502725D01*
X127557304Y-102542080D01*
X127654942Y-102506375D01*
X127775877Y-102359810D01*
X127825420Y-102165313D01*
X127816647Y-102057809D01*
X127771809Y-102061354D01*
X127656087Y-102191626D01*
X127539094Y-102353901D01*
X127489570Y-102466793D01*
X127216427Y-102466793D01*
X127168751Y-102377305D01*
X127018094Y-102257056D01*
X126860137Y-102203413D01*
X126814371Y-102234313D01*
X126532817Y-102234313D01*
X126440262Y-102008007D01*
X126311451Y-101741011D01*
X126272446Y-101661530D01*
X126174636Y-101400235D01*
X126135993Y-101190677D01*
X126138038Y-101138698D01*
X126162767Y-101091330D01*
X126226034Y-101173669D01*
X126340982Y-101399080D01*
X126544881Y-101822413D01*
X126563697Y-101528728D01*
X126824452Y-101528728D01*
X126846015Y-101733803D01*
X126910209Y-101872406D01*
X127059924Y-101949413D01*
X127122963Y-101935760D01*
X127182020Y-101834373D01*
X127162218Y-101753928D01*
X127489570Y-101753928D01*
X127495628Y-101797270D01*
X127533872Y-101834373D01*
X127565179Y-101864746D01*
X127635019Y-101824172D01*
X127711832Y-101668234D01*
X127740878Y-101455655D01*
X127737922Y-101403669D01*
X127706108Y-101373035D01*
X127613878Y-101478762D01*
X127537398Y-101603488D01*
X127489570Y-101753928D01*
X127162218Y-101753928D01*
X127143376Y-101677382D01*
X127012708Y-101516788D01*
X126886734Y-101454874D01*
X126824452Y-101528728D01*
X126563697Y-101528728D01*
X126563867Y-101526080D01*
X126571989Y-101246542D01*
X126564923Y-100963338D01*
X126567689Y-100787095D01*
X126604133Y-100522967D01*
X126665384Y-100268836D01*
X126738035Y-100077582D01*
X126808676Y-100002080D01*
X126821492Y-100007875D01*
X126835246Y-100113479D01*
X126798192Y-100310151D01*
X126795041Y-100321898D01*
X126753603Y-100619640D01*
X126767111Y-100905970D01*
X126821093Y-101193718D01*
X126877659Y-101082183D01*
X127187273Y-101082183D01*
X127213962Y-101302057D01*
X127267364Y-101411340D01*
X127318048Y-101419645D01*
X127398726Y-101283622D01*
X127451198Y-101123347D01*
X127447154Y-100862027D01*
X127390339Y-100637080D01*
X127262390Y-100880462D01*
X127187273Y-101082183D01*
X126877659Y-101082183D01*
X127069593Y-100703732D01*
X127210938Y-100389027D01*
X127296245Y-100057258D01*
X127320461Y-99663413D01*
X127320557Y-99645340D01*
X127330857Y-99355097D01*
X127358323Y-99223268D01*
X127404904Y-99240080D01*
X127440486Y-99345586D01*
X127474586Y-99583853D01*
X127488274Y-99880064D01*
X127491958Y-100023165D01*
X127533210Y-100352110D01*
X127613878Y-100557397D01*
X127688861Y-100688597D01*
X127743452Y-100891080D01*
X127746547Y-100960928D01*
X127768629Y-101010751D01*
X127838307Y-100906371D01*
X127869124Y-100817792D01*
X127899558Y-100580967D01*
X127899232Y-100292422D01*
X127892957Y-100105311D01*
X127903187Y-99908818D01*
X127932457Y-99832631D01*
X128002970Y-99897783D01*
X128053099Y-100119269D01*
X128071501Y-100487478D01*
X128057037Y-100991832D01*
X128050942Y-101123347D01*
X128050140Y-101140646D01*
X128049558Y-101428200D01*
X128054741Y-101455655D01*
X128072591Y-101550219D01*
X128115834Y-101507737D01*
G37*
D10*
%TO.C,LS1*%
X143000000Y-92500000D02*
G75*
G03*
X143000000Y-92500000I-5500000J0D01*
G01*
X139500000Y-92500000D02*
G75*
G03*
X139500000Y-92500000I-2000000J0D01*
G01*
X145500000Y-92500000D02*
G75*
G03*
X145500000Y-92500000I-8000000J0D01*
G01*
D12*
%TO.C,A1*%
X74540000Y-104140000D02*
X84960000Y-104140000D01*
X77080000Y-91180000D02*
X120520000Y-91180000D01*
X117850000Y-93850000D02*
X79750000Y-93850000D01*
X84960000Y-96260000D02*
X74540000Y-96260000D01*
X74540000Y-96260000D02*
X74540000Y-104140000D01*
X84960000Y-104140000D02*
X84960000Y-96260000D01*
X117850000Y-106550000D02*
X117850000Y-109220000D01*
X79750000Y-93850000D02*
X79750000Y-91180000D01*
X115310000Y-106550000D02*
X79750000Y-106550000D01*
X115310000Y-109220000D02*
X77080000Y-109220000D01*
X77080000Y-109220000D02*
X77080000Y-104140000D01*
X117850000Y-93850000D02*
X117850000Y-91180000D01*
X77080000Y-91180000D02*
X77080000Y-96260000D01*
X115310000Y-106550000D02*
X117850000Y-106550000D01*
X115310000Y-106550000D02*
X115310000Y-109220000D01*
X120520000Y-109220000D02*
X117850000Y-109220000D01*
X120520000Y-91180000D02*
X120520000Y-109220000D01*
X79750000Y-106550000D02*
X79750000Y-109220000D01*
%TD*%
M02*
