%TF.GenerationSoftware,KiCad,Pcbnew,6.0.11-2627ca5db0~126~ubuntu22.04.1*%
%TF.CreationDate,2024-02-01T14:55:18+01:00*%
%TF.ProjectId,GrooveBox,47726f6f-7665-4426-9f78-2e6b69636164,rev?*%
%TF.SameCoordinates,Original*%
%TF.FileFunction,Legend,Bot*%
%TF.FilePolarity,Positive*%
%FSLAX46Y46*%
G04 Gerber Fmt 4.6, Leading zero omitted, Abs format (unit mm)*
G04 Created by KiCad (PCBNEW 6.0.11-2627ca5db0~126~ubuntu22.04.1) date 2024-02-01 14:55:18*
%MOMM*%
%LPD*%
G01*
G04 APERTURE LIST*
%ADD10C,0.150000*%
%ADD11C,0.120000*%
G04 APERTURE END LIST*
D10*
%TO.C,A1*%
X121826666Y-99485714D02*
X121826666Y-99961904D01*
X122112380Y-99390476D02*
X121112380Y-99723809D01*
X122112380Y-100057142D01*
X122112380Y-100914285D02*
X122112380Y-100342857D01*
X122112380Y-100628571D02*
X121112380Y-100628571D01*
X121255238Y-100533333D01*
X121350476Y-100438095D01*
X121398095Y-100342857D01*
X81567619Y-101461904D02*
X80758095Y-101461904D01*
X80662857Y-101414285D01*
X80615238Y-101366666D01*
X80567619Y-101271428D01*
X80567619Y-101080952D01*
X80615238Y-100985714D01*
X80662857Y-100938095D01*
X80758095Y-100890476D01*
X81567619Y-100890476D01*
X80615238Y-100461904D02*
X80567619Y-100319047D01*
X80567619Y-100080952D01*
X80615238Y-99985714D01*
X80662857Y-99938095D01*
X80758095Y-99890476D01*
X80853333Y-99890476D01*
X80948571Y-99938095D01*
X80996190Y-99985714D01*
X81043809Y-100080952D01*
X81091428Y-100271428D01*
X81139047Y-100366666D01*
X81186666Y-100414285D01*
X81281904Y-100461904D01*
X81377142Y-100461904D01*
X81472380Y-100414285D01*
X81520000Y-100366666D01*
X81567619Y-100271428D01*
X81567619Y-100033333D01*
X81520000Y-99890476D01*
X81091428Y-99128571D02*
X81043809Y-98985714D01*
X80996190Y-98938095D01*
X80900952Y-98890476D01*
X80758095Y-98890476D01*
X80662857Y-98938095D01*
X80615238Y-98985714D01*
X80567619Y-99080952D01*
X80567619Y-99461904D01*
X81567619Y-99461904D01*
X81567619Y-99128571D01*
X81520000Y-99033333D01*
X81472380Y-98985714D01*
X81377142Y-98938095D01*
X81281904Y-98938095D01*
X81186666Y-98985714D01*
X81139047Y-99033333D01*
X81091428Y-99128571D01*
X81091428Y-99461904D01*
D11*
X79750000Y-93850000D02*
X79750000Y-91180000D01*
X77080000Y-91180000D02*
X120520000Y-91180000D01*
X120520000Y-91180000D02*
X120520000Y-109220000D01*
X115310000Y-106550000D02*
X115310000Y-109220000D01*
X115310000Y-109220000D02*
X77080000Y-109220000D01*
X84960000Y-96260000D02*
X74540000Y-96260000D01*
X79750000Y-106550000D02*
X79750000Y-109220000D01*
X84960000Y-104140000D02*
X84960000Y-96260000D01*
X117850000Y-93850000D02*
X79750000Y-93850000D01*
X115310000Y-106550000D02*
X117850000Y-106550000D01*
X115310000Y-106550000D02*
X79750000Y-106550000D01*
X74540000Y-104140000D02*
X84960000Y-104140000D01*
X117850000Y-93850000D02*
X117850000Y-91180000D01*
X120520000Y-109220000D02*
X117850000Y-109220000D01*
X77080000Y-91180000D02*
X77080000Y-96260000D01*
X74540000Y-96260000D02*
X74540000Y-104140000D01*
X77080000Y-109220000D02*
X77080000Y-104140000D01*
X117850000Y-106550000D02*
X117850000Y-109220000D01*
D10*
%TO.C,LS1*%
X143000000Y-92500000D02*
G75*
G03*
X143000000Y-92500000I-5500000J0D01*
G01*
X139500000Y-92500000D02*
G75*
G03*
X139500000Y-92500000I-2000000J0D01*
G01*
X145500000Y-92500000D02*
G75*
G03*
X145500000Y-92500000I-8000000J0D01*
G01*
%TD*%
M02*
